{
.appVersion = "1354";
classes = (
{
automatic = 1;

glyphs = (
{
glyphname = A;
layers = (
{
anchors = (
{
name = bottom;
position = "{307, 0}";
},
{
name = ogonek;
position = "{576, 0}";
},
{
name = top;
position = "{307, 700}";
}
);
layerId = master01;
paths = (
{
closed = 1;
nodes = (
"60 -2 LINE SMOOTH",
"80 -2 OFFCURVE",
"96 2 OFFCURVE",
"100 14 CURVE SMOOTH",
"157 178 LINE",
"451 178 LINE",
"510 14 LINE SMOOTH",
"514 2 OFFCURVE",
"530 -2 OFFCURVE",
"550 -2 CURVE SMOOTH",
"558 -2 LINE SMOOTH",
"588 -2 OFFCURVE",
"601 5 OFFCURVE",
"601 15 CURVE SMOOTH",
"601 19 OFFCURVE",
"600 23 OFFCURVE",
"598 28 CURVE SMOOTH",
"361 686 LINE SMOOTH",
"357.5 696.5 OFFCURVE",
"344 702 OFFCURVE",
"321 702 CURVE SMOOTH",
"292 702 LINE SMOOTH",
"269 702 OFFCURVE",
"255.5 696.5 OFFCURVE",
"252 686 CURVE SMOOTH",
"15 29 LINE SMOOTH",
"13 23 OFFCURVE",
"12 19 OFFCURVE",
"12 15 CURVE SMOOTH",
"12 4 OFFCURVE",
"25 -2 OFFCURVE",
"55 -2 CURVE SMOOTH"
);
},
{
closed = 1;
nodes = (
"290 552 LINE SMOOTH",
"297 571 OFFCURVE",
"301 591 OFFCURVE",
"305 610 CURVE",
"307 610 LINE",
"310 591 OFFCURVE",
"313 570 OFFCURVE",
"319 552 CURVE SMOOTH",
"424 254 LINE",
"185 254 LINE"
);
}
);
width = 613;
},
{
anchors = (
{
name = bottom;
position = "{307, 0}";
},
{
name = ogonek;
position = "{590, 0}";
},
{
name = top;
position = "{307, 700}";
}
);
layerId = "2DCA4625-E4BE-49C6-A30F-EA66D600808E";
paths = (
{
closed = 1;
nodes = (
"101 -2 LINE SMOOTH",
"125 -2 OFFCURVE",
"142 4 OFFCURVE",
"147 19 CURVE SMOOTH",
"187 141 LINE",
"423 141 LINE",
"463 19 LINE SMOOTH",
"468 3 OFFCURVE",
"490 -2 OFFCURVE",
"519 -2 CURVE SMOOTH",
"563 -2 LINE SMOOTH",
"598 -2 OFFCURVE",
"613 6 OFFCURVE",
"613 20 CURVE SMOOTH",
"613 25 OFFCURVE",
"612 31 OFFCURVE",
"610 38 CURVE SMOOTH",
"390 681 LINE SMOOTH",
"385 695 OFFCURVE",
"366.5 702 OFFCURVE",
"333 702 CURVE SMOOTH",
"281 702 LINE SMOOTH",
"247.5 702 OFFCURVE",
"229 695 OFFCURVE",
"224 681 CURVE SMOOTH",
"4 38 LINE SMOOTH",
"2 31 OFFCURVE",
"0 25 OFFCURVE",
"0 20 CURVE SMOOTH",
"0 6 OFFCURVE",
"19 -2 OFFCURVE",
"61 -2 CURVE SMOOTH"
);
},
{
closed = 1;
nodes = (
"289 451 LINE SMOOTH",
"296.5 472 OFFCURVE",
"300 494 OFFCURVE",
"304 515 CURVE",
"308 515 LINE",
"312 494 OFFCURVE",
"316 472 OFFCURVE",
"323 451 CURVE SMOOTH",
"380 273 LINE",
"230 273 LINE"
);
}
);
width = 613;
}
);
leftKerningGroup = A;
rightKerningGroup = A;
unicode = 0041;
},
{
glyphname = Aacute;
layers = (
{
anchors = (
{
name = bottom;
position = "{307, 0}";
},
{
name = ogonek;
position = "{576, 0}";
},
{
name = top;
position = "{307, 852}";
}
);
layerId = master01;
paths = (
{
closed = 1;
nodes = (
"60 -2 LINE SMOOTH",
"80 -2 OFFCURVE",
"96 2 OFFCURVE",
"100 14 CURVE SMOOTH",
"157 178 LINE",
"451 178 LINE",
"510 14 LINE SMOOTH",
"514 2 OFFCURVE",
"530 -2 OFFCURVE",
"550 -2 CURVE SMOOTH",
"558 -2 LINE SMOOTH",
"588 -2 OFFCURVE",
"601 5 OFFCURVE",
"601 15 CURVE SMOOTH",
"601 19 OFFCURVE",
"600 23 OFFCURVE",
"598 28 CURVE SMOOTH",
"361 686 LINE SMOOTH",
"358 697 OFFCURVE",
"344 702 OFFCURVE",
"321 702 CURVE SMOOTH",
"292 702 LINE SMOOTH",
"269 702 OFFCURVE",
"256 697 OFFCURVE",
"252 686 CURVE SMOOTH",
"15 29 LINE SMOOTH",
"13 23 OFFCURVE",
"12 19 OFFCURVE",
"12 15 CURVE SMOOTH",
"12 4 OFFCURVE",
"25 -2 OFFCURVE",
"55 -2 CURVE SMOOTH"
);
},
{
closed = 1;
nodes = (
"290 552 LINE SMOOTH",
"297 571 OFFCURVE",
"301 591 OFFCURVE",
"305 610 CURVE",
"307 610 LINE",
"310 591 OFFCURVE",
"313 570 OFFCURVE",
"319 552 CURVE SMOOTH",
"424 254 LINE",
"185 254 LINE"
);
},
{
closed = 1;
nodes = (
"280 752 OFFCURVE",
"293 756 OFFCURVE",
"321 773 CURVE SMOOTH",
"375 806 LINE SMOOTH",
"410 828 OFFCURVE",
"415 835 OFFCURVE",
"415 846 CURVE SMOOTH",
"415 858 OFFCURVE",
"393 864 OFFCURVE",
"362 864 CURVE SMOOTH",
"320 864 OFFCURVE",
"303 859 OFFCURVE",
"286 841 CURVE SMOOTH",
"232 784 LINE SMOOTH",
"224 776 OFFCURVE",
"221 770 OFFCURVE",
"221 765 CURVE SMOOTH",
"221 757 OFFCURVE",
"231 752 OFFCURVE",
"247 752 CURVE SMOOTH"
);
}
);
width = 613;
},
{
anchors = (
{
name = bottom;
position = "{307, 0}";
},
{
name = ogonek;
position = "{590, 0}";
},
{
name = top;
position = "{307, 862}";
}
);
layerId = "2DCA4625-E4BE-49C6-A30F-EA66D600808E";
paths = (
{
closed = 1;
nodes = (
"101 -2 LINE SMOOTH",
"125 -2 OFFCURVE",
"142 4 OFFCURVE",
"147 19 CURVE SMOOTH",
"187 141 LINE",
"423 141 LINE",
"463 19 LINE SMOOTH",
"468 3 OFFCURVE",
"490 -2 OFFCURVE",
"519 -2 CURVE SMOOTH",
"563 -2 LINE SMOOTH",
"598 -2 OFFCURVE",
"613 6 OFFCURVE",
"613 20 CURVE SMOOTH",
"613 25 OFFCURVE",
"612 31 OFFCURVE",
"610 38 CURVE SMOOTH",
"390 681 LINE SMOOTH",
"385 695 OFFCURVE",
"367 702 OFFCURVE",
"333 702 CURVE SMOOTH",
"281 702 LINE SMOOTH",
"248 702 OFFCURVE",
"229 695 OFFCURVE",
"224 681 CURVE SMOOTH",
"4 38 LINE SMOOTH",
"2 31 OFFCURVE",
"0 25 OFFCURVE",
"0 20 CURVE SMOOTH",
"0 6 OFFCURVE",
"19 -2 OFFCURVE",
"61 -2 CURVE SMOOTH"
);
},
{
closed = 1;
nodes = (
"289 451 LINE SMOOTH",
"297 472 OFFCURVE",
"300 494 OFFCURVE",
"304 515 CURVE",
"308 515 LINE",
"312 494 OFFCURVE",
"316 472 OFFCURVE",
"323 451 CURVE SMOOTH",
"380 273 LINE",
"230 273 LINE"
);
},
{
closed = 1;
nodes = (
"287 749 OFFCURVE",
"302 753 OFFCURVE",
"323 768 CURVE SMOOTH",
"409 824 LINE SMOOTH",
"430 838 OFFCURVE",
"439 849 OFFCURVE",
"439 857 CURVE SMOOTH",
"439 872 OFFCURVE",
"415 875 OFFCURVE",
"368 875 CURVE SMOOTH",
"322 875 OFFCURVE",
"303 868 OFFCURVE",
"282 845 CURVE SMOOTH",
"228 785 LINE SMOOTH",
"218 774 OFFCURVE",
"215 767 OFFCURVE",
"215 762 CURVE SMOOTH",
"215 753 OFFCURVE",
"227 749 OFFCURVE",
"253 749 CURVE SMOOTH"
);
}
);
width = 613;
}
);
leftKerningGroup = A;
rightKerningGroup = A;
unicode = 00C1;
},
{
glyphname = Abreve;
layers = (
{
anchors = (
{
name = bottom;
position = "{307, 0}";
},
{
name = ogonek;
position = "{576, 0}";
},
{
name = top;
position = "{307, 832}";
}
);
layerId = master01;
paths = (
{
closed = 1;
nodes = (
"60 -2 LINE SMOOTH",
"80 -2 OFFCURVE",
"96 2 OFFCURVE",
"100 14 CURVE SMOOTH",
"157 178 LINE",
"451 178 LINE",
"510 14 LINE SMOOTH",
"514 2 OFFCURVE",
"530 -2 OFFCURVE",
"550 -2 CURVE SMOOTH",
"558 -2 LINE SMOOTH",
"588 -2 OFFCURVE",
"601 5 OFFCURVE",
"601 15 CURVE SMOOTH",
"601 19 OFFCURVE",
"600 23 OFFCURVE",
"598 28 CURVE SMOOTH",
"361 686 LINE SMOOTH",
"358 697 OFFCURVE",
"344 702 OFFCURVE",
"321 702 CURVE SMOOTH",
"292 702 LINE SMOOTH",
"269 702 OFFCURVE",
"256 697 OFFCURVE",
"252 686 CURVE SMOOTH",
"15 29 LINE SMOOTH",
"13 23 OFFCURVE",
"12 19 OFFCURVE",
"12 15 CURVE SMOOTH",
"12 4 OFFCURVE",
"25 -2 OFFCURVE",
"55 -2 CURVE SMOOTH"
);
},
{
closed = 1;
nodes = (
"290 552 LINE SMOOTH",
"297 571 OFFCURVE",
"301 591 OFFCURVE",
"305 610 CURVE",
"307 610 LINE",
"310 591 OFFCURVE",
"313 570 OFFCURVE",
"319 552 CURVE SMOOTH",
"424 254 LINE",
"185 254 LINE"
);
},
{
closed = 1;
nodes = (
"387 744 OFFCURVE",
"457 782 OFFCURVE",
"457 849 CURVE SMOOTH",
"457 869 OFFCURVE",
"452 874 OFFCURVE",
"439 874 CURVE SMOOTH",
"429 874 OFFCURVE",
"423 872 OFFCURVE",
"420 862 CURVE SMOOTH",
"412 837 OFFCURVE",
"388 810 OFFCURVE",
"307 810 CURVE SMOOTH",
"226 810 OFFCURVE",
"202 837 OFFCURVE",
"194 862 CURVE SMOOTH",
"191 872 OFFCURVE",
"185 874 OFFCURVE",
"175 874 CURVE SMOOTH",
"162 874 OFFCURVE",
"157 869 OFFCURVE",
"157 849 CURVE SMOOTH",
"157 782 OFFCURVE",
"227 744 OFFCURVE",
"307 744 CURVE SMOOTH"
);
}
);
width = 613;
},
{
anchors = (
{
name = bottom;
position = "{307, 0}";
},
{
name = ogonek;
position = "{590, 0}";
},
{
name = top;
position = "{307, 842}";
}
);
layerId = "2DCA4625-E4BE-49C6-A30F-EA66D600808E";
paths = (
{
closed = 1;
nodes = (
"101 -2 LINE SMOOTH",
"125 -2 OFFCURVE",
"142 4 OFFCURVE",
"147 19 CURVE SMOOTH",
"187 141 LINE",
"423 141 LINE",
"463 19 LINE SMOOTH",
"468 3 OFFCURVE",
"490 -2 OFFCURVE",
"519 -2 CURVE SMOOTH",
"563 -2 LINE SMOOTH",
"598 -2 OFFCURVE",
"613 6 OFFCURVE",
"613 20 CURVE SMOOTH",
"613 25 OFFCURVE",
"612 31 OFFCURVE",
"610 38 CURVE SMOOTH",
"390 681 LINE SMOOTH",
"385 695 OFFCURVE",
"367 702 OFFCURVE",
"333 702 CURVE SMOOTH",
"281 702 LINE SMOOTH",
"248 702 OFFCURVE",
"229 695 OFFCURVE",
"224 681 CURVE SMOOTH",
"4 38 LINE SMOOTH",
"2 31 OFFCURVE",
"0 25 OFFCURVE",
"0 20 CURVE SMOOTH",
"0 6 OFFCURVE",
"19 -2 OFFCURVE",
"61 -2 CURVE SMOOTH"
);
},
{
closed = 1;
nodes = (
"289 451 LINE SMOOTH",
"297 472 OFFCURVE",
"300 494 OFFCURVE",
"304 515 CURVE",
"308 515 LINE",
"312 494 OFFCURVE",
"316 472 OFFCURVE",
"323 451 CURVE SMOOTH",
"380 273 LINE",
"230 273 LINE"
);
},
{
closed = 1;
nodes = (
"400 741 OFFCURVE",
"464 796 OFFCURVE",
"464 853 CURVE SMOOTH",
"464 871 OFFCURVE",
"451 881 OFFCURVE",
"429 881 CURVE SMOOTH",
"413 881 OFFCURVE",
"406 874 OFFCURVE",
"398 865 CURVE SMOOTH",
"386 851 OFFCURVE",
"368 832 OFFCURVE",
"307 832 CURVE SMOOTH",
"250 832 OFFCURVE",
"231 849 OFFCURVE",
"218 863 CURVE SMOOTH",
"209 873 OFFCURVE",
"202 881 OFFCURVE",
"185 881 CURVE SMOOTH",
"163 881 OFFCURVE",
"150 871 OFFCURVE",
"150 853 CURVE SMOOTH",
"150 796 OFFCURVE",
"214 741 OFFCURVE",
"307 741 CURVE SMOOTH"
);
}
);
width = 613;
}
);
leftKerningGroup = A;
rightKerningGroup = A;
unicode = 0102;
},
{
glyphname = Abreveacute;
layers = (
{
anchors = (
{
name = bottom;
position = "{307, 0}";
},
{
name = ogonek;
position = "{576, 0}";
},
{
name = top;
position = "{307, 984}";
}
);
layerId = master01;
paths = (
{
closed = 1;
nodes = (
"60 -2 LINE SMOOTH",
"80 -2 OFFCURVE",
"96 2 OFFCURVE",
"100 14 CURVE SMOOTH",
"157 178 LINE",
"451 178 LINE",
"510 14 LINE SMOOTH",
"514 2 OFFCURVE",
"530 -2 OFFCURVE",
"550 -2 CURVE SMOOTH",
"558 -2 LINE SMOOTH",
"588 -2 OFFCURVE",
"601 5 OFFCURVE",
"601 15 CURVE SMOOTH",
"601 19 OFFCURVE",
"600 23 OFFCURVE",
"598 28 CURVE SMOOTH",
"361 686 LINE SMOOTH",
"358 697 OFFCURVE",
"344 702 OFFCURVE",
"321 702 CURVE SMOOTH",
"292 702 LINE SMOOTH",
"269 702 OFFCURVE",
"256 697 OFFCURVE",
"252 686 CURVE SMOOTH",
"15 29 LINE SMOOTH",
"13 23 OFFCURVE",
"12 19 OFFCURVE",
"12 15 CURVE SMOOTH",
"12 4 OFFCURVE",
"25 -2 OFFCURVE",
"55 -2 CURVE SMOOTH"
);
},
{
closed = 1;
nodes = (
"290 552 LINE SMOOTH",
"297 571 OFFCURVE",
"301 591 OFFCURVE",
"305 610 CURVE",
"307 610 LINE",
"310 591 OFFCURVE",
"313 570 OFFCURVE",
"319 552 CURVE SMOOTH",
"424 254 LINE",
"185 254 LINE"
);
},
{
closed = 1;
nodes = (
"387 744 OFFCURVE",
"457 782 OFFCURVE",
"457 849 CURVE SMOOTH",
"457 869 OFFCURVE",
"452 874 OFFCURVE",
"439 874 CURVE SMOOTH",
"429 874 OFFCURVE",
"423 872 OFFCURVE",
"420 862 CURVE SMOOTH",
"412 837 OFFCURVE",
"388 810 OFFCURVE",
"307 810 CURVE SMOOTH",
"226 810 OFFCURVE",
"202 837 OFFCURVE",
"194 862 CURVE SMOOTH",
"191 872 OFFCURVE",
"185 874 OFFCURVE",
"175 874 CURVE SMOOTH",
"162 874 OFFCURVE",
"157 869 OFFCURVE",
"157 849 CURVE SMOOTH",
"157 782 OFFCURVE",
"227 744 OFFCURVE",
"307 744 CURVE SMOOTH"
);
},
{
closed = 1;
nodes = (
"280 884 OFFCURVE",
"293 888 OFFCURVE",
"321 905 CURVE SMOOTH",
"375 938 LINE SMOOTH",
"410 960 OFFCURVE",
"415 967 OFFCURVE",
"415 978 CURVE SMOOTH",
"415 990 OFFCURVE",
"393 996 OFFCURVE",
"362 996 CURVE SMOOTH",
"320 996 OFFCURVE",
"303 991 OFFCURVE",
"286 973 CURVE SMOOTH",
"232 916 LINE SMOOTH",
"224 908 OFFCURVE",
"221 902 OFFCURVE",
"221 897 CURVE SMOOTH",
"221 889 OFFCURVE",
"231 884 OFFCURVE",
"247 884 CURVE SMOOTH"
);
}
);
width = 613;
},
{
anchors = (
{
name = bottom;
position = "{307, 0}";
},
{
name = ogonek;
position = "{590, 0}";
},
{
name = top;
position = "{307, 1004}";
}
);
layerId = "2DCA4625-E4BE-49C6-A30F-EA66D600808E";
paths = (
{
closed = 1;
nodes = (
"101 -2 LINE SMOOTH",
"125 -2 OFFCURVE",
"142 4 OFFCURVE",
"147 19 CURVE SMOOTH",
"187 141 LINE",
"423 141 LINE",
"463 19 LINE SMOOTH",
"468 3 OFFCURVE",
"490 -2 OFFCURVE",
"519 -2 CURVE SMOOTH",
"563 -2 LINE SMOOTH",
"598 -2 OFFCURVE",
"613 6 OFFCURVE",
"613 20 CURVE SMOOTH",
"613 25 OFFCURVE",
"612 31 OFFCURVE",
"610 38 CURVE SMOOTH",
"390 681 LINE SMOOTH",
"385 695 OFFCURVE",
"367 702 OFFCURVE",
"333 702 CURVE SMOOTH",
"281 702 LINE SMOOTH",
"248 702 OFFCURVE",
"229 695 OFFCURVE",
"224 681 CURVE SMOOTH",
"4 38 LINE SMOOTH",
"2 31 OFFCURVE",
"0 25 OFFCURVE",
"0 20 CURVE SMOOTH",
"0 6 OFFCURVE",
"19 -2 OFFCURVE",
"61 -2 CURVE SMOOTH"
);
},
{
closed = 1;
nodes = (
"289 451 LINE SMOOTH",
"297 472 OFFCURVE",
"300 494 OFFCURVE",
"304 515 CURVE",
"308 515 LINE",
"312 494 OFFCURVE",
"316 472 OFFCURVE",
"323 451 CURVE SMOOTH",
"380 273 LINE",
"230 273 LINE"
);
},
{
closed = 1;
nodes = (
"400 741 OFFCURVE",
"464 796 OFFCURVE",
"464 853 CURVE SMOOTH",
"464 871 OFFCURVE",
"451 881 OFFCURVE",
"429 881 CURVE SMOOTH",
"413 881 OFFCURVE",
"406 874 OFFCURVE",
"398 865 CURVE SMOOTH",
"386 851 OFFCURVE",
"368 832 OFFCURVE",
"307 832 CURVE SMOOTH",
"250 832 OFFCURVE",
"231 849 OFFCURVE",
"218 863 CURVE SMOOTH",
"209 873 OFFCURVE",
"202 881 OFFCURVE",
"185 881 CURVE SMOOTH",
"163 881 OFFCURVE",
"150 871 OFFCURVE",
"150 853 CURVE SMOOTH",
"150 796 OFFCURVE",
"214 741 OFFCURVE",
"307 741 CURVE SMOOTH"
);
},
{
closed = 1;
nodes = (
"287 891 OFFCURVE",
"302 895 OFFCURVE",
"323 910 CURVE SMOOTH",
"409 966 LINE SMOOTH",
"430 980 OFFCURVE",
"439 991 OFFCURVE",
"439 999 CURVE SMOOTH",
"439 1014 OFFCURVE",
"415 1017 OFFCURVE",
"368 1017 CURVE SMOOTH",
"322 1017 OFFCURVE",
"303 1010 OFFCURVE",
"282 987 CURVE SMOOTH",
"228 927 LINE SMOOTH",
"218 916 OFFCURVE",
"215 909 OFFCURVE",
"215 904 CURVE SMOOTH",
"215 895 OFFCURVE",
"227 891 OFFCURVE",
"253 891 CURVE SMOOTH"
);
}
);
width = 613;
}
);
leftKerningGroup = A;
rightKerningGroup = A;
unicode = 1EAE;
},
{
glyphname = Abrevedotbelow;
layers = (
{
anchors = (
{
name = bottom;
position = "{307, -155}";
},
{
name = ogonek;
position = "{576, 0}";
},
{
name = top;
position = "{307, 832}";
}
);
layerId = master01;
paths = (
{
closed = 1;
nodes = (
"60 -2 LINE SMOOTH",
"80 -2 OFFCURVE",
"96 2 OFFCURVE",
"100 14 CURVE SMOOTH",
"157 178 LINE",
"451 178 LINE",
"510 14 LINE SMOOTH",
"514 2 OFFCURVE",
"530 -2 OFFCURVE",
"550 -2 CURVE SMOOTH",
"558 -2 LINE SMOOTH",
"588 -2 OFFCURVE",
"601 5 OFFCURVE",
"601 15 CURVE SMOOTH",
"601 19 OFFCURVE",
"600 23 OFFCURVE",
"598 28 CURVE SMOOTH",
"361 686 LINE SMOOTH",
"358 697 OFFCURVE",
"344 702 OFFCURVE",
"321 702 CURVE SMOOTH",
"292 702 LINE SMOOTH",
"269 702 OFFCURVE",
"256 697 OFFCURVE",
"252 686 CURVE SMOOTH",
"15 29 LINE SMOOTH",
"13 23 OFFCURVE",
"12 19 OFFCURVE",
"12 15 CURVE SMOOTH",
"12 4 OFFCURVE",
"25 -2 OFFCURVE",
"55 -2 CURVE SMOOTH"
);
},
{
closed = 1;
nodes = (
"290 552 LINE SMOOTH",
"297 571 OFFCURVE",
"301 591 OFFCURVE",
"305 610 CURVE",
"307 610 LINE",
"310 591 OFFCURVE",
"313 570 OFFCURVE",
"319 552 CURVE SMOOTH",
"424 254 LINE",
"185 254 LINE"
);
},
{
closed = 1;
nodes = (
"337 -175 OFFCURVE",
"350 -168 OFFCURVE",
"350 -153 CURVE SMOOTH",
"350 -102 LINE SMOOTH",
"350 -87 OFFCURVE",
"337 -80 OFFCURVE",
"307 -80 CURVE SMOOTH",
"277 -80 OFFCURVE",
"264 -87 OFFCURVE",
"264 -102 CURVE SMOOTH",
"264 -153 LINE SMOOTH",
"264 -168 OFFCURVE",
"277 -175 OFFCURVE",
"307 -175 CURVE"
);
},
{
closed = 1;
nodes = (
"387 744 OFFCURVE",
"457 782 OFFCURVE",
"457 849 CURVE SMOOTH",
"457 869 OFFCURVE",
"452 874 OFFCURVE",
"439 874 CURVE SMOOTH",
"429 874 OFFCURVE",
"423 872 OFFCURVE",
"420 862 CURVE SMOOTH",
"412 837 OFFCURVE",
"388 810 OFFCURVE",
"307 810 CURVE SMOOTH",
"226 810 OFFCURVE",
"202 837 OFFCURVE",
"194 862 CURVE SMOOTH",
"191 872 OFFCURVE",
"185 874 OFFCURVE",
"175 874 CURVE SMOOTH",
"162 874 OFFCURVE",
"157 869 OFFCURVE",
"157 849 CURVE SMOOTH",
"157 782 OFFCURVE",
"227 744 OFFCURVE",
"307 744 CURVE SMOOTH"
);
}
);
width = 613;
},
{
anchors = (
{
name = bottom;
position = "{307, -185}";
},
{
name = ogonek;
position = "{590, 0}";
},
{
name = top;
position = "{307, 842}";
}
);
layerId = "2DCA4625-E4BE-49C6-A30F-EA66D600808E";
paths = (
{
closed = 1;
nodes = (
"101 -2 LINE SMOOTH",
"125 -2 OFFCURVE",
"142 4 OFFCURVE",
"147 19 CURVE SMOOTH",
"187 141 LINE",
"423 141 LINE",
"463 19 LINE SMOOTH",
"468 3 OFFCURVE",
"490 -2 OFFCURVE",
"519 -2 CURVE SMOOTH",
"563 -2 LINE SMOOTH",
"598 -2 OFFCURVE",
"613 6 OFFCURVE",
"613 20 CURVE SMOOTH",
"613 25 OFFCURVE",
"612 31 OFFCURVE",
"610 38 CURVE SMOOTH",
"390 681 LINE SMOOTH",
"385 695 OFFCURVE",
"367 702 OFFCURVE",
"333 702 CURVE SMOOTH",
"281 702 LINE SMOOTH",
"248 702 OFFCURVE",
"229 695 OFFCURVE",
"224 681 CURVE SMOOTH",
"4 38 LINE SMOOTH",
"2 31 OFFCURVE",
"0 25 OFFCURVE",
"0 20 CURVE SMOOTH",
"0 6 OFFCURVE",
"19 -2 OFFCURVE",
"61 -2 CURVE SMOOTH"
);
},
{
closed = 1;
nodes = (
"289 451 LINE SMOOTH",
"297 472 OFFCURVE",
"300 494 OFFCURVE",
"304 515 CURVE",
"308 515 LINE",
"312 494 OFFCURVE",
"316 472 OFFCURVE",
"323 451 CURVE SMOOTH",
"380 273 LINE",
"230 273 LINE"
);
},
{
closed = 1;
nodes = (
"350 -204 OFFCURVE",
"368 -193 OFFCURVE",
"368 -172 CURVE SMOOTH",
"368 -112 LINE SMOOTH",
"368 -91 OFFCURVE",
"350 -80 OFFCURVE",
"307 -80 CURVE SMOOTH",
"264 -80 OFFCURVE",
"246 -91 OFFCURVE",
"246 -112 CURVE SMOOTH",
"246 -172 LINE SMOOTH",
"246 -193 OFFCURVE",
"264 -204 OFFCURVE",
"307 -204 CURVE SMOOTH"
);
},
{
closed = 1;
nodes = (
"400 741 OFFCURVE",
"464 796 OFFCURVE",
"464 853 CURVE SMOOTH",
"464 871 OFFCURVE",
"451 881 OFFCURVE",
"429 881 CURVE SMOOTH",
"413 881 OFFCURVE",
"406 874 OFFCURVE",
"398 865 CURVE SMOOTH",
"386 851 OFFCURVE",
"368 832 OFFCURVE",
"307 832 CURVE SMOOTH",
"250 832 OFFCURVE",
"231 849 OFFCURVE",
"218 863 CURVE SMOOTH",
"209 873 OFFCURVE",
"202 881 OFFCURVE",
"185 881 CURVE SMOOTH",
"163 881 OFFCURVE",
"150 871 OFFCURVE",
"150 853 CURVE SMOOTH",
"150 796 OFFCURVE",
"214 741 OFFCURVE",
"307 741 CURVE SMOOTH"
);
}
);
width = 613;
}
);
leftKerningGroup = A;
rightKerningGroup = A;
unicode = 1EB6;
},
{
glyphname = Abrevegrave;
layers = (
{
anchors = (
{
name = bottom;
position = "{307, 0}";
},
{
name = ogonek;
position = "{576, 0}";
},
{
name = top;
position = "{307, 984}";
}
);
layerId = master01;
paths = (
{
closed = 1;
nodes = (
"60 -2 LINE SMOOTH",
"80 -2 OFFCURVE",
"96 2 OFFCURVE",
"100 14 CURVE SMOOTH",
"157 178 LINE",
"451 178 LINE",
"510 14 LINE SMOOTH",
"514 2 OFFCURVE",
"530 -2 OFFCURVE",
"550 -2 CURVE SMOOTH",
"558 -2 LINE SMOOTH",
"588 -2 OFFCURVE",
"601 5 OFFCURVE",
"601 15 CURVE SMOOTH",
"601 19 OFFCURVE",
"600 23 OFFCURVE",
"598 28 CURVE SMOOTH",
"361 686 LINE SMOOTH",
"358 697 OFFCURVE",
"344 702 OFFCURVE",
"321 702 CURVE SMOOTH",
"292 702 LINE SMOOTH",
"269 702 OFFCURVE",
"256 697 OFFCURVE",
"252 686 CURVE SMOOTH",
"15 29 LINE SMOOTH",
"13 23 OFFCURVE",
"12 19 OFFCURVE",
"12 15 CURVE SMOOTH",
"12 4 OFFCURVE",
"25 -2 OFFCURVE",
"55 -2 CURVE SMOOTH"
);
},
{
closed = 1;
nodes = (
"290 552 LINE SMOOTH",
"297 571 OFFCURVE",
"301 591 OFFCURVE",
"305 610 CURVE",
"307 610 LINE",
"310 591 OFFCURVE",
"313 570 OFFCURVE",
"319 552 CURVE SMOOTH",
"424 254 LINE",
"185 254 LINE"
);
},
{
closed = 1;
nodes = (
"387 744 OFFCURVE",
"457 782 OFFCURVE",
"457 849 CURVE SMOOTH",
"457 869 OFFCURVE",
"452 874 OFFCURVE",
"439 874 CURVE SMOOTH",
"429 874 OFFCURVE",
"423 872 OFFCURVE",
"420 862 CURVE SMOOTH",
"412 837 OFFCURVE",
"388 810 OFFCURVE",
"307 810 CURVE SMOOTH",
"226 810 OFFCURVE",
"202 837 OFFCURVE",
"194 862 CURVE SMOOTH",
"191 872 OFFCURVE",
"185 874 OFFCURVE",
"175 874 CURVE SMOOTH",
"162 874 OFFCURVE",
"157 869 OFFCURVE",
"157 849 CURVE SMOOTH",
"157 782 OFFCURVE",
"227 744 OFFCURVE",
"307 744 CURVE SMOOTH"
);
},
{
closed = 1;
nodes = (
"383 884 OFFCURVE",
"393 889 OFFCURVE",
"393 897 CURVE SMOOTH",
"393 902 OFFCURVE",
"390 908 OFFCURVE",
"382 916 CURVE SMOOTH",
"328 973 LINE SMOOTH",
"311 991 OFFCURVE",
"294 996 OFFCURVE",
"252 996 CURVE SMOOTH",
"221 996 OFFCURVE",
"199 990 OFFCURVE",
"199 978 CURVE SMOOTH",
"199 967 OFFCURVE",
"204 960 OFFCURVE",
"239 938 CURVE SMOOTH",
"293 905 LINE SMOOTH",
"321 888 OFFCURVE",
"334 884 OFFCURVE",
"367 884 CURVE SMOOTH"
);
}
);
width = 613;
},
{
anchors = (
{
name = bottom;
position = "{307, 0}";
},
{
name = ogonek;
position = "{590, 0}";
},
{
name = top;
position = "{307, 1004}";
}
);
layerId = "2DCA4625-E4BE-49C6-A30F-EA66D600808E";
paths = (
{
closed = 1;
nodes = (
"101 -2 LINE SMOOTH",
"125 -2 OFFCURVE",
"142 4 OFFCURVE",
"147 19 CURVE SMOOTH",
"187 141 LINE",
"423 141 LINE",
"463 19 LINE SMOOTH",
"468 3 OFFCURVE",
"490 -2 OFFCURVE",
"519 -2 CURVE SMOOTH",
"563 -2 LINE SMOOTH",
"598 -2 OFFCURVE",
"613 6 OFFCURVE",
"613 20 CURVE SMOOTH",
"613 25 OFFCURVE",
"612 31 OFFCURVE",
"610 38 CURVE SMOOTH",
"390 681 LINE SMOOTH",
"385 695 OFFCURVE",
"367 702 OFFCURVE",
"333 702 CURVE SMOOTH",
"281 702 LINE SMOOTH",
"248 702 OFFCURVE",
"229 695 OFFCURVE",
"224 681 CURVE SMOOTH",
"4 38 LINE SMOOTH",
"2 31 OFFCURVE",
"0 25 OFFCURVE",
"0 20 CURVE SMOOTH",
"0 6 OFFCURVE",
"19 -2 OFFCURVE",
"61 -2 CURVE SMOOTH"
);
},
{
closed = 1;
nodes = (
"289 451 LINE SMOOTH",
"297 472 OFFCURVE",
"300 494 OFFCURVE",
"304 515 CURVE",
"308 515 LINE",
"312 494 OFFCURVE",
"316 472 OFFCURVE",
"323 451 CURVE SMOOTH",
"380 273 LINE",
"230 273 LINE"
);
},
{
closed = 1;
nodes = (
"400 741 OFFCURVE",
"464 796 OFFCURVE",
"464 853 CURVE SMOOTH",
"464 871 OFFCURVE",
"451 881 OFFCURVE",
"429 881 CURVE SMOOTH",
"413 881 OFFCURVE",
"406 874 OFFCURVE",
"398 865 CURVE SMOOTH",
"386 851 OFFCURVE",
"368 832 OFFCURVE",
"307 832 CURVE SMOOTH",
"250 832 OFFCURVE",
"231 849 OFFCURVE",
"218 863 CURVE SMOOTH",
"209 873 OFFCURVE",
"202 881 OFFCURVE",
"185 881 CURVE SMOOTH",
"163 881 OFFCURVE",
"150 871 OFFCURVE",
"150 853 CURVE SMOOTH",
"150 796 OFFCURVE",
"214 741 OFFCURVE",
"307 741 CURVE SMOOTH"
);
},
{
closed = 1;
nodes = (
"386 891 OFFCURVE",
"398 895 OFFCURVE",
"398 904 CURVE SMOOTH",
"398 909 OFFCURVE",
"395 916 OFFCURVE",
"385 927 CURVE SMOOTH",
"331 987 LINE SMOOTH",
"310 1010 OFFCURVE",
"291 1017 OFFCURVE",
"245 1017 CURVE SMOOTH",
"198 1017 OFFCURVE",
"174 1014 OFFCURVE",
"174 999 CURVE SMOOTH",
"174 991 OFFCURVE",
"182 981 OFFCURVE",
"204 967 CURVE SMOOTH",
"290 910 LINE SMOOTH",
"312 896 OFFCURVE",
"326 891 OFFCURVE",
"360 891 CURVE SMOOTH"
);
}
);
width = 613;
}
);
leftKerningGroup = A;
rightKerningGroup = A;
unicode = 1EB0;
},
{
glyphname = Abrevehookabove;
layers = (
{
anchors = (
{
name = bottom;
position = "{307, 0}";
},
{
name = ogonek;
position = "{576, 0}";
},
{
name = top;
position = "{307, 1029}";
}
);
layerId = master01;
paths = (
{
closed = 1;
nodes = (
"60 -2 LINE SMOOTH",
"80 -2 OFFCURVE",
"96 2 OFFCURVE",
"100 14 CURVE SMOOTH",
"157 178 LINE",
"451 178 LINE",
"510 14 LINE SMOOTH",
"514 2 OFFCURVE",
"530 -2 OFFCURVE",
"550 -2 CURVE SMOOTH",
"558 -2 LINE SMOOTH",
"588 -2 OFFCURVE",
"601 5 OFFCURVE",
"601 15 CURVE SMOOTH",
"601 19 OFFCURVE",
"600 23 OFFCURVE",
"598 28 CURVE SMOOTH",
"361 686 LINE SMOOTH",
"358 697 OFFCURVE",
"344 702 OFFCURVE",
"321 702 CURVE SMOOTH",
"292 702 LINE SMOOTH",
"269 702 OFFCURVE",
"256 697 OFFCURVE",
"252 686 CURVE SMOOTH",
"15 29 LINE SMOOTH",
"13 23 OFFCURVE",
"12 19 OFFCURVE",
"12 15 CURVE SMOOTH",
"12 4 OFFCURVE",
"25 -2 OFFCURVE",
"55 -2 CURVE SMOOTH"
);
},
{
closed = 1;
nodes = (
"290 552 LINE SMOOTH",
"297 571 OFFCURVE",
"301 591 OFFCURVE",
"305 610 CURVE",
"307 610 LINE",
"310 591 OFFCURVE",
"313 570 OFFCURVE",
"319 552 CURVE SMOOTH",
"424 254 LINE",
"185 254 LINE"
);
},
{
closed = 1;
nodes = (
"387 744 OFFCURVE",
"457 782 OFFCURVE",
"457 849 CURVE SMOOTH",
"457 869 OFFCURVE",
"452 874 OFFCURVE",
"439 874 CURVE SMOOTH",
"429 874 OFFCURVE",
"423 872 OFFCURVE",
"420 862 CURVE SMOOTH",
"412 837 OFFCURVE",
"388 810 OFFCURVE",
"307 810 CURVE SMOOTH",
"226 810 OFFCURVE",
"202 837 OFFCURVE",
"194 862 CURVE SMOOTH",
"191 872 OFFCURVE",
"185 874 OFFCURVE",
"175 874 CURVE SMOOTH",
"162 874 OFFCURVE",
"157 869 OFFCURVE",
"157 849 CURVE SMOOTH",
"157 782 OFFCURVE",
"227 744 OFFCURVE",
"307 744 CURVE SMOOTH"
);
},
{
closed = 1;
nodes = (
"313 870 OFFCURVE",
"407 903 OFFCURVE",
"407 966 CURVE SMOOTH",
"407 1006 OFFCURVE",
"366 1037 OFFCURVE",
"304 1037 CURVE SMOOTH",
"263 1037 OFFCURVE",
"206 1019 OFFCURVE",
"206 1006 CURVE SMOOTH",
"206 992 OFFCURVE",
"220 973 OFFCURVE",
"233 973 CURVE SMOOTH",
"248 973 OFFCURVE",
"267 986 OFFCURVE",
"302 986 CURVE SMOOTH",
"324 986 OFFCURVE",
"343 977 OFFCURVE",
"343 959 CURVE SMOOTH",
"343 928 OFFCURVE",
"255 915 OFFCURVE",
"255 903 CURVE SMOOTH",
"255 894 OFFCURVE",
"275 870 OFFCURVE",
"292 870 CURVE SMOOTH"
);
}
);
width = 613;
},
{
anchors = (
{
name = bottom;
position = "{307, 0}";
},
{
name = ogonek;
position = "{590, 0}";
},
{
name = top;
position = "{307, 1039}";
}
);
layerId = "2DCA4625-E4BE-49C6-A30F-EA66D600808E";
paths = (
{
closed = 1;
nodes = (
"101 -2 LINE SMOOTH",
"125 -2 OFFCURVE",
"142 4 OFFCURVE",
"147 19 CURVE SMOOTH",
"187 141 LINE",
"423 141 LINE",
"463 19 LINE SMOOTH",
"468 3 OFFCURVE",
"490 -2 OFFCURVE",
"519 -2 CURVE SMOOTH",
"563 -2 LINE SMOOTH",
"598 -2 OFFCURVE",
"613 6 OFFCURVE",
"613 20 CURVE SMOOTH",
"613 25 OFFCURVE",
"612 31 OFFCURVE",
"610 38 CURVE SMOOTH",
"390 681 LINE SMOOTH",
"385 695 OFFCURVE",
"367 702 OFFCURVE",
"333 702 CURVE SMOOTH",
"281 702 LINE SMOOTH",
"248 702 OFFCURVE",
"229 695 OFFCURVE",
"224 681 CURVE SMOOTH",
"4 38 LINE SMOOTH",
"2 31 OFFCURVE",
"0 25 OFFCURVE",
"0 20 CURVE SMOOTH",
"0 6 OFFCURVE",
"19 -2 OFFCURVE",
"61 -2 CURVE SMOOTH"
);
},
{
closed = 1;
nodes = (
"289 451 LINE SMOOTH",
"297 472 OFFCURVE",
"300 494 OFFCURVE",
"304 515 CURVE",
"308 515 LINE",
"312 494 OFFCURVE",
"316 472 OFFCURVE",
"323 451 CURVE SMOOTH",
"380 273 LINE",
"230 273 LINE"
);
},
{
closed = 1;
nodes = (
"400 741 OFFCURVE",
"464 796 OFFCURVE",
"464 853 CURVE SMOOTH",
"464 871 OFFCURVE",
"451 881 OFFCURVE",
"429 881 CURVE SMOOTH",
"413 881 OFFCURVE",
"406 874 OFFCURVE",
"398 865 CURVE SMOOTH",
"386 851 OFFCURVE",
"368 832 OFFCURVE",
"307 832 CURVE SMOOTH",
"250 832 OFFCURVE",
"231 849 OFFCURVE",
"218 863 CURVE SMOOTH",
"209 873 OFFCURVE",
"202 881 OFFCURVE",
"185 881 CURVE SMOOTH",
"163 881 OFFCURVE",
"150 871 OFFCURVE",
"150 853 CURVE SMOOTH",
"150 796 OFFCURVE",
"214 741 OFFCURVE",
"307 741 CURVE SMOOTH"
);
},
{
closed = 1;
nodes = (
"322 879 OFFCURVE",
"412 916 OFFCURVE",
"412 976 CURVE SMOOTH",
"412 1024 OFFCURVE",
"369 1055 OFFCURVE",
"300 1055 CURVE SMOOTH",
"251 1055 OFFCURVE",
"201 1037 OFFCURVE",
"201 1024 CURVE SMOOTH",
"201 1004 OFFCURVE",
"219 982 OFFCURVE",
"232 982 CURVE SMOOTH",
"247 982 OFFCURVE",
"270 992 OFFCURVE",
"297 992 CURVE SMOOTH",
"314 992 OFFCURVE",
"329 987 OFFCURVE",
"329 972 CURVE SMOOTH",
"329 932 OFFCURVE",
"251 924 OFFCURVE",
"251 909 CURVE SMOOTH",
"251 896 OFFCURVE",
"279 879 OFFCURVE",
"299 879 CURVE SMOOTH"
);
}
);
width = 613;
}
);
leftKerningGroup = A;
rightKerningGroup = A;
unicode = 1EB2;
},
{
glyphname = Abrevetilde;
layers = (
{
anchors = (
{
name = bottom;
position = "{307, 0}";
},
{
name = ogonek;
position = "{576, 0}";
},
{
name = top;
position = "{307, 969}";
}
);
layerId = master01;
paths = (
{
closed = 1;
nodes = (
"60 -2 LINE SMOOTH",
"80 -2 OFFCURVE",
"96 2 OFFCURVE",
"100 14 CURVE SMOOTH",
"157 178 LINE",
"451 178 LINE",
"510 14 LINE SMOOTH",
"514 2 OFFCURVE",
"530 -2 OFFCURVE",
"550 -2 CURVE SMOOTH",
"558 -2 LINE SMOOTH",
"588 -2 OFFCURVE",
"601 5 OFFCURVE",
"601 15 CURVE SMOOTH",
"601 19 OFFCURVE",
"600 23 OFFCURVE",
"598 28 CURVE SMOOTH",
"361 686 LINE SMOOTH",
"358 697 OFFCURVE",
"344 702 OFFCURVE",
"321 702 CURVE SMOOTH",
"292 702 LINE SMOOTH",
"269 702 OFFCURVE",
"256 697 OFFCURVE",
"252 686 CURVE SMOOTH",
"15 29 LINE SMOOTH",
"13 23 OFFCURVE",
"12 19 OFFCURVE",
"12 15 CURVE SMOOTH",
"12 4 OFFCURVE",
"25 -2 OFFCURVE",
"55 -2 CURVE SMOOTH"
);
},
{
closed = 1;
nodes = (
"290 552 LINE SMOOTH",
"297 571 OFFCURVE",
"301 591 OFFCURVE",
"305 610 CURVE",
"307 610 LINE",
"310 591 OFFCURVE",
"313 570 OFFCURVE",
"319 552 CURVE SMOOTH",
"424 254 LINE",
"185 254 LINE"
);
},
{
closed = 1;
nodes = (
"387 744 OFFCURVE",
"457 782 OFFCURVE",
"457 849 CURVE SMOOTH",
"457 869 OFFCURVE",
"452 874 OFFCURVE",
"439 874 CURVE SMOOTH",
"429 874 OFFCURVE",
"423 872 OFFCURVE",
"420 862 CURVE SMOOTH",
"412 837 OFFCURVE",
"388 810 OFFCURVE",
"307 810 CURVE SMOOTH",
"226 810 OFFCURVE",
"202 837 OFFCURVE",
"194 862 CURVE SMOOTH",
"191 872 OFFCURVE",
"185 874 OFFCURVE",
"175 874 CURVE SMOOTH",
"162 874 OFFCURVE",
"157 869 OFFCURVE",
"157 849 CURVE SMOOTH",
"157 782 OFFCURVE",
"227 744 OFFCURVE",
"307 744 CURVE SMOOTH"
);
},
{
closed = 1;
nodes = (
"174 888 OFFCURVE",
"182 931 OFFCURVE",
"225 931 CURVE SMOOTH",
"268 931 OFFCURVE",
"326 888 OFFCURVE",
"387 888 CURVE SMOOTH",
"429 888 OFFCURVE",
"461 911 OFFCURVE",
"484 957 CURVE SMOOTH",
"487 963 OFFCURVE",
"488 967 OFFCURVE",
"488 970 CURVE SMOOTH",
"488 982 OFFCURVE",
"469 993 OFFCURVE",
"458 993 CURVE SMOOTH",
"441 993 OFFCURVE",
"428 950 OFFCURVE",
"385 950 CURVE SMOOTH",
"342 950 OFFCURVE",
"284 993 OFFCURVE",
"226 993 CURVE SMOOTH",
"183 993 OFFCURVE",
"146 967 OFFCURVE",
"128 922 CURVE SMOOTH",
"126 917 OFFCURVE",
"125 913 OFFCURVE",
"125 909 CURVE SMOOTH",
"125 897 OFFCURVE",
"145 888 OFFCURVE",
"156 888 CURVE SMOOTH"
);
}
);
width = 613;
},
{
anchors = (
{
name = bottom;
position = "{307, 0}";
},
{
name = ogonek;
position = "{590, 0}";
},
{
name = top;
position = "{307, 989}";
}
);
layerId = "2DCA4625-E4BE-49C6-A30F-EA66D600808E";
paths = (
{
closed = 1;
nodes = (
"101 -2 LINE SMOOTH",
"125 -2 OFFCURVE",
"142 4 OFFCURVE",
"147 19 CURVE SMOOTH",
"187 141 LINE",
"423 141 LINE",
"463 19 LINE SMOOTH",
"468 3 OFFCURVE",
"490 -2 OFFCURVE",
"519 -2 CURVE SMOOTH",
"563 -2 LINE SMOOTH",
"598 -2 OFFCURVE",
"613 6 OFFCURVE",
"613 20 CURVE SMOOTH",
"613 25 OFFCURVE",
"612 31 OFFCURVE",
"610 38 CURVE SMOOTH",
"390 681 LINE SMOOTH",
"385 695 OFFCURVE",
"367 702 OFFCURVE",
"333 702 CURVE SMOOTH",
"281 702 LINE SMOOTH",
"248 702 OFFCURVE",
"229 695 OFFCURVE",
"224 681 CURVE SMOOTH",
"4 38 LINE SMOOTH",
"2 31 OFFCURVE",
"0 25 OFFCURVE",
"0 20 CURVE SMOOTH",
"0 6 OFFCURVE",
"19 -2 OFFCURVE",
"61 -2 CURVE SMOOTH"
);
},
{
closed = 1;
nodes = (
"289 451 LINE SMOOTH",
"297 472 OFFCURVE",
"300 494 OFFCURVE",
"304 515 CURVE",
"308 515 LINE",
"312 494 OFFCURVE",
"316 472 OFFCURVE",
"323 451 CURVE SMOOTH",
"380 273 LINE",
"230 273 LINE"
);
},
{
closed = 1;
nodes = (
"400 741 OFFCURVE",
"464 796 OFFCURVE",
"464 853 CURVE SMOOTH",
"464 871 OFFCURVE",
"451 881 OFFCURVE",
"429 881 CURVE SMOOTH",
"413 881 OFFCURVE",
"406 874 OFFCURVE",
"398 865 CURVE SMOOTH",
"386 851 OFFCURVE",
"368 832 OFFCURVE",
"307 832 CURVE SMOOTH",
"250 832 OFFCURVE",
"231 849 OFFCURVE",
"218 863 CURVE SMOOTH",
"209 873 OFFCURVE",
"202 881 OFFCURVE",
"185 881 CURVE SMOOTH",
"163 881 OFFCURVE",
"150 871 OFFCURVE",
"150 853 CURVE SMOOTH",
"150 796 OFFCURVE",
"214 741 OFFCURVE",
"307 741 CURVE SMOOTH"
);
},
{
closed = 1;
nodes = (
"187 892 OFFCURVE",
"197 924 OFFCURVE",
"231 924 CURVE SMOOTH",
"267 924 OFFCURVE",
"330 895 OFFCURVE",
"375 895 CURVE SMOOTH",
"432 895 OFFCURVE",
"465 933 OFFCURVE",
"479 959 CURVE SMOOTH",
"484 968 OFFCURVE",
"487 977 OFFCURVE",
"487 982 CURVE SMOOTH",
"487 996 OFFCURVE",
"459 1015 OFFCURVE",
"444 1015 CURVE SMOOTH",
"426 1015 OFFCURVE",
"412 984 OFFCURVE",
"379 984 CURVE SMOOTH",
"346 984 OFFCURVE",
"282 1013 OFFCURVE",
"238 1013 CURVE SMOOTH",
"181 1013 OFFCURVE",
"150 979 OFFCURVE",
"135 947 CURVE SMOOTH",
"131 939 OFFCURVE",
"127 929 OFFCURVE",
"127 920 CURVE SMOOTH",
"127 906 OFFCURVE",
"158 892 OFFCURVE",
"170 892 CURVE SMOOTH"
);
}
);
width = 613;
}
);
leftKerningGroup = A;
rightKerningGroup = A;
unicode = 1EB4;
},
{
glyphname = Acaron;
layers = (
{
anchors = (
{
name = bottom;
position = "{307, 0}";
},
{
name = ogonek;
position = "{576, 0}";
},
{
name = top;
position = "{307, 842}";
}
);
layerId = master01;
paths = (
{
closed = 1;
nodes = (
"60 -2 LINE SMOOTH",
"80 -2 OFFCURVE",
"96 2 OFFCURVE",
"100 14 CURVE SMOOTH",
"157 178 LINE",
"451 178 LINE",
"510 14 LINE SMOOTH",
"514 2 OFFCURVE",
"530 -2 OFFCURVE",
"550 -2 CURVE SMOOTH",
"558 -2 LINE SMOOTH",
"588 -2 OFFCURVE",
"601 5 OFFCURVE",
"601 15 CURVE SMOOTH",
"601 19 OFFCURVE",
"600 23 OFFCURVE",
"598 28 CURVE SMOOTH",
"361 686 LINE SMOOTH",
"358 697 OFFCURVE",
"344 702 OFFCURVE",
"321 702 CURVE SMOOTH",
"292 702 LINE SMOOTH",
"269 702 OFFCURVE",
"256 697 OFFCURVE",
"252 686 CURVE SMOOTH",
"15 29 LINE SMOOTH",
"13 23 OFFCURVE",
"12 19 OFFCURVE",
"12 15 CURVE SMOOTH",
"12 4 OFFCURVE",
"25 -2 OFFCURVE",
"55 -2 CURVE SMOOTH"
);
},
{
closed = 1;
nodes = (
"290 552 LINE SMOOTH",
"297 571 OFFCURVE",
"301 591 OFFCURVE",
"305 610 CURVE",
"307 610 LINE",
"310 591 OFFCURVE",
"313 570 OFFCURVE",
"319 552 CURVE SMOOTH",
"424 254 LINE",
"185 254 LINE"
);
},
{
closed = 1;
nodes = (
"320 752 LINE SMOOTH",
"352 752 OFFCURVE",
"364 755 OFFCURVE",
"380 775 CURVE SMOOTH",
"421 827 LINE SMOOTH",
"436 845 OFFCURVE",
"437 848 OFFCURVE",
"437 853 CURVE SMOOTH",
"437 859 OFFCURVE",
"432 864 OFFCURVE",
"415 864 CURVE SMOOTH",
"393 864 OFFCURVE",
"384 862 OFFCURVE",
"372 853 CURVE SMOOTH",
"307 807 LINE",
"245 851 LINE SMOOTH",
"231 861 OFFCURVE",
"221 864 OFFCURVE",
"199 864 CURVE SMOOTH",
"182 864 OFFCURVE",
"177 859 OFFCURVE",
"177 853 CURVE SMOOTH",
"177 848 OFFCURVE",
"178 845 OFFCURVE",
"191 829 CURVE SMOOTH",
"234 775 LINE SMOOTH",
"250 754 OFFCURVE",
"262 752 OFFCURVE",
"294 752 CURVE SMOOTH"
);
}
);
width = 613;
},
{
anchors = (
{
name = bottom;
position = "{307, 0}";
},
{
name = ogonek;
position = "{590, 0}";
},
{
name = top;
position = "{307, 877}";
}
);
layerId = "2DCA4625-E4BE-49C6-A30F-EA66D600808E";
paths = (
{
closed = 1;
nodes = (
"101 -2 LINE SMOOTH",
"125 -2 OFFCURVE",
"142 4 OFFCURVE",
"147 19 CURVE SMOOTH",
"187 141 LINE",
"423 141 LINE",
"463 19 LINE SMOOTH",
"468 3 OFFCURVE",
"490 -2 OFFCURVE",
"519 -2 CURVE SMOOTH",
"563 -2 LINE SMOOTH",
"598 -2 OFFCURVE",
"613 6 OFFCURVE",
"613 20 CURVE SMOOTH",
"613 25 OFFCURVE",
"612 31 OFFCURVE",
"610 38 CURVE SMOOTH",
"390 681 LINE SMOOTH",
"385 695 OFFCURVE",
"367 702 OFFCURVE",
"333 702 CURVE SMOOTH",
"281 702 LINE SMOOTH",
"248 702 OFFCURVE",
"229 695 OFFCURVE",
"224 681 CURVE SMOOTH",
"4 38 LINE SMOOTH",
"2 31 OFFCURVE",
"0 25 OFFCURVE",
"0 20 CURVE SMOOTH",
"0 6 OFFCURVE",
"19 -2 OFFCURVE",
"61 -2 CURVE SMOOTH"
);
},
{
closed = 1;
nodes = (
"289 451 LINE SMOOTH",
"297 472 OFFCURVE",
"300 494 OFFCURVE",
"304 515 CURVE",
"308 515 LINE",
"312 494 OFFCURVE",
"316 472 OFFCURVE",
"323 451 CURVE SMOOTH",
"380 273 LINE",
"230 273 LINE"
);
},
{
closed = 1;
nodes = (
"321 749 LINE SMOOTH",
"365 749 OFFCURVE",
"379 755 OFFCURVE",
"397 778 CURVE SMOOTH",
"445 842 LINE SMOOTH",
"451 850 OFFCURVE",
"454 856 OFFCURVE",
"454 861 CURVE SMOOTH",
"454 871 OFFCURVE",
"443 875 OFFCURVE",
"409 875 CURVE SMOOTH",
"382 875 OFFCURVE",
"364 872 OFFCURVE",
"346 858 CURVE SMOOTH",
"307 826 LINE",
"268 858 LINE SMOOTH",
"250 872 OFFCURVE",
"232 875 OFFCURVE",
"205 875 CURVE SMOOTH",
"171 875 OFFCURVE",
"160 871 OFFCURVE",
"160 861 CURVE SMOOTH",
"160 856 OFFCURVE",
"163 850 OFFCURVE",
"169 842 CURVE SMOOTH",
"217 778 LINE SMOOTH",
"235 755 OFFCURVE",
"249 749 OFFCURVE",
"293 749 CURVE SMOOTH"
);
}
);
width = 613;
}
);
leftKerningGroup = A;
rightKerningGroup = A;
unicode = 01CD;
},
{
glyphname = Acircumflex;
layers = (
{
anchors = (
{
name = bottom;
position = "{307, 0}";
},
{
name = ogonek;
position = "{576, 0}";
},
{
name = top;
position = "{307, 837}";
}
);
layerId = master01;
paths = (
{
closed = 1;
nodes = (
"60 -2 LINE SMOOTH",
"80 -2 OFFCURVE",
"96 2 OFFCURVE",
"100 14 CURVE SMOOTH",
"157 178 LINE",
"451 178 LINE",
"510 14 LINE SMOOTH",
"514 2 OFFCURVE",
"530 -2 OFFCURVE",
"550 -2 CURVE SMOOTH",
"558 -2 LINE SMOOTH",
"588 -2 OFFCURVE",
"601 5 OFFCURVE",
"601 15 CURVE SMOOTH",
"601 19 OFFCURVE",
"600 23 OFFCURVE",
"598 28 CURVE SMOOTH",
"361 686 LINE SMOOTH",
"358 697 OFFCURVE",
"344 702 OFFCURVE",
"321 702 CURVE SMOOTH",
"292 702 LINE SMOOTH",
"269 702 OFFCURVE",
"256 697 OFFCURVE",
"252 686 CURVE SMOOTH",
"15 29 LINE SMOOTH",
"13 23 OFFCURVE",
"12 19 OFFCURVE",
"12 15 CURVE SMOOTH",
"12 4 OFFCURVE",
"25 -2 OFFCURVE",
"55 -2 CURVE SMOOTH"
);
},
{
closed = 1;
nodes = (
"290 552 LINE SMOOTH",
"297 571 OFFCURVE",
"301 591 OFFCURVE",
"305 610 CURVE",
"307 610 LINE",
"310 591 OFFCURVE",
"313 570 OFFCURVE",
"319 552 CURVE SMOOTH",
"424 254 LINE",
"185 254 LINE"
);
},
{
closed = 1;
nodes = (
"211 742 OFFCURVE",
"228 747 OFFCURVE",
"243 757 CURVE SMOOTH",
"307 799 LINE",
"374 755 LINE SMOOTH",
"386 747 OFFCURVE",
"402 742 OFFCURVE",
"415 742 CURVE SMOOTH",
"432 742 OFFCURVE",
"437 747 OFFCURVE",
"437 753 CURVE SMOOTH",
"437 758 OFFCURVE",
"437 762 OFFCURVE",
"421 779 CURVE SMOOTH",
"371 832 LINE SMOOTH",
"353 851 OFFCURVE",
"348 854 OFFCURVE",
"317 854 CURVE SMOOTH",
"297 854 LINE SMOOTH",
"268 854 OFFCURVE",
"258 848 OFFCURVE",
"243 832 CURVE SMOOTH",
"191 777 LINE SMOOTH",
"177 762 OFFCURVE",
"177 758 OFFCURVE",
"177 753 CURVE SMOOTH",
"177 747 OFFCURVE",
"182 742 OFFCURVE",
"199 742 CURVE SMOOTH"
);
}
);
width = 613;
},
{
anchors = (
{
name = bottom;
position = "{307, 0}";
},
{
name = ogonek;
position = "{590, 0}";
},
{
name = top;
position = "{307, 842}";
}
);
layerId = "2DCA4625-E4BE-49C6-A30F-EA66D600808E";
paths = (
{
closed = 1;
nodes = (
"101 -2 LINE SMOOTH",
"125 -2 OFFCURVE",
"142 4 OFFCURVE",
"147 19 CURVE SMOOTH",
"187 141 LINE",
"423 141 LINE",
"463 19 LINE SMOOTH",
"468 3 OFFCURVE",
"490 -2 OFFCURVE",
"519 -2 CURVE SMOOTH",
"563 -2 LINE SMOOTH",
"598 -2 OFFCURVE",
"613 6 OFFCURVE",
"613 20 CURVE SMOOTH",
"613 25 OFFCURVE",
"612 31 OFFCURVE",
"610 38 CURVE SMOOTH",
"390 681 LINE SMOOTH",
"385 695 OFFCURVE",
"367 702 OFFCURVE",
"333 702 CURVE SMOOTH",
"281 702 LINE SMOOTH",
"248 702 OFFCURVE",
"229 695 OFFCURVE",
"224 681 CURVE SMOOTH",
"4 38 LINE SMOOTH",
"2 31 OFFCURVE",
"0 25 OFFCURVE",
"0 20 CURVE SMOOTH",
"0 6 OFFCURVE",
"19 -2 OFFCURVE",
"61 -2 CURVE SMOOTH"
);
},
{
closed = 1;
nodes = (
"289 451 LINE SMOOTH",
"297 472 OFFCURVE",
"300 494 OFFCURVE",
"304 515 CURVE",
"308 515 LINE",
"312 494 OFFCURVE",
"316 472 OFFCURVE",
"323 451 CURVE SMOOTH",
"380 273 LINE",
"230 273 LINE"
);
},
{
closed = 1;
nodes = (
"222 734 OFFCURVE",
"239 741 OFFCURVE",
"257 751 CURVE SMOOTH",
"306 779 LINE",
"355 751 LINE SMOOTH",
"374 740 OFFCURVE",
"391 734 OFFCURVE",
"413 734 CURVE SMOOTH",
"447 734 OFFCURVE",
"453 737 OFFCURVE",
"453 744 CURVE SMOOTH",
"453 748 OFFCURVE",
"451 753 OFFCURVE",
"432 774 CURVE SMOOTH",
"377 836 LINE SMOOTH",
"360 855 OFFCURVE",
"347 860 OFFCURVE",
"316 860 CURVE SMOOTH",
"296 860 LINE SMOOTH",
"265 860 OFFCURVE",
"252 855 OFFCURVE",
"236 837 CURVE SMOOTH",
"180 774 LINE SMOOTH",
"161 753 OFFCURVE",
"159 748 OFFCURVE",
"159 744 CURVE SMOOTH",
"159 737 OFFCURVE",
"165 734 OFFCURVE",
"199 734 CURVE SMOOTH"
);
}
);
width = 613;
}
);
leftKerningGroup = A;
rightKerningGroup = A;
unicode = 00C2;
},
{
glyphname = Acircumflexacute;
layers = (
{
anchors = (
{
name = bottom;
position = "{307, 0}";
},
{
name = ogonek;
position = "{576, 0}";
},
{
name = top;
position = "{307, 989}";
}
);
layerId = master01;
paths = (
{
closed = 1;
nodes = (
"60 -2 LINE SMOOTH",
"80 -2 OFFCURVE",
"96 2 OFFCURVE",
"100 14 CURVE SMOOTH",
"157 178 LINE",
"451 178 LINE",
"510 14 LINE SMOOTH",
"514 2 OFFCURVE",
"530 -2 OFFCURVE",
"550 -2 CURVE SMOOTH",
"558 -2 LINE SMOOTH",
"588 -2 OFFCURVE",
"601 5 OFFCURVE",
"601 15 CURVE SMOOTH",
"601 19 OFFCURVE",
"600 23 OFFCURVE",
"598 28 CURVE SMOOTH",
"361 686 LINE SMOOTH",
"358 697 OFFCURVE",
"344 702 OFFCURVE",
"321 702 CURVE SMOOTH",
"292 702 LINE SMOOTH",
"269 702 OFFCURVE",
"256 697 OFFCURVE",
"252 686 CURVE SMOOTH",
"15 29 LINE SMOOTH",
"13 23 OFFCURVE",
"12 19 OFFCURVE",
"12 15 CURVE SMOOTH",
"12 4 OFFCURVE",
"25 -2 OFFCURVE",
"55 -2 CURVE SMOOTH"
);
},
{
closed = 1;
nodes = (
"290 552 LINE SMOOTH",
"297 571 OFFCURVE",
"301 591 OFFCURVE",
"305 610 CURVE",
"307 610 LINE",
"310 591 OFFCURVE",
"313 570 OFFCURVE",
"319 552 CURVE SMOOTH",
"424 254 LINE",
"185 254 LINE"
);
},
{
closed = 1;
nodes = (
"211 742 OFFCURVE",
"228 747 OFFCURVE",
"243 757 CURVE SMOOTH",
"307 799 LINE",
"374 755 LINE SMOOTH",
"386 747 OFFCURVE",
"402 742 OFFCURVE",
"415 742 CURVE SMOOTH",
"432 742 OFFCURVE",
"437 747 OFFCURVE",
"437 753 CURVE SMOOTH",
"437 758 OFFCURVE",
"437 762 OFFCURVE",
"421 779 CURVE SMOOTH",
"371 832 LINE SMOOTH",
"353 851 OFFCURVE",
"348 854 OFFCURVE",
"317 854 CURVE SMOOTH",
"297 854 LINE SMOOTH",
"268 854 OFFCURVE",
"258 848 OFFCURVE",
"243 832 CURVE SMOOTH",
"191 777 LINE SMOOTH",
"177 762 OFFCURVE",
"177 758 OFFCURVE",
"177 753 CURVE SMOOTH",
"177 747 OFFCURVE",
"182 742 OFFCURVE",
"199 742 CURVE SMOOTH"
);
},
{
closed = 1;
nodes = (
"280 889 OFFCURVE",
"293 893 OFFCURVE",
"321 910 CURVE SMOOTH",
"375 943 LINE SMOOTH",
"410 965 OFFCURVE",
"415 972 OFFCURVE",
"415 983 CURVE SMOOTH",
"415 995 OFFCURVE",
"393 1001 OFFCURVE",
"362 1001 CURVE SMOOTH",
"320 1001 OFFCURVE",
"303 996 OFFCURVE",
"286 978 CURVE SMOOTH",
"232 921 LINE SMOOTH",
"224 913 OFFCURVE",
"221 907 OFFCURVE",
"221 902 CURVE SMOOTH",
"221 894 OFFCURVE",
"231 889 OFFCURVE",
"247 889 CURVE SMOOTH"
);
}
);
width = 613;
},
{
anchors = (
{
name = bottom;
position = "{307, 0}";
},
{
name = ogonek;
position = "{590, 0}";
},
{
name = top;
position = "{307, 1004}";
}
);
layerId = "2DCA4625-E4BE-49C6-A30F-EA66D600808E";
paths = (
{
closed = 1;
nodes = (
"101 -2 LINE SMOOTH",
"125 -2 OFFCURVE",
"142 4 OFFCURVE",
"147 19 CURVE SMOOTH",
"187 141 LINE",
"423 141 LINE",
"463 19 LINE SMOOTH",
"468 3 OFFCURVE",
"490 -2 OFFCURVE",
"519 -2 CURVE SMOOTH",
"563 -2 LINE SMOOTH",
"598 -2 OFFCURVE",
"613 6 OFFCURVE",
"613 20 CURVE SMOOTH",
"613 25 OFFCURVE",
"612 31 OFFCURVE",
"610 38 CURVE SMOOTH",
"390 681 LINE SMOOTH",
"385 695 OFFCURVE",
"367 702 OFFCURVE",
"333 702 CURVE SMOOTH",
"281 702 LINE SMOOTH",
"248 702 OFFCURVE",
"229 695 OFFCURVE",
"224 681 CURVE SMOOTH",
"4 38 LINE SMOOTH",
"2 31 OFFCURVE",
"0 25 OFFCURVE",
"0 20 CURVE SMOOTH",
"0 6 OFFCURVE",
"19 -2 OFFCURVE",
"61 -2 CURVE SMOOTH"
);
},
{
closed = 1;
nodes = (
"289 451 LINE SMOOTH",
"297 472 OFFCURVE",
"300 494 OFFCURVE",
"304 515 CURVE",
"308 515 LINE",
"312 494 OFFCURVE",
"316 472 OFFCURVE",
"323 451 CURVE SMOOTH",
"380 273 LINE",
"230 273 LINE"
);
},
{
closed = 1;
nodes = (
"222 734 OFFCURVE",
"239 741 OFFCURVE",
"257 751 CURVE SMOOTH",
"306 779 LINE",
"355 751 LINE SMOOTH",
"374 740 OFFCURVE",
"391 734 OFFCURVE",
"413 734 CURVE SMOOTH",
"447 734 OFFCURVE",
"453 737 OFFCURVE",
"453 744 CURVE SMOOTH",
"453 748 OFFCURVE",
"451 753 OFFCURVE",
"432 774 CURVE SMOOTH",
"377 836 LINE SMOOTH",
"360 855 OFFCURVE",
"347 860 OFFCURVE",
"316 860 CURVE SMOOTH",
"296 860 LINE SMOOTH",
"265 860 OFFCURVE",
"252 855 OFFCURVE",
"236 837 CURVE SMOOTH",
"180 774 LINE SMOOTH",
"161 753 OFFCURVE",
"159 748 OFFCURVE",
"159 744 CURVE SMOOTH",
"159 737 OFFCURVE",
"165 734 OFFCURVE",
"199 734 CURVE SMOOTH"
);
},
{
closed = 1;
nodes = (
"287 891 OFFCURVE",
"302 895 OFFCURVE",
"323 910 CURVE SMOOTH",
"409 966 LINE SMOOTH",
"430 980 OFFCURVE",
"439 991 OFFCURVE",
"439 999 CURVE SMOOTH",
"439 1014 OFFCURVE",
"415 1017 OFFCURVE",
"368 1017 CURVE SMOOTH",
"322 1017 OFFCURVE",
"303 1010 OFFCURVE",
"282 987 CURVE SMOOTH",
"228 927 LINE SMOOTH",
"218 916 OFFCURVE",
"215 909 OFFCURVE",
"215 904 CURVE SMOOTH",
"215 895 OFFCURVE",
"227 891 OFFCURVE",
"253 891 CURVE SMOOTH"
);
}
);
width = 613;
}
);
leftKerningGroup = A;
rightKerningGroup = A;
unicode = 1EA4;
},
{
glyphname = Acircumflexdotbelow;
layers = (
{
anchors = (
{
name = bottom;
position = "{307, -155}";
},
{
name = ogonek;
position = "{576, 0}";
},
{
name = top;
position = "{307, 837}";
}
);
layerId = master01;
paths = (
{
closed = 1;
nodes = (
"60 -2 LINE SMOOTH",
"80 -2 OFFCURVE",
"96 2 OFFCURVE",
"100 14 CURVE SMOOTH",
"157 178 LINE",
"451 178 LINE",
"510 14 LINE SMOOTH",
"514 2 OFFCURVE",
"530 -2 OFFCURVE",
"550 -2 CURVE SMOOTH",
"558 -2 LINE SMOOTH",
"588 -2 OFFCURVE",
"601 5 OFFCURVE",
"601 15 CURVE SMOOTH",
"601 19 OFFCURVE",
"600 23 OFFCURVE",
"598 28 CURVE SMOOTH",
"361 686 LINE SMOOTH",
"358 697 OFFCURVE",
"344 702 OFFCURVE",
"321 702 CURVE SMOOTH",
"292 702 LINE SMOOTH",
"269 702 OFFCURVE",
"256 697 OFFCURVE",
"252 686 CURVE SMOOTH",
"15 29 LINE SMOOTH",
"13 23 OFFCURVE",
"12 19 OFFCURVE",
"12 15 CURVE SMOOTH",
"12 4 OFFCURVE",
"25 -2 OFFCURVE",
"55 -2 CURVE SMOOTH"
);
},
{
closed = 1;
nodes = (
"290 552 LINE SMOOTH",
"297 571 OFFCURVE",
"301 591 OFFCURVE",
"305 610 CURVE",
"307 610 LINE",
"310 591 OFFCURVE",
"313 570 OFFCURVE",
"319 552 CURVE SMOOTH",
"424 254 LINE",
"185 254 LINE"
);
},
{
closed = 1;
nodes = (
"211 742 OFFCURVE",
"228 747 OFFCURVE",
"243 757 CURVE SMOOTH",
"307 799 LINE",
"374 755 LINE SMOOTH",
"386 747 OFFCURVE",
"402 742 OFFCURVE",
"415 742 CURVE SMOOTH",
"432 742 OFFCURVE",
"437 747 OFFCURVE",
"437 753 CURVE SMOOTH",
"437 758 OFFCURVE",
"437 762 OFFCURVE",
"421 779 CURVE SMOOTH",
"371 832 LINE SMOOTH",
"353 851 OFFCURVE",
"348 854 OFFCURVE",
"317 854 CURVE SMOOTH",
"297 854 LINE SMOOTH",
"268 854 OFFCURVE",
"258 848 OFFCURVE",
"243 832 CURVE SMOOTH",
"191 777 LINE SMOOTH",
"177 762 OFFCURVE",
"177 758 OFFCURVE",
"177 753 CURVE SMOOTH",
"177 747 OFFCURVE",
"182 742 OFFCURVE",
"199 742 CURVE SMOOTH"
);
},
{
closed = 1;
nodes = (
"337 -175 OFFCURVE",
"350 -168 OFFCURVE",
"350 -153 CURVE SMOOTH",
"350 -102 LINE SMOOTH",
"350 -87 OFFCURVE",
"337 -80 OFFCURVE",
"307 -80 CURVE SMOOTH",
"277 -80 OFFCURVE",
"264 -87 OFFCURVE",
"264 -102 CURVE SMOOTH",
"264 -153 LINE SMOOTH",
"264 -168 OFFCURVE",
"277 -175 OFFCURVE",
"307 -175 CURVE"
);
}
);
width = 613;
},
{
anchors = (
{
name = bottom;
position = "{307, -185}";
},
{
name = ogonek;
position = "{590, 0}";
},
{
name = top;
position = "{307, 842}";
}
);
layerId = "2DCA4625-E4BE-49C6-A30F-EA66D600808E";
paths = (
{
closed = 1;
nodes = (
"101 -2 LINE SMOOTH",
"125 -2 OFFCURVE",
"142 4 OFFCURVE",
"147 19 CURVE SMOOTH",
"187 141 LINE",
"423 141 LINE",
"463 19 LINE SMOOTH",
"468 3 OFFCURVE",
"490 -2 OFFCURVE",
"519 -2 CURVE SMOOTH",
"563 -2 LINE SMOOTH",
"598 -2 OFFCURVE",
"613 6 OFFCURVE",
"613 20 CURVE SMOOTH",
"613 25 OFFCURVE",
"612 31 OFFCURVE",
"610 38 CURVE SMOOTH",
"390 681 LINE SMOOTH",
"385 695 OFFCURVE",
"367 702 OFFCURVE",
"333 702 CURVE SMOOTH",
"281 702 LINE SMOOTH",
"248 702 OFFCURVE",
"229 695 OFFCURVE",
"224 681 CURVE SMOOTH",
"4 38 LINE SMOOTH",
"2 31 OFFCURVE",
"0 25 OFFCURVE",
"0 20 CURVE SMOOTH",
"0 6 OFFCURVE",
"19 -2 OFFCURVE",
"61 -2 CURVE SMOOTH"
);
},
{
closed = 1;
nodes = (
"289 451 LINE SMOOTH",
"297 472 OFFCURVE",
"300 494 OFFCURVE",
"304 515 CURVE",
"308 515 LINE",
"312 494 OFFCURVE",
"316 472 OFFCURVE",
"323 451 CURVE SMOOTH",
"380 273 LINE",
"230 273 LINE"
);
},
{
closed = 1;
nodes = (
"222 734 OFFCURVE",
"239 741 OFFCURVE",
"257 751 CURVE SMOOTH",
"306 779 LINE",
"355 751 LINE SMOOTH",
"374 740 OFFCURVE",
"391 734 OFFCURVE",
"413 734 CURVE SMOOTH",
"447 734 OFFCURVE",
"453 737 OFFCURVE",
"453 744 CURVE SMOOTH",
"453 748 OFFCURVE",
"451 753 OFFCURVE",
"432 774 CURVE SMOOTH",
"377 836 LINE SMOOTH",
"360 855 OFFCURVE",
"347 860 OFFCURVE",
"316 860 CURVE SMOOTH",
"296 860 LINE SMOOTH",
"265 860 OFFCURVE",
"252 855 OFFCURVE",
"236 837 CURVE SMOOTH",
"180 774 LINE SMOOTH",
"161 753 OFFCURVE",
"159 748 OFFCURVE",
"159 744 CURVE SMOOTH",
"159 737 OFFCURVE",
"165 734 OFFCURVE",
"199 734 CURVE SMOOTH"
);
},
{
closed = 1;
nodes = (
"350 -204 OFFCURVE",
"368 -193 OFFCURVE",
"368 -172 CURVE SMOOTH",
"368 -112 LINE SMOOTH",
"368 -91 OFFCURVE",
"350 -80 OFFCURVE",
"307 -80 CURVE SMOOTH",
"264 -80 OFFCURVE",
"246 -91 OFFCURVE",
"246 -112 CURVE SMOOTH",
"246 -172 LINE SMOOTH",
"246 -193 OFFCURVE",
"264 -204 OFFCURVE",
"307 -204 CURVE SMOOTH"
);
}
);
width = 613;
}
);
leftKerningGroup = A;
rightKerningGroup = A;
unicode = 1EAC;
},
{
glyphname = Acircumflexgrave;
layers = (
{
anchors = (
{
name = bottom;
position = "{307, 0}";
},
{
name = ogonek;
position = "{576, 0}";
},
{
name = top;
position = "{307, 989}";
}
);
layerId = master01;
paths = (
{
closed = 1;
nodes = (
"60 -2 LINE SMOOTH",
"80 -2 OFFCURVE",
"96 2 OFFCURVE",
"100 14 CURVE SMOOTH",
"157 178 LINE",
"451 178 LINE",
"510 14 LINE SMOOTH",
"514 2 OFFCURVE",
"530 -2 OFFCURVE",
"550 -2 CURVE SMOOTH",
"558 -2 LINE SMOOTH",
"588 -2 OFFCURVE",
"601 5 OFFCURVE",
"601 15 CURVE SMOOTH",
"601 19 OFFCURVE",
"600 23 OFFCURVE",
"598 28 CURVE SMOOTH",
"361 686 LINE SMOOTH",
"358 697 OFFCURVE",
"344 702 OFFCURVE",
"321 702 CURVE SMOOTH",
"292 702 LINE SMOOTH",
"269 702 OFFCURVE",
"256 697 OFFCURVE",
"252 686 CURVE SMOOTH",
"15 29 LINE SMOOTH",
"13 23 OFFCURVE",
"12 19 OFFCURVE",
"12 15 CURVE SMOOTH",
"12 4 OFFCURVE",
"25 -2 OFFCURVE",
"55 -2 CURVE SMOOTH"
);
},
{
closed = 1;
nodes = (
"290 552 LINE SMOOTH",
"297 571 OFFCURVE",
"301 591 OFFCURVE",
"305 610 CURVE",
"307 610 LINE",
"310 591 OFFCURVE",
"313 570 OFFCURVE",
"319 552 CURVE SMOOTH",
"424 254 LINE",
"185 254 LINE"
);
},
{
closed = 1;
nodes = (
"211 742 OFFCURVE",
"228 747 OFFCURVE",
"243 757 CURVE SMOOTH",
"307 799 LINE",
"374 755 LINE SMOOTH",
"386 747 OFFCURVE",
"402 742 OFFCURVE",
"415 742 CURVE SMOOTH",
"432 742 OFFCURVE",
"437 747 OFFCURVE",
"437 753 CURVE SMOOTH",
"437 758 OFFCURVE",
"437 762 OFFCURVE",
"421 779 CURVE SMOOTH",
"371 832 LINE SMOOTH",
"353 851 OFFCURVE",
"348 854 OFFCURVE",
"317 854 CURVE SMOOTH",
"297 854 LINE SMOOTH",
"268 854 OFFCURVE",
"258 848 OFFCURVE",
"243 832 CURVE SMOOTH",
"191 777 LINE SMOOTH",
"177 762 OFFCURVE",
"177 758 OFFCURVE",
"177 753 CURVE SMOOTH",
"177 747 OFFCURVE",
"182 742 OFFCURVE",
"199 742 CURVE SMOOTH"
);
},
{
closed = 1;
nodes = (
"383 889 OFFCURVE",
"393 894 OFFCURVE",
"393 902 CURVE SMOOTH",
"393 907 OFFCURVE",
"390 913 OFFCURVE",
"382 921 CURVE SMOOTH",
"328 978 LINE SMOOTH",
"311 996 OFFCURVE",
"294 1001 OFFCURVE",
"252 1001 CURVE SMOOTH",
"221 1001 OFFCURVE",
"199 995 OFFCURVE",
"199 983 CURVE SMOOTH",
"199 972 OFFCURVE",
"204 965 OFFCURVE",
"239 943 CURVE SMOOTH",
"293 910 LINE SMOOTH",
"321 893 OFFCURVE",
"334 889 OFFCURVE",
"367 889 CURVE SMOOTH"
);
}
);
width = 613;
},
{
anchors = (
{
name = bottom;
position = "{307, 0}";
},
{
name = ogonek;
position = "{590, 0}";
},
{
name = top;
position = "{307, 1004}";
}
);
layerId = "2DCA4625-E4BE-49C6-A30F-EA66D600808E";
paths = (
{
closed = 1;
nodes = (
"101 -2 LINE SMOOTH",
"125 -2 OFFCURVE",
"142 4 OFFCURVE",
"147 19 CURVE SMOOTH",
"187 141 LINE",
"423 141 LINE",
"463 19 LINE SMOOTH",
"468 3 OFFCURVE",
"490 -2 OFFCURVE",
"519 -2 CURVE SMOOTH",
"563 -2 LINE SMOOTH",
"598 -2 OFFCURVE",
"613 6 OFFCURVE",
"613 20 CURVE SMOOTH",
"613 25 OFFCURVE",
"612 31 OFFCURVE",
"610 38 CURVE SMOOTH",
"390 681 LINE SMOOTH",
"385 695 OFFCURVE",
"367 702 OFFCURVE",
"333 702 CURVE SMOOTH",
"281 702 LINE SMOOTH",
"248 702 OFFCURVE",
"229 695 OFFCURVE",
"224 681 CURVE SMOOTH",
"4 38 LINE SMOOTH",
"2 31 OFFCURVE",
"0 25 OFFCURVE",
"0 20 CURVE SMOOTH",
"0 6 OFFCURVE",
"19 -2 OFFCURVE",
"61 -2 CURVE SMOOTH"
);
},
{
closed = 1;
nodes = (
"289 451 LINE SMOOTH",
"297 472 OFFCURVE",
"300 494 OFFCURVE",
"304 515 CURVE",
"308 515 LINE",
"312 494 OFFCURVE",
"316 472 OFFCURVE",
"323 451 CURVE SMOOTH",
"380 273 LINE",
"230 273 LINE"
);
},
{
closed = 1;
nodes = (
"222 734 OFFCURVE",
"239 741 OFFCURVE",
"257 751 CURVE SMOOTH",
"306 779 LINE",
"355 751 LINE SMOOTH",
"374 740 OFFCURVE",
"391 734 OFFCURVE",
"413 734 CURVE SMOOTH",
"447 734 OFFCURVE",
"453 737 OFFCURVE",
"453 744 CURVE SMOOTH",
"453 748 OFFCURVE",
"451 753 OFFCURVE",
"432 774 CURVE SMOOTH",
"377 836 LINE SMOOTH",
"360 855 OFFCURVE",
"347 860 OFFCURVE",
"316 860 CURVE SMOOTH",
"296 860 LINE SMOOTH",
"265 860 OFFCURVE",
"252 855 OFFCURVE",
"236 837 CURVE SMOOTH",
"180 774 LINE SMOOTH",
"161 753 OFFCURVE",
"159 748 OFFCURVE",
"159 744 CURVE SMOOTH",
"159 737 OFFCURVE",
"165 734 OFFCURVE",
"199 734 CURVE SMOOTH"
);
},
{
closed = 1;
nodes = (
"386 891 OFFCURVE",
"398 895 OFFCURVE",
"398 904 CURVE SMOOTH",
"398 909 OFFCURVE",
"395 916 OFFCURVE",
"385 927 CURVE SMOOTH",
"331 987 LINE SMOOTH",
"310 1010 OFFCURVE",
"291 1017 OFFCURVE",
"245 1017 CURVE SMOOTH",
"198 1017 OFFCURVE",
"174 1014 OFFCURVE",
"174 999 CURVE SMOOTH",
"174 991 OFFCURVE",
"182 981 OFFCURVE",
"204 967 CURVE SMOOTH",
"290 910 LINE SMOOTH",
"312 896 OFFCURVE",
"326 891 OFFCURVE",
"360 891 CURVE SMOOTH"
);
}
);
width = 613;
}
);
leftKerningGroup = A;
rightKerningGroup = A;
unicode = 1EA6;
},
{
glyphname = Acircumflexhookabove;
layers = (
{
anchors = (
{
name = bottom;
position = "{307, 0}";
},
{
name = ogonek;
position = "{576, 0}";
},
{
name = top;
position = "{307, 1034}";
}
);
layerId = master01;
paths = (
{
closed = 1;
nodes = (
"60 -2 LINE SMOOTH",
"80 -2 OFFCURVE",
"96 2 OFFCURVE",
"100 14 CURVE SMOOTH",
"157 178 LINE",
"451 178 LINE",
"510 14 LINE SMOOTH",
"514 2 OFFCURVE",
"530 -2 OFFCURVE",
"550 -2 CURVE SMOOTH",
"558 -2 LINE SMOOTH",
"588 -2 OFFCURVE",
"601 5 OFFCURVE",
"601 15 CURVE SMOOTH",
"601 19 OFFCURVE",
"600 23 OFFCURVE",
"598 28 CURVE SMOOTH",
"361 686 LINE SMOOTH",
"358 697 OFFCURVE",
"344 702 OFFCURVE",
"321 702 CURVE SMOOTH",
"292 702 LINE SMOOTH",
"269 702 OFFCURVE",
"256 697 OFFCURVE",
"252 686 CURVE SMOOTH",
"15 29 LINE SMOOTH",
"13 23 OFFCURVE",
"12 19 OFFCURVE",
"12 15 CURVE SMOOTH",
"12 4 OFFCURVE",
"25 -2 OFFCURVE",
"55 -2 CURVE SMOOTH"
);
},
{
closed = 1;
nodes = (
"290 552 LINE SMOOTH",
"297 571 OFFCURVE",
"301 591 OFFCURVE",
"305 610 CURVE",
"307 610 LINE",
"310 591 OFFCURVE",
"313 570 OFFCURVE",
"319 552 CURVE SMOOTH",
"424 254 LINE",
"185 254 LINE"
);
},
{
closed = 1;
nodes = (
"211 742 OFFCURVE",
"228 747 OFFCURVE",
"243 757 CURVE SMOOTH",
"307 799 LINE",
"374 755 LINE SMOOTH",
"386 747 OFFCURVE",
"402 742 OFFCURVE",
"415 742 CURVE SMOOTH",
"432 742 OFFCURVE",
"437 747 OFFCURVE",
"437 753 CURVE SMOOTH",
"437 758 OFFCURVE",
"437 762 OFFCURVE",
"421 779 CURVE SMOOTH",
"371 832 LINE SMOOTH",
"353 851 OFFCURVE",
"348 854 OFFCURVE",
"317 854 CURVE SMOOTH",
"297 854 LINE SMOOTH",
"268 854 OFFCURVE",
"258 848 OFFCURVE",
"243 832 CURVE SMOOTH",
"191 777 LINE SMOOTH",
"177 762 OFFCURVE",
"177 758 OFFCURVE",
"177 753 CURVE SMOOTH",
"177 747 OFFCURVE",
"182 742 OFFCURVE",
"199 742 CURVE SMOOTH"
);
},
{
closed = 1;
nodes = (
"313 875 OFFCURVE",
"407 908 OFFCURVE",
"407 971 CURVE SMOOTH",
"407 1011 OFFCURVE",
"366 1042 OFFCURVE",
"304 1042 CURVE SMOOTH",
"263 1042 OFFCURVE",
"206 1024 OFFCURVE",
"206 1011 CURVE SMOOTH",
"206 997 OFFCURVE",
"220 978 OFFCURVE",
"233 978 CURVE SMOOTH",
"248 978 OFFCURVE",
"267 991 OFFCURVE",
"302 991 CURVE SMOOTH",
"324 991 OFFCURVE",
"343 982 OFFCURVE",
"343 964 CURVE SMOOTH",
"343 933 OFFCURVE",
"255 920 OFFCURVE",
"255 908 CURVE SMOOTH",
"255 899 OFFCURVE",
"275 875 OFFCURVE",
"292 875 CURVE SMOOTH"
);
}
);
width = 613;
},
{
anchors = (
{
name = bottom;
position = "{307, 0}";
},
{
name = ogonek;
position = "{590, 0}";
},
{
name = top;
position = "{307, 1039}";
}
);
layerId = "2DCA4625-E4BE-49C6-A30F-EA66D600808E";
paths = (
{
closed = 1;
nodes = (
"101 -2 LINE SMOOTH",
"125 -2 OFFCURVE",
"142 4 OFFCURVE",
"147 19 CURVE SMOOTH",
"187 141 LINE",
"423 141 LINE",
"463 19 LINE SMOOTH",
"468 3 OFFCURVE",
"490 -2 OFFCURVE",
"519 -2 CURVE SMOOTH",
"563 -2 LINE SMOOTH",
"598 -2 OFFCURVE",
"613 6 OFFCURVE",
"613 20 CURVE SMOOTH",
"613 25 OFFCURVE",
"612 31 OFFCURVE",
"610 38 CURVE SMOOTH",
"390 681 LINE SMOOTH",
"385 695 OFFCURVE",
"367 702 OFFCURVE",
"333 702 CURVE SMOOTH",
"281 702 LINE SMOOTH",
"248 702 OFFCURVE",
"229 695 OFFCURVE",
"224 681 CURVE SMOOTH",
"4 38 LINE SMOOTH",
"2 31 OFFCURVE",
"0 25 OFFCURVE",
"0 20 CURVE SMOOTH",
"0 6 OFFCURVE",
"19 -2 OFFCURVE",
"61 -2 CURVE SMOOTH"
);
},
{
closed = 1;
nodes = (
"289 451 LINE SMOOTH",
"297 472 OFFCURVE",
"300 494 OFFCURVE",
"304 515 CURVE",
"308 515 LINE",
"312 494 OFFCURVE",
"316 472 OFFCURVE",
"323 451 CURVE SMOOTH",
"380 273 LINE",
"230 273 LINE"
);
},
{
closed = 1;
nodes = (
"222 734 OFFCURVE",
"239 741 OFFCURVE",
"257 751 CURVE SMOOTH",
"306 779 LINE",
"355 751 LINE SMOOTH",
"374 740 OFFCURVE",
"391 734 OFFCURVE",
"413 734 CURVE SMOOTH",
"447 734 OFFCURVE",
"453 737 OFFCURVE",
"453 744 CURVE SMOOTH",
"453 748 OFFCURVE",
"451 753 OFFCURVE",
"432 774 CURVE SMOOTH",
"377 836 LINE SMOOTH",
"360 855 OFFCURVE",
"347 860 OFFCURVE",
"316 860 CURVE SMOOTH",
"296 860 LINE SMOOTH",
"265 860 OFFCURVE",
"252 855 OFFCURVE",
"236 837 CURVE SMOOTH",
"180 774 LINE SMOOTH",
"161 753 OFFCURVE",
"159 748 OFFCURVE",
"159 744 CURVE SMOOTH",
"159 737 OFFCURVE",
"165 734 OFFCURVE",
"199 734 CURVE SMOOTH"
);
},
{
closed = 1;
nodes = (
"322 879 OFFCURVE",
"412 916 OFFCURVE",
"412 976 CURVE SMOOTH",
"412 1024 OFFCURVE",
"369 1055 OFFCURVE",
"300 1055 CURVE SMOOTH",
"251 1055 OFFCURVE",
"201 1037 OFFCURVE",
"201 1024 CURVE SMOOTH",
"201 1004 OFFCURVE",
"219 982 OFFCURVE",
"232 982 CURVE SMOOTH",
"247 982 OFFCURVE",
"270 992 OFFCURVE",
"297 992 CURVE SMOOTH",
"314 992 OFFCURVE",
"329 987 OFFCURVE",
"329 972 CURVE SMOOTH",
"329 932 OFFCURVE",
"251 924 OFFCURVE",
"251 909 CURVE SMOOTH",
"251 896 OFFCURVE",
"279 879 OFFCURVE",
"299 879 CURVE SMOOTH"
);
}
);
width = 613;
}
);
leftKerningGroup = A;
rightKerningGroup = A;
unicode = 1EA8;
},
{
glyphname = Acircumflextilde;
layers = (
{
anchors = (
{
name = bottom;
position = "{307, 0}";
},
{
name = ogonek;
position = "{576, 0}";
},
{
name = top;
position = "{307, 974}";
}
);
layerId = master01;
paths = (
{
closed = 1;
nodes = (
"60 -2 LINE SMOOTH",
"80 -2 OFFCURVE",
"96 2 OFFCURVE",
"100 14 CURVE SMOOTH",
"157 178 LINE",
"451 178 LINE",
"510 14 LINE SMOOTH",
"514 2 OFFCURVE",
"530 -2 OFFCURVE",
"550 -2 CURVE SMOOTH",
"558 -2 LINE SMOOTH",
"588 -2 OFFCURVE",
"601 5 OFFCURVE",
"601 15 CURVE SMOOTH",
"601 19 OFFCURVE",
"600 23 OFFCURVE",
"598 28 CURVE SMOOTH",
"361 686 LINE SMOOTH",
"358 697 OFFCURVE",
"344 702 OFFCURVE",
"321 702 CURVE SMOOTH",
"292 702 LINE SMOOTH",
"269 702 OFFCURVE",
"256 697 OFFCURVE",
"252 686 CURVE SMOOTH",
"15 29 LINE SMOOTH",
"13 23 OFFCURVE",
"12 19 OFFCURVE",
"12 15 CURVE SMOOTH",
"12 4 OFFCURVE",
"25 -2 OFFCURVE",
"55 -2 CURVE SMOOTH"
);
},
{
closed = 1;
nodes = (
"290 552 LINE SMOOTH",
"297 571 OFFCURVE",
"301 591 OFFCURVE",
"305 610 CURVE",
"307 610 LINE",
"310 591 OFFCURVE",
"313 570 OFFCURVE",
"319 552 CURVE SMOOTH",
"424 254 LINE",
"185 254 LINE"
);
},
{
closed = 1;
nodes = (
"211 742 OFFCURVE",
"228 747 OFFCURVE",
"243 757 CURVE SMOOTH",
"307 799 LINE",
"374 755 LINE SMOOTH",
"386 747 OFFCURVE",
"402 742 OFFCURVE",
"415 742 CURVE SMOOTH",
"432 742 OFFCURVE",
"437 747 OFFCURVE",
"437 753 CURVE SMOOTH",
"437 758 OFFCURVE",
"437 762 OFFCURVE",
"421 779 CURVE SMOOTH",
"371 832 LINE SMOOTH",
"353 851 OFFCURVE",
"348 854 OFFCURVE",
"317 854 CURVE SMOOTH",
"297 854 LINE SMOOTH",
"268 854 OFFCURVE",
"258 848 OFFCURVE",
"243 832 CURVE SMOOTH",
"191 777 LINE SMOOTH",
"177 762 OFFCURVE",
"177 758 OFFCURVE",
"177 753 CURVE SMOOTH",
"177 747 OFFCURVE",
"182 742 OFFCURVE",
"199 742 CURVE SMOOTH"
);
},
{
closed = 1;
nodes = (
"174 893 OFFCURVE",
"182 936 OFFCURVE",
"225 936 CURVE SMOOTH",
"268 936 OFFCURVE",
"326 893 OFFCURVE",
"387 893 CURVE SMOOTH",
"429 893 OFFCURVE",
"461 916 OFFCURVE",
"484 962 CURVE SMOOTH",
"487 968 OFFCURVE",
"488 972 OFFCURVE",
"488 975 CURVE SMOOTH",
"488 987 OFFCURVE",
"469 998 OFFCURVE",
"458 998 CURVE SMOOTH",
"441 998 OFFCURVE",
"428 955 OFFCURVE",
"385 955 CURVE SMOOTH",
"342 955 OFFCURVE",
"284 998 OFFCURVE",
"226 998 CURVE SMOOTH",
"183 998 OFFCURVE",
"146 972 OFFCURVE",
"128 927 CURVE SMOOTH",
"126 922 OFFCURVE",
"125 918 OFFCURVE",
"125 914 CURVE SMOOTH",
"125 902 OFFCURVE",
"145 893 OFFCURVE",
"156 893 CURVE SMOOTH"
);
}
);
width = 613;
},
{
anchors = (
{
name = bottom;
position = "{307, 0}";
},
{
name = ogonek;
position = "{590, 0}";
},
{
name = top;
position = "{307, 989}";
}
);
layerId = "2DCA4625-E4BE-49C6-A30F-EA66D600808E";
paths = (
{
closed = 1;
nodes = (
"101 -2 LINE SMOOTH",
"125 -2 OFFCURVE",
"142 4 OFFCURVE",
"147 19 CURVE SMOOTH",
"187 141 LINE",
"423 141 LINE",
"463 19 LINE SMOOTH",
"468 3 OFFCURVE",
"490 -2 OFFCURVE",
"519 -2 CURVE SMOOTH",
"563 -2 LINE SMOOTH",
"598 -2 OFFCURVE",
"613 6 OFFCURVE",
"613 20 CURVE SMOOTH",
"613 25 OFFCURVE",
"612 31 OFFCURVE",
"610 38 CURVE SMOOTH",
"390 681 LINE SMOOTH",
"385 695 OFFCURVE",
"367 702 OFFCURVE",
"333 702 CURVE SMOOTH",
"281 702 LINE SMOOTH",
"248 702 OFFCURVE",
"229 695 OFFCURVE",
"224 681 CURVE SMOOTH",
"4 38 LINE SMOOTH",
"2 31 OFFCURVE",
"0 25 OFFCURVE",
"0 20 CURVE SMOOTH",
"0 6 OFFCURVE",
"19 -2 OFFCURVE",
"61 -2 CURVE SMOOTH"
);
},
{
closed = 1;
nodes = (
"289 451 LINE SMOOTH",
"297 472 OFFCURVE",
"300 494 OFFCURVE",
"304 515 CURVE",
"308 515 LINE",
"312 494 OFFCURVE",
"316 472 OFFCURVE",
"323 451 CURVE SMOOTH",
"380 273 LINE",
"230 273 LINE"
);
},
{
closed = 1;
nodes = (
"222 734 OFFCURVE",
"239 741 OFFCURVE",
"257 751 CURVE SMOOTH",
"306 779 LINE",
"355 751 LINE SMOOTH",
"374 740 OFFCURVE",
"391 734 OFFCURVE",
"413 734 CURVE SMOOTH",
"447 734 OFFCURVE",
"453 737 OFFCURVE",
"453 744 CURVE SMOOTH",
"453 748 OFFCURVE",
"451 753 OFFCURVE",
"432 774 CURVE SMOOTH",
"377 836 LINE SMOOTH",
"360 855 OFFCURVE",
"347 860 OFFCURVE",
"316 860 CURVE SMOOTH",
"296 860 LINE SMOOTH",
"265 860 OFFCURVE",
"252 855 OFFCURVE",
"236 837 CURVE SMOOTH",
"180 774 LINE SMOOTH",
"161 753 OFFCURVE",
"159 748 OFFCURVE",
"159 744 CURVE SMOOTH",
"159 737 OFFCURVE",
"165 734 OFFCURVE",
"199 734 CURVE SMOOTH"
);
},
{
closed = 1;
nodes = (
"187 892 OFFCURVE",
"197 924 OFFCURVE",
"231 924 CURVE SMOOTH",
"267 924 OFFCURVE",
"330 895 OFFCURVE",
"375 895 CURVE SMOOTH",
"432 895 OFFCURVE",
"465 933 OFFCURVE",
"479 959 CURVE SMOOTH",
"484 968 OFFCURVE",
"487 977 OFFCURVE",
"487 982 CURVE SMOOTH",
"487 996 OFFCURVE",
"459 1015 OFFCURVE",
"444 1015 CURVE SMOOTH",
"426 1015 OFFCURVE",
"412 984 OFFCURVE",
"379 984 CURVE SMOOTH",
"346 984 OFFCURVE",
"282 1013 OFFCURVE",
"238 1013 CURVE SMOOTH",
"181 1013 OFFCURVE",
"150 979 OFFCURVE",
"135 947 CURVE SMOOTH",
"131 939 OFFCURVE",
"127 929 OFFCURVE",
"127 920 CURVE SMOOTH",
"127 906 OFFCURVE",
"158 892 OFFCURVE",
"170 892 CURVE SMOOTH"
);
}
);
width = 613;
}
);
leftKerningGroup = A;
rightKerningGroup = A;
unicode = 1EAA;
},
{
glyphname = Adblgrave;
layers = (
{
anchors = (
{
name = bottom;
position = "{307, 0}";
},
{
name = ogonek;
position = "{576, 0}";
},
{
name = top;
position = "{307, 852}";
}
);
layerId = master01;
paths = (
{
closed = 1;
nodes = (
"60 -2 LINE SMOOTH",
"80 -2 OFFCURVE",
"96 2 OFFCURVE",
"100 14 CURVE SMOOTH",
"157 178 LINE",
"451 178 LINE",
"510 14 LINE SMOOTH",
"514 2 OFFCURVE",
"530 -2 OFFCURVE",
"550 -2 CURVE SMOOTH",
"558 -2 LINE SMOOTH",
"588 -2 OFFCURVE",
"601 5 OFFCURVE",
"601 15 CURVE SMOOTH",
"601 19 OFFCURVE",
"600 23 OFFCURVE",
"598 28 CURVE SMOOTH",
"361 686 LINE SMOOTH",
"358 697 OFFCURVE",
"344 702 OFFCURVE",
"321 702 CURVE SMOOTH",
"292 702 LINE SMOOTH",
"269 702 OFFCURVE",
"256 697 OFFCURVE",
"252 686 CURVE SMOOTH",
"15 29 LINE SMOOTH",
"13 23 OFFCURVE",
"12 19 OFFCURVE",
"12 15 CURVE SMOOTH",
"12 4 OFFCURVE",
"25 -2 OFFCURVE",
"55 -2 CURVE SMOOTH"
);
},
{
closed = 1;
nodes = (
"290 552 LINE SMOOTH",
"297 571 OFFCURVE",
"301 591 OFFCURVE",
"305 610 CURVE",
"307 610 LINE",
"310 591 OFFCURVE",
"313 570 OFFCURVE",
"319 552 CURVE SMOOTH",
"424 254 LINE",
"185 254 LINE"
);
},
{
closed = 1;
nodes = (
"285 752 OFFCURVE",
"295 757 OFFCURVE",
"295 765 CURVE SMOOTH",
"295 770 OFFCURVE",
"292 776 OFFCURVE",
"284 784 CURVE SMOOTH",
"230 841 LINE SMOOTH",
"213 859 OFFCURVE",
"196 864 OFFCURVE",
"154 864 CURVE SMOOTH",
"123 864 OFFCURVE",
"101 858 OFFCURVE",
"101 846 CURVE SMOOTH",
"101 835 OFFCURVE",
"106 828 OFFCURVE",
"141 806 CURVE SMOOTH",
"195 773 LINE SMOOTH",
"223 756 OFFCURVE",
"236 752 OFFCURVE",
"269 752 CURVE SMOOTH"
);
},
{
closed = 1;
nodes = (
"448 752 OFFCURVE",
"458 757 OFFCURVE",
"458 765 CURVE SMOOTH",
"458 770 OFFCURVE",
"455 776 OFFCURVE",
"447 784 CURVE SMOOTH",
"393 841 LINE SMOOTH",
"376 859 OFFCURVE",
"359 864 OFFCURVE",
"317 864 CURVE SMOOTH",
"286 864 OFFCURVE",
"264 858 OFFCURVE",
"264 846 CURVE SMOOTH",
"264 835 OFFCURVE",
"269 828 OFFCURVE",
"304 806 CURVE SMOOTH",
"358 773 LINE SMOOTH",
"386 756 OFFCURVE",
"399 752 OFFCURVE",
"432 752 CURVE SMOOTH"
);
}
);
width = 613;
},
{
anchors = (
{
name = bottom;
position = "{307, 0}";
},
{
name = ogonek;
position = "{590, 0}";
},
{
name = top;
position = "{307, 862}";
}
);
layerId = "2DCA4625-E4BE-49C6-A30F-EA66D600808E";
paths = (
{
closed = 1;
nodes = (
"101 -2 LINE SMOOTH",
"125 -2 OFFCURVE",
"142 4 OFFCURVE",
"147 19 CURVE SMOOTH",
"187 141 LINE",
"423 141 LINE",
"463 19 LINE SMOOTH",
"468 3 OFFCURVE",
"490 -2 OFFCURVE",
"519 -2 CURVE SMOOTH",
"563 -2 LINE SMOOTH",
"598 -2 OFFCURVE",
"613 6 OFFCURVE",
"613 20 CURVE SMOOTH",
"613 25 OFFCURVE",
"612 31 OFFCURVE",
"610 38 CURVE SMOOTH",
"390 681 LINE SMOOTH",
"385 695 OFFCURVE",
"367 702 OFFCURVE",
"333 702 CURVE SMOOTH",
"281 702 LINE SMOOTH",
"248 702 OFFCURVE",
"229 695 OFFCURVE",
"224 681 CURVE SMOOTH",
"4 38 LINE SMOOTH",
"2 31 OFFCURVE",
"0 25 OFFCURVE",
"0 20 CURVE SMOOTH",
"0 6 OFFCURVE",
"19 -2 OFFCURVE",
"61 -2 CURVE SMOOTH"
);
},
{
closed = 1;
nodes = (
"289 451 LINE SMOOTH",
"297 472 OFFCURVE",
"300 494 OFFCURVE",
"304 515 CURVE",
"308 515 LINE",
"312 494 OFFCURVE",
"316 472 OFFCURVE",
"323 451 CURVE SMOOTH",
"380 273 LINE",
"230 273 LINE"
);
},
{
closed = 1;
nodes = (
"281 749 OFFCURVE",
"293 753 OFFCURVE",
"293 762 CURVE SMOOTH",
"293 767 OFFCURVE",
"290 774 OFFCURVE",
"280 785 CURVE SMOOTH",
"226 845 LINE SMOOTH",
"205 868 OFFCURVE",
"186 875 OFFCURVE",
"140 875 CURVE SMOOTH",
"93 875 OFFCURVE",
"69 872 OFFCURVE",
"69 857 CURVE SMOOTH",
"69 849 OFFCURVE",
"77 839 OFFCURVE",
"99 825 CURVE SMOOTH",
"185 768 LINE SMOOTH",
"207 754 OFFCURVE",
"221 749 OFFCURVE",
"255 749 CURVE SMOOTH"
);
},
{
closed = 1;
nodes = (
"475 749 OFFCURVE",
"487 753 OFFCURVE",
"487 762 CURVE SMOOTH",
"487 767 OFFCURVE",
"484 774 OFFCURVE",
"474 785 CURVE SMOOTH",
"420 845 LINE SMOOTH",
"399 868 OFFCURVE",
"380 875 OFFCURVE",
"334 875 CURVE SMOOTH",
"287 875 OFFCURVE",
"263 872 OFFCURVE",
"263 857 CURVE SMOOTH",
"263 849 OFFCURVE",
"271 839 OFFCURVE",
"293 825 CURVE SMOOTH",
"379 768 LINE SMOOTH",
"401 754 OFFCURVE",
"415 749 OFFCURVE",
"449 749 CURVE SMOOTH"
);
}
);
width = 613;
}
);
leftKerningGroup = A;
rightKerningGroup = A;
unicode = 0200;
},
{
glyphname = Adieresis;
layers = (
{
anchors = (
{
name = bottom;
position = "{307, 0}";
},
{
name = ogonek;
position = "{576, 0}";
},
{
name = top;
position = "{307, 842}";
}
);
layerId = master01;
paths = (
{
closed = 1;
nodes = (
"60 -2 LINE SMOOTH",
"80 -2 OFFCURVE",
"96 2 OFFCURVE",
"100 14 CURVE SMOOTH",
"157 178 LINE",
"451 178 LINE",
"510 14 LINE SMOOTH",
"514 2 OFFCURVE",
"530 -2 OFFCURVE",
"550 -2 CURVE SMOOTH",
"558 -2 LINE SMOOTH",
"588 -2 OFFCURVE",
"601 5 OFFCURVE",
"601 15 CURVE SMOOTH",
"601 19 OFFCURVE",
"600 23 OFFCURVE",
"598 28 CURVE SMOOTH",
"361 686 LINE SMOOTH",
"358 697 OFFCURVE",
"344 702 OFFCURVE",
"321 702 CURVE SMOOTH",
"292 702 LINE SMOOTH",
"269 702 OFFCURVE",
"256 697 OFFCURVE",
"252 686 CURVE SMOOTH",
"15 29 LINE SMOOTH",
"13 23 OFFCURVE",
"12 19 OFFCURVE",
"12 15 CURVE SMOOTH",
"12 4 OFFCURVE",
"25 -2 OFFCURVE",
"55 -2 CURVE SMOOTH"
);
},
{
closed = 1;
nodes = (
"290 552 LINE SMOOTH",
"297 571 OFFCURVE",
"301 591 OFFCURVE",
"305 610 CURVE",
"307 610 LINE",
"310 591 OFFCURVE",
"313 570 OFFCURVE",
"319 552 CURVE SMOOTH",
"424 254 LINE",
"185 254 LINE"
);
},
{
closed = 1;
nodes = (
"418 758 OFFCURVE",
"431 765 OFFCURVE",
"431 780 CURVE SMOOTH",
"431 836 LINE SMOOTH",
"431 851 OFFCURVE",
"418 858 OFFCURVE",
"387 858 CURVE SMOOTH",
"356 858 OFFCURVE",
"343 851 OFFCURVE",
"343 836 CURVE SMOOTH",
"343 780 LINE SMOOTH",
"343 765 OFFCURVE",
"356 758 OFFCURVE",
"387 758 CURVE SMOOTH"
);
},
{
closed = 1;
nodes = (
"258 758 OFFCURVE",
"271 765 OFFCURVE",
"271 780 CURVE SMOOTH",
"271 836 LINE SMOOTH",
"271 851 OFFCURVE",
"258 858 OFFCURVE",
"227 858 CURVE SMOOTH",
"196 858 OFFCURVE",
"183 851 OFFCURVE",
"183 836 CURVE SMOOTH",
"183 780 LINE SMOOTH",
"183 765 OFFCURVE",
"196 758 OFFCURVE",
"227 758 CURVE SMOOTH"
);
}
);
width = 613;
},
{
anchors = (
{
name = bottom;
position = "{307, 0}";
},
{
name = ogonek;
position = "{590, 0}";
},
{
name = top;
position = "{307, 852}";
}
);
layerId = "2DCA4625-E4BE-49C6-A30F-EA66D600808E";
paths = (
{
closed = 1;
nodes = (
"101 -2 LINE SMOOTH",
"125 -2 OFFCURVE",
"142 4 OFFCURVE",
"147 19 CURVE SMOOTH",
"187 141 LINE",
"423 141 LINE",
"463 19 LINE SMOOTH",
"468 3 OFFCURVE",
"490 -2 OFFCURVE",
"519 -2 CURVE SMOOTH",
"563 -2 LINE SMOOTH",
"598 -2 OFFCURVE",
"613 6 OFFCURVE",
"613 20 CURVE SMOOTH",
"613 25 OFFCURVE",
"612 31 OFFCURVE",
"610 38 CURVE SMOOTH",
"390 681 LINE SMOOTH",
"385 695 OFFCURVE",
"367 702 OFFCURVE",
"333 702 CURVE SMOOTH",
"281 702 LINE SMOOTH",
"248 702 OFFCURVE",
"229 695 OFFCURVE",
"224 681 CURVE SMOOTH",
"4 38 LINE SMOOTH",
"2 31 OFFCURVE",
"0 25 OFFCURVE",
"0 20 CURVE SMOOTH",
"0 6 OFFCURVE",
"19 -2 OFFCURVE",
"61 -2 CURVE SMOOTH"
);
},
{
closed = 1;
nodes = (
"289 451 LINE SMOOTH",
"297 472 OFFCURVE",
"300 494 OFFCURVE",
"304 515 CURVE",
"308 515 LINE",
"312 494 OFFCURVE",
"316 472 OFFCURVE",
"323 451 CURVE SMOOTH",
"380 273 LINE",
"230 273 LINE"
);
},
{
closed = 1;
nodes = (
"445 746 OFFCURVE",
"464 756 OFFCURVE",
"464 778 CURVE SMOOTH",
"464 846 LINE SMOOTH",
"464 868 OFFCURVE",
"445 878 OFFCURVE",
"400 878 CURVE SMOOTH",
"355 878 OFFCURVE",
"336 868 OFFCURVE",
"336 846 CURVE SMOOTH",
"336 778 LINE SMOOTH",
"336 756 OFFCURVE",
"355 746 OFFCURVE",
"400 746 CURVE SMOOTH"
);
},
{
closed = 1;
nodes = (
"259 746 OFFCURVE",
"278 756 OFFCURVE",
"278 778 CURVE SMOOTH",
"278 846 LINE SMOOTH",
"278 868 OFFCURVE",
"259 878 OFFCURVE",
"214 878 CURVE SMOOTH",
"169 878 OFFCURVE",
"150 868 OFFCURVE",
"150 846 CURVE SMOOTH",
"150 778 LINE SMOOTH",
"150 756 OFFCURVE",
"169 746 OFFCURVE",
"214 746 CURVE SMOOTH"
);
}
);
width = 613;
}
);
leftKerningGroup = A;
rightKerningGroup = A;
unicode = 00C4;
},
{
glyphname = Adotbelow;
layers = (
{
anchors = (
{
name = bottom;
position = "{307, -155}";
},
{
name = ogonek;
position = "{576, 0}";
},
{
name = top;
position = "{307, 700}";
}
);
layerId = master01;
paths = (
{
closed = 1;
nodes = (
"60 -2 LINE SMOOTH",
"80 -2 OFFCURVE",
"96 2 OFFCURVE",
"100 14 CURVE SMOOTH",
"157 178 LINE",
"451 178 LINE",
"510 14 LINE SMOOTH",
"514 2 OFFCURVE",
"530 -2 OFFCURVE",
"550 -2 CURVE SMOOTH",
"558 -2 LINE SMOOTH",
"588 -2 OFFCURVE",
"601 5 OFFCURVE",
"601 15 CURVE SMOOTH",
"601 19 OFFCURVE",
"600 23 OFFCURVE",
"598 28 CURVE SMOOTH",
"361 686 LINE SMOOTH",
"358 697 OFFCURVE",
"344 702 OFFCURVE",
"321 702 CURVE SMOOTH",
"292 702 LINE SMOOTH",
"269 702 OFFCURVE",
"256 697 OFFCURVE",
"252 686 CURVE SMOOTH",
"15 29 LINE SMOOTH",
"13 23 OFFCURVE",
"12 19 OFFCURVE",
"12 15 CURVE SMOOTH",
"12 4 OFFCURVE",
"25 -2 OFFCURVE",
"55 -2 CURVE SMOOTH"
);
},
{
closed = 1;
nodes = (
"290 552 LINE SMOOTH",
"297 571 OFFCURVE",
"301 591 OFFCURVE",
"305 610 CURVE",
"307 610 LINE",
"310 591 OFFCURVE",
"313 570 OFFCURVE",
"319 552 CURVE SMOOTH",
"424 254 LINE",
"185 254 LINE"
);
},
{
closed = 1;
nodes = (
"337 -175 OFFCURVE",
"350 -168 OFFCURVE",
"350 -153 CURVE SMOOTH",
"350 -102 LINE SMOOTH",
"350 -87 OFFCURVE",
"337 -80 OFFCURVE",
"307 -80 CURVE SMOOTH",
"277 -80 OFFCURVE",
"264 -87 OFFCURVE",
"264 -102 CURVE SMOOTH",
"264 -153 LINE SMOOTH",
"264 -168 OFFCURVE",
"277 -175 OFFCURVE",
"307 -175 CURVE"
);
}
);
width = 613;
},
{
anchors = (
{
name = bottom;
position = "{307, -185}";
},
{
name = ogonek;
position = "{590, 0}";
},
{
name = top;
position = "{307, 700}";
}
);
layerId = "2DCA4625-E4BE-49C6-A30F-EA66D600808E";
paths = (
{
closed = 1;
nodes = (
"101 -2 LINE SMOOTH",
"125 -2 OFFCURVE",
"142 4 OFFCURVE",
"147 19 CURVE SMOOTH",
"187 141 LINE",
"423 141 LINE",
"463 19 LINE SMOOTH",
"468 3 OFFCURVE",
"490 -2 OFFCURVE",
"519 -2 CURVE SMOOTH",
"563 -2 LINE SMOOTH",
"598 -2 OFFCURVE",
"613 6 OFFCURVE",
"613 20 CURVE SMOOTH",
"613 25 OFFCURVE",
"612 31 OFFCURVE",
"610 38 CURVE SMOOTH",
"390 681 LINE SMOOTH",
"385 695 OFFCURVE",
"367 702 OFFCURVE",
"333 702 CURVE SMOOTH",
"281 702 LINE SMOOTH",
"248 702 OFFCURVE",
"229 695 OFFCURVE",
"224 681 CURVE SMOOTH",
"4 38 LINE SMOOTH",
"2 31 OFFCURVE",
"0 25 OFFCURVE",
"0 20 CURVE SMOOTH",
"0 6 OFFCURVE",
"19 -2 OFFCURVE",
"61 -2 CURVE SMOOTH"
);
},
{
closed = 1;
nodes = (
"289 451 LINE SMOOTH",
"297 472 OFFCURVE",
"300 494 OFFCURVE",
"304 515 CURVE",
"308 515 LINE",
"312 494 OFFCURVE",
"316 472 OFFCURVE",
"323 451 CURVE SMOOTH",
"380 273 LINE",
"230 273 LINE"
);
},
{
closed = 1;
nodes = (
"350 -204 OFFCURVE",
"368 -193 OFFCURVE",
"368 -172 CURVE SMOOTH",
"368 -112 LINE SMOOTH",
"368 -91 OFFCURVE",
"350 -80 OFFCURVE",
"307 -80 CURVE SMOOTH",
"264 -80 OFFCURVE",
"246 -91 OFFCURVE",
"246 -112 CURVE SMOOTH",
"246 -172 LINE SMOOTH",
"246 -193 OFFCURVE",
"264 -204 OFFCURVE",
"307 -204 CURVE SMOOTH"
);
}
);
width = 613;
}
);
leftKerningGroup = A;
rightKerningGroup = A;
unicode = 1EA0;
},
{
glyphname = Agrave;
layers = (
{
anchors = (
{
name = bottom;
position = "{307, 0}";
},
{
name = ogonek;
position = "{576, 0}";
},
{
name = top;
position = "{307, 852}";
}
);
layerId = master01;
paths = (
{
closed = 1;
nodes = (
"60 -2 LINE SMOOTH",
"80 -2 OFFCURVE",
"96 2 OFFCURVE",
"100 14 CURVE SMOOTH",
"157 178 LINE",
"451 178 LINE",
"510 14 LINE SMOOTH",
"514 2 OFFCURVE",
"530 -2 OFFCURVE",
"550 -2 CURVE SMOOTH",
"558 -2 LINE SMOOTH",
"588 -2 OFFCURVE",
"601 5 OFFCURVE",
"601 15 CURVE SMOOTH",
"601 19 OFFCURVE",
"600 23 OFFCURVE",
"598 28 CURVE SMOOTH",
"361 686 LINE SMOOTH",
"358 697 OFFCURVE",
"344 702 OFFCURVE",
"321 702 CURVE SMOOTH",
"292 702 LINE SMOOTH",
"269 702 OFFCURVE",
"256 697 OFFCURVE",
"252 686 CURVE SMOOTH",
"15 29 LINE SMOOTH",
"13 23 OFFCURVE",
"12 19 OFFCURVE",
"12 15 CURVE SMOOTH",
"12 4 OFFCURVE",
"25 -2 OFFCURVE",
"55 -2 CURVE SMOOTH"
);
},
{
closed = 1;
nodes = (
"290 552 LINE SMOOTH",
"297 571 OFFCURVE",
"301 591 OFFCURVE",
"305 610 CURVE",
"307 610 LINE",
"310 591 OFFCURVE",
"313 570 OFFCURVE",
"319 552 CURVE SMOOTH",
"424 254 LINE",
"185 254 LINE"
);
},
{
closed = 1;
nodes = (
"383 752 OFFCURVE",
"393 757 OFFCURVE",
"393 765 CURVE SMOOTH",
"393 770 OFFCURVE",
"390 776 OFFCURVE",
"382 784 CURVE SMOOTH",
"328 841 LINE SMOOTH",
"311 859 OFFCURVE",
"294 864 OFFCURVE",
"252 864 CURVE SMOOTH",
"221 864 OFFCURVE",
"199 858 OFFCURVE",
"199 846 CURVE SMOOTH",
"199 835 OFFCURVE",
"204 828 OFFCURVE",
"239 806 CURVE SMOOTH",
"293 773 LINE SMOOTH",
"321 756 OFFCURVE",
"334 752 OFFCURVE",
"367 752 CURVE SMOOTH"
);
}
);
width = 613;
},
{
anchors = (
{
name = bottom;
position = "{307, 0}";
},
{
name = ogonek;
position = "{590, 0}";
},
{
name = top;
position = "{307, 862}";
}
);
layerId = "2DCA4625-E4BE-49C6-A30F-EA66D600808E";
paths = (
{
closed = 1;
nodes = (
"101 -2 LINE SMOOTH",
"125 -2 OFFCURVE",
"142 4 OFFCURVE",
"147 19 CURVE SMOOTH",
"187 141 LINE",
"423 141 LINE",
"463 19 LINE SMOOTH",
"468 3 OFFCURVE",
"490 -2 OFFCURVE",
"519 -2 CURVE SMOOTH",
"563 -2 LINE SMOOTH",
"598 -2 OFFCURVE",
"613 6 OFFCURVE",
"613 20 CURVE SMOOTH",
"613 25 OFFCURVE",
"612 31 OFFCURVE",
"610 38 CURVE SMOOTH",
"390 681 LINE SMOOTH",
"385 695 OFFCURVE",
"367 702 OFFCURVE",
"333 702 CURVE SMOOTH",
"281 702 LINE SMOOTH",
"248 702 OFFCURVE",
"229 695 OFFCURVE",
"224 681 CURVE SMOOTH",
"4 38 LINE SMOOTH",
"2 31 OFFCURVE",
"0 25 OFFCURVE",
"0 20 CURVE SMOOTH",
"0 6 OFFCURVE",
"19 -2 OFFCURVE",
"61 -2 CURVE SMOOTH"
);
},
{
closed = 1;
nodes = (
"289 451 LINE SMOOTH",
"297 472 OFFCURVE",
"300 494 OFFCURVE",
"304 515 CURVE",
"308 515 LINE",
"312 494 OFFCURVE",
"316 472 OFFCURVE",
"323 451 CURVE SMOOTH",
"380 273 LINE",
"230 273 LINE"
);
},
{
closed = 1;
nodes = (
"386 749 OFFCURVE",
"398 753 OFFCURVE",
"398 762 CURVE SMOOTH",
"398 767 OFFCURVE",
"395 774 OFFCURVE",
"385 785 CURVE SMOOTH",
"331 845 LINE SMOOTH",
"310 868 OFFCURVE",
"291 875 OFFCURVE",
"245 875 CURVE SMOOTH",
"198 875 OFFCURVE",
"174 872 OFFCURVE",
"174 857 CURVE SMOOTH",
"174 849 OFFCURVE",
"182 839 OFFCURVE",
"204 825 CURVE SMOOTH",
"290 768 LINE SMOOTH",
"312 754 OFFCURVE",
"326 749 OFFCURVE",
"360 749 CURVE SMOOTH"
);
}
);
width = 613;
}
);
leftKerningGroup = A;
rightKerningGroup = A;
unicode = 00C0;
},
{
glyphname = Ahookabove;
layers = (
{
anchors = (
{
name = bottom;
position = "{307, 0}";
},
{
name = ogonek;
position = "{576, 0}";
},
{
name = top;
position = "{307, 897}";
}
);
layerId = master01;
paths = (
{
closed = 1;
nodes = (
"60 -2 LINE SMOOTH",
"80 -2 OFFCURVE",
"96 2 OFFCURVE",
"100 14 CURVE SMOOTH",
"157 178 LINE",
"451 178 LINE",
"510 14 LINE SMOOTH",
"514 2 OFFCURVE",
"530 -2 OFFCURVE",
"550 -2 CURVE SMOOTH",
"558 -2 LINE SMOOTH",
"588 -2 OFFCURVE",
"601 5 OFFCURVE",
"601 15 CURVE SMOOTH",
"601 19 OFFCURVE",
"600 23 OFFCURVE",
"598 28 CURVE SMOOTH",
"361 686 LINE SMOOTH",
"358 697 OFFCURVE",
"344 702 OFFCURVE",
"321 702 CURVE SMOOTH",
"292 702 LINE SMOOTH",
"269 702 OFFCURVE",
"256 697 OFFCURVE",
"252 686 CURVE SMOOTH",
"15 29 LINE SMOOTH",
"13 23 OFFCURVE",
"12 19 OFFCURVE",
"12 15 CURVE SMOOTH",
"12 4 OFFCURVE",
"25 -2 OFFCURVE",
"55 -2 CURVE SMOOTH"
);
},
{
closed = 1;
nodes = (
"290 552 LINE SMOOTH",
"297 571 OFFCURVE",
"301 591 OFFCURVE",
"305 610 CURVE",
"307 610 LINE",
"310 591 OFFCURVE",
"313 570 OFFCURVE",
"319 552 CURVE SMOOTH",
"424 254 LINE",
"185 254 LINE"
);
},
{
closed = 1;
nodes = (
"313 738 OFFCURVE",
"407 771 OFFCURVE",
"407 834 CURVE SMOOTH",
"407 874 OFFCURVE",
"366 905 OFFCURVE",
"304 905 CURVE SMOOTH",
"263 905 OFFCURVE",
"206 887 OFFCURVE",
"206 874 CURVE SMOOTH",
"206 860 OFFCURVE",
"220 841 OFFCURVE",
"233 841 CURVE SMOOTH",
"248 841 OFFCURVE",
"267 854 OFFCURVE",
"302 854 CURVE SMOOTH",
"324 854 OFFCURVE",
"343 845 OFFCURVE",
"343 827 CURVE SMOOTH",
"343 796 OFFCURVE",
"255 783 OFFCURVE",
"255 771 CURVE SMOOTH",
"255 762 OFFCURVE",
"275 738 OFFCURVE",
"292 738 CURVE SMOOTH"
);
}
);
width = 613;
},
{
anchors = (
{
name = bottom;
position = "{307, 0}";
},
{
name = ogonek;
position = "{590, 0}";
},
{
name = top;
position = "{307, 897}";
}
);
layerId = "2DCA4625-E4BE-49C6-A30F-EA66D600808E";
paths = (
{
closed = 1;
nodes = (
"101 -2 LINE SMOOTH",
"125 -2 OFFCURVE",
"142 4 OFFCURVE",
"147 19 CURVE SMOOTH",
"187 141 LINE",
"423 141 LINE",
"463 19 LINE SMOOTH",
"468 3 OFFCURVE",
"490 -2 OFFCURVE",
"519 -2 CURVE SMOOTH",
"563 -2 LINE SMOOTH",
"598 -2 OFFCURVE",
"613 6 OFFCURVE",
"613 20 CURVE SMOOTH",
"613 25 OFFCURVE",
"612 31 OFFCURVE",
"610 38 CURVE SMOOTH",
"390 681 LINE SMOOTH",
"385 695 OFFCURVE",
"367 702 OFFCURVE",
"333 702 CURVE SMOOTH",
"281 702 LINE SMOOTH",
"248 702 OFFCURVE",
"229 695 OFFCURVE",
"224 681 CURVE SMOOTH",
"4 38 LINE SMOOTH",
"2 31 OFFCURVE",
"0 25 OFFCURVE",
"0 20 CURVE SMOOTH",
"0 6 OFFCURVE",
"19 -2 OFFCURVE",
"61 -2 CURVE SMOOTH"
);
},
{
closed = 1;
nodes = (
"289 451 LINE SMOOTH",
"297 472 OFFCURVE",
"300 494 OFFCURVE",
"304 515 CURVE",
"308 515 LINE",
"312 494 OFFCURVE",
"316 472 OFFCURVE",
"323 451 CURVE SMOOTH",
"380 273 LINE",
"230 273 LINE"
);
},
{
closed = 1;
nodes = (
"322 737 OFFCURVE",
"412 774 OFFCURVE",
"412 834 CURVE SMOOTH",
"412 882 OFFCURVE",
"369 913 OFFCURVE",
"300 913 CURVE SMOOTH",
"251 913 OFFCURVE",
"201 895 OFFCURVE",
"201 882 CURVE SMOOTH",
"201 862 OFFCURVE",
"219 840 OFFCURVE",
"232 840 CURVE SMOOTH",
"247 840 OFFCURVE",
"270 850 OFFCURVE",
"297 850 CURVE SMOOTH",
"314 850 OFFCURVE",
"329 845 OFFCURVE",
"329 830 CURVE SMOOTH",
"329 790 OFFCURVE",
"251 782 OFFCURVE",
"251 767 CURVE SMOOTH",
"251 754 OFFCURVE",
"279 737 OFFCURVE",
"299 737 CURVE SMOOTH"
);
}
);
width = 613;
}
);
leftKerningGroup = A;
rightKerningGroup = A;
unicode = 1EA2;
},
{
glyphname = Ainvertedbreve;
layers = (
{
anchors = (
{
name = bottom;
position = "{307, 0}";
},
{
name = ogonek;
position = "{576, 0}";
},
{
name = top;
position = "{307, 852}";
}
);
layerId = master01;
paths = (
{
closed = 1;
nodes = (
"60 -2 LINE SMOOTH",
"80 -2 OFFCURVE",
"96 2 OFFCURVE",
"100 14 CURVE SMOOTH",
"157 178 LINE",
"451 178 LINE",
"510 14 LINE SMOOTH",
"514 2 OFFCURVE",
"530 -2 OFFCURVE",
"550 -2 CURVE SMOOTH",
"558 -2 LINE SMOOTH",
"588 -2 OFFCURVE",
"601 5 OFFCURVE",
"601 15 CURVE SMOOTH",
"601 19 OFFCURVE",
"600 23 OFFCURVE",
"598 28 CURVE SMOOTH",
"361 686 LINE SMOOTH",
"358 697 OFFCURVE",
"344 702 OFFCURVE",
"321 702 CURVE SMOOTH",
"292 702 LINE SMOOTH",
"269 702 OFFCURVE",
"256 697 OFFCURVE",
"252 686 CURVE SMOOTH",
"15 29 LINE SMOOTH",
"13 23 OFFCURVE",
"12 19 OFFCURVE",
"12 15 CURVE SMOOTH",
"12 4 OFFCURVE",
"25 -2 OFFCURVE",
"55 -2 CURVE SMOOTH"
);
},
{
closed = 1;
nodes = (
"290 552 LINE SMOOTH",
"297 571 OFFCURVE",
"301 591 OFFCURVE",
"305 610 CURVE",
"307 610 LINE",
"310 591 OFFCURVE",
"313 570 OFFCURVE",
"319 552 CURVE SMOOTH",
"424 254 LINE",
"185 254 LINE"
);
},
{
closed = 1;
nodes = (
"387 885 OFFCURVE",
"457 847 OFFCURVE",
"457 780 CURVE SMOOTH",
"457 760 OFFCURVE",
"452 755 OFFCURVE",
"439 755 CURVE SMOOTH",
"429 755 OFFCURVE",
"423 757 OFFCURVE",
"420 767 CURVE SMOOTH",
"412 792 OFFCURVE",
"388 819 OFFCURVE",
"307 819 CURVE SMOOTH",
"226 819 OFFCURVE",
"202 792 OFFCURVE",
"194 767 CURVE SMOOTH",
"191 757 OFFCURVE",
"185 755 OFFCURVE",
"175 755 CURVE SMOOTH",
"162 755 OFFCURVE",
"157 760 OFFCURVE",
"157 780 CURVE SMOOTH",
"157 847 OFFCURVE",
"227 885 OFFCURVE",
"307 885 CURVE SMOOTH"
);
}
);
width = 613;
},
{
anchors = (
{
name = bottom;
position = "{307, 0}";
},
{
name = ogonek;
position = "{590, 0}";
},
{
name = top;
position = "{307, 862}";
}
);
layerId = "2DCA4625-E4BE-49C6-A30F-EA66D600808E";
paths = (
{
closed = 1;
nodes = (
"101 -2 LINE SMOOTH",
"125 -2 OFFCURVE",
"142 4 OFFCURVE",
"147 19 CURVE SMOOTH",
"187 141 LINE",
"423 141 LINE",
"463 19 LINE SMOOTH",
"468 3 OFFCURVE",
"490 -2 OFFCURVE",
"519 -2 CURVE SMOOTH",
"563 -2 LINE SMOOTH",
"598 -2 OFFCURVE",
"613 6 OFFCURVE",
"613 20 CURVE SMOOTH",
"613 25 OFFCURVE",
"612 31 OFFCURVE",
"610 38 CURVE SMOOTH",
"390 681 LINE SMOOTH",
"385 695 OFFCURVE",
"367 702 OFFCURVE",
"333 702 CURVE SMOOTH",
"281 702 LINE SMOOTH",
"248 702 OFFCURVE",
"229 695 OFFCURVE",
"224 681 CURVE SMOOTH",
"4 38 LINE SMOOTH",
"2 31 OFFCURVE",
"0 25 OFFCURVE",
"0 20 CURVE SMOOTH",
"0 6 OFFCURVE",
"19 -2 OFFCURVE",
"61 -2 CURVE SMOOTH"
);
},
{
closed = 1;
nodes = (
"289 451 LINE SMOOTH",
"297 472 OFFCURVE",
"300 494 OFFCURVE",
"304 515 CURVE",
"308 515 LINE",
"312 494 OFFCURVE",
"316 472 OFFCURVE",
"323 451 CURVE SMOOTH",
"380 273 LINE",
"230 273 LINE"
);
},
{
closed = 1;
nodes = (
"400 885 OFFCURVE",
"464 830 OFFCURVE",
"464 773 CURVE SMOOTH",
"464 755 OFFCURVE",
"451 745 OFFCURVE",
"429 745 CURVE SMOOTH",
"413 745 OFFCURVE",
"406 752 OFFCURVE",
"398 761 CURVE SMOOTH",
"386 775 OFFCURVE",
"368 794 OFFCURVE",
"307 794 CURVE SMOOTH",
"250 794 OFFCURVE",
"231 777 OFFCURVE",
"218 763 CURVE SMOOTH",
"209 753 OFFCURVE",
"202 745 OFFCURVE",
"185 745 CURVE SMOOTH",
"163 745 OFFCURVE",
"150 755 OFFCURVE",
"150 773 CURVE SMOOTH",
"150 830 OFFCURVE",
"214 885 OFFCURVE",
"307 885 CURVE SMOOTH"
);
}
);
width = 613;
}
);
leftKerningGroup = A;
rightKerningGroup = A;
unicode = 0202;
},
{
glyphname = Amacron;
layers = (
{
anchors = (
{
name = bottom;
position = "{307, 0}";
},
{
name = ogonek;
position = "{576, 0}";
},
{
name = top;
position = "{307, 835}";
}
);
layerId = master01;
paths = (
{
closed = 1;
nodes = (
"60 -2 LINE SMOOTH",
"80 -2 OFFCURVE",
"96 2 OFFCURVE",
"100 14 CURVE SMOOTH",
"157 178 LINE",
"451 178 LINE",
"510 14 LINE SMOOTH",
"514 2 OFFCURVE",
"530 -2 OFFCURVE",
"550 -2 CURVE SMOOTH",
"558 -2 LINE SMOOTH",
"588 -2 OFFCURVE",
"601 5 OFFCURVE",
"601 15 CURVE SMOOTH",
"601 19 OFFCURVE",
"600 23 OFFCURVE",
"598 28 CURVE SMOOTH",
"361 686 LINE SMOOTH",
"358 697 OFFCURVE",
"344 702 OFFCURVE",
"321 702 CURVE SMOOTH",
"292 702 LINE SMOOTH",
"269 702 OFFCURVE",
"256 697 OFFCURVE",
"252 686 CURVE SMOOTH",
"15 29 LINE SMOOTH",
"13 23 OFFCURVE",
"12 19 OFFCURVE",
"12 15 CURVE SMOOTH",
"12 4 OFFCURVE",
"25 -2 OFFCURVE",
"55 -2 CURVE SMOOTH"
);
},
{
closed = 1;
nodes = (
"290 552 LINE SMOOTH",
"297 571 OFFCURVE",
"301 591 OFFCURVE",
"305 610 CURVE",
"307 610 LINE",
"310 591 OFFCURVE",
"313 570 OFFCURVE",
"319 552 CURVE SMOOTH",
"424 254 LINE",
"185 254 LINE"
);
},
{
closed = 1;
nodes = (
"422 775 LINE SMOOTH",
"436 775 OFFCURVE",
"442 784 OFFCURVE",
"442 805 CURVE SMOOTH",
"442 815 LINE SMOOTH",
"442 836 OFFCURVE",
"436 845 OFFCURVE",
"422 845 CURVE SMOOTH",
"191 845 LINE SMOOTH",
"177 845 OFFCURVE",
"171 836 OFFCURVE",
"171 815 CURVE SMOOTH",
"171 805 LINE SMOOTH",
"171 784 OFFCURVE",
"177 775 OFFCURVE",
"191 775 CURVE SMOOTH"
);
}
);
width = 613;
},
{
anchors = (
{
name = bottom;
position = "{307, 0}";
},
{
name = ogonek;
position = "{590, 0}";
},
{
name = top;
position = "{307, 841}";
}
);
layerId = "2DCA4625-E4BE-49C6-A30F-EA66D600808E";
paths = (
{
closed = 1;
nodes = (
"101 -2 LINE SMOOTH",
"125 -2 OFFCURVE",
"142 4 OFFCURVE",
"147 19 CURVE SMOOTH",
"187 141 LINE",
"423 141 LINE",
"463 19 LINE SMOOTH",
"468 3 OFFCURVE",
"490 -2 OFFCURVE",
"519 -2 CURVE SMOOTH",
"563 -2 LINE SMOOTH",
"598 -2 OFFCURVE",
"613 6 OFFCURVE",
"613 20 CURVE SMOOTH",
"613 25 OFFCURVE",
"612 31 OFFCURVE",
"610 38 CURVE SMOOTH",
"390 681 LINE SMOOTH",
"385 695 OFFCURVE",
"367 702 OFFCURVE",
"333 702 CURVE SMOOTH",
"281 702 LINE SMOOTH",
"248 702 OFFCURVE",
"229 695 OFFCURVE",
"224 681 CURVE SMOOTH",
"4 38 LINE SMOOTH",
"2 31 OFFCURVE",
"0 25 OFFCURVE",
"0 20 CURVE SMOOTH",
"0 6 OFFCURVE",
"19 -2 OFFCURVE",
"61 -2 CURVE SMOOTH"
);
},
{
closed = 1;
nodes = (
"289 451 LINE SMOOTH",
"297 472 OFFCURVE",
"300 494 OFFCURVE",
"304 515 CURVE",
"308 515 LINE",
"312 494 OFFCURVE",
"316 472 OFFCURVE",
"323 451 CURVE SMOOTH",
"380 273 LINE",
"230 273 LINE"
);
},
{
closed = 1;
nodes = (
"442 766 LINE SMOOTH",
"463 766 OFFCURVE",
"472 778 OFFCURVE",
"472 806 CURVE SMOOTH",
"472 821 LINE SMOOTH",
"472 849 OFFCURVE",
"463 861 OFFCURVE",
"442 861 CURVE SMOOTH",
"171 861 LINE SMOOTH",
"150 861 OFFCURVE",
"141 849 OFFCURVE",
"141 821 CURVE SMOOTH",
"141 806 LINE SMOOTH",
"141 778 OFFCURVE",
"150 766 OFFCURVE",
"171 766 CURVE SMOOTH"
);
}
);
width = 613;
}
);
leftKerningGroup = A;
rightKerningGroup = A;
unicode = 0100;
},
{
glyphname = Aogonek;
layers = (
{
anchors = (
{
name = bottom;
position = "{307, 0}";
},
{
name = ogonek;
position = "{576, 0}";
},
{
name = top;
position = "{307, 700}";
}
);
layerId = master01;
paths = (
{
closed = 1;
nodes = (
"60 -2 LINE SMOOTH",
"80 -2 OFFCURVE",
"96 2 OFFCURVE",
"100 14 CURVE SMOOTH",
"157 178 LINE",
"451 178 LINE",
"510 14 LINE SMOOTH",
"514 2 OFFCURVE",
"530 -2 OFFCURVE",
"550 -2 CURVE SMOOTH",
"558 -2 LINE SMOOTH",
"588 -2 OFFCURVE",
"601 5 OFFCURVE",
"601 15 CURVE SMOOTH",
"601 19 OFFCURVE",
"600 23 OFFCURVE",
"598 28 CURVE SMOOTH",
"361 686 LINE SMOOTH",
"358 697 OFFCURVE",
"344 702 OFFCURVE",
"321 702 CURVE SMOOTH",
"292 702 LINE SMOOTH",
"269 702 OFFCURVE",
"256 697 OFFCURVE",
"252 686 CURVE SMOOTH",
"15 29 LINE SMOOTH",
"13 23 OFFCURVE",
"12 19 OFFCURVE",
"12 15 CURVE SMOOTH",
"12 4 OFFCURVE",
"25 -2 OFFCURVE",
"55 -2 CURVE SMOOTH"
);
},
{
closed = 1;
nodes = (
"290 552 LINE SMOOTH",
"297 571 OFFCURVE",
"301 591 OFFCURVE",
"305 610 CURVE",
"307 610 LINE",
"310 591 OFFCURVE",
"313 570 OFFCURVE",
"319 552 CURVE SMOOTH",
"424 254 LINE",
"185 254 LINE"
);
},
{
closed = 1;
nodes = (
"564 -183 OFFCURVE",
"617 -173 OFFCURVE",
"617 -142 CURVE SMOOTH",
"617 -120 OFFCURVE",
"607 -103 OFFCURVE",
"594 -103 CURVE SMOOTH",
"578 -103 OFFCURVE",
"569 -113 OFFCURVE",
"542 -113 CURVE SMOOTH",
"516 -113 OFFCURVE",
"503 -101 OFFCURVE",
"503 -83 CURVE SMOOTH",
"503 -56 OFFCURVE",
"528 -16 OFFCURVE",
"576 10 CURVE",
"526 17 LINE",
"463 -10 OFFCURVE",
"432 -60 OFFCURVE",
"432 -103 CURVE SMOOTH",
"432 -146 OFFCURVE",
"467 -183 OFFCURVE",
"535 -183 CURVE SMOOTH"
);
}
);
width = 613;
},
{
anchors = (
{
name = bottom;
position = "{307, 0}";
},
{
name = ogonek;
position = "{590, 0}";
},
{
name = top;
position = "{307, 700}";
}
);
layerId = "2DCA4625-E4BE-49C6-A30F-EA66D600808E";
paths = (
{
closed = 1;
nodes = (
"101 -2 LINE SMOOTH",
"125 -2 OFFCURVE",
"142 4 OFFCURVE",
"147 19 CURVE SMOOTH",
"187 141 LINE",
"423 141 LINE",
"463 19 LINE SMOOTH",
"468 3 OFFCURVE",
"490 -2 OFFCURVE",
"519 -2 CURVE SMOOTH",
"563 -2 LINE SMOOTH",
"598 -2 OFFCURVE",
"613 6 OFFCURVE",
"613 20 CURVE SMOOTH",
"613 25 OFFCURVE",
"612 31 OFFCURVE",
"610 38 CURVE SMOOTH",
"390 681 LINE SMOOTH",
"385 695 OFFCURVE",
"367 702 OFFCURVE",
"333 702 CURVE SMOOTH",
"281 702 LINE SMOOTH",
"248 702 OFFCURVE",
"229 695 OFFCURVE",
"224 681 CURVE SMOOTH",
"4 38 LINE SMOOTH",
"2 31 OFFCURVE",
"0 25 OFFCURVE",
"0 20 CURVE SMOOTH",
"0 6 OFFCURVE",
"19 -2 OFFCURVE",
"61 -2 CURVE SMOOTH"
);
},
{
closed = 1;
nodes = (
"289 451 LINE SMOOTH",
"297 472 OFFCURVE",
"300 494 OFFCURVE",
"304 515 CURVE",
"308 515 LINE",
"312 494 OFFCURVE",
"316 472 OFFCURVE",
"323 451 CURVE SMOOTH",
"380 273 LINE",
"230 273 LINE"
);
},
{
closed = 1;
nodes = (
"584 -196 OFFCURVE",
"621 -179 OFFCURVE",
"621 -151 CURVE SMOOTH",
"621 -133 OFFCURVE",
"616 -99 OFFCURVE",
"599 -99 CURVE SMOOTH",
"584 -99 OFFCURVE",
"573 -108 OFFCURVE",
"546 -108 CURVE SMOOTH",
"523 -108 OFFCURVE",
"511 -96 OFFCURVE",
"511 -79 CURVE SMOOTH",
"511 -53 OFFCURVE",
"535 -15 OFFCURVE",
"580 10 CURVE",
"525 17 LINE",
"458 -10 OFFCURVE",
"426 -60 OFFCURVE",
"426 -103 CURVE SMOOTH",
"426 -164 OFFCURVE",
"466 -196 OFFCURVE",
"533 -196 CURVE SMOOTH"
);
}
);
width = 613;
}
);
leftKerningGroup = A;
rightKerningGroup = A;
unicode = 0104;
},
{
glyphname = Aring;
layers = (
{
anchors = (
{
name = bottom;
position = "{307, 0}";
},
{
name = ogonek;
position = "{576, 0}";
},
{
name = top;
position = "{307, 877}";
}
);
layerId = master01;
paths = (
{
closed = 1;
nodes = (
"60 -2 LINE SMOOTH",
"80 -2 OFFCURVE",
"96 2 OFFCURVE",
"100 14 CURVE SMOOTH",
"157 178 LINE",
"451 178 LINE",
"510 14 LINE SMOOTH",
"514 2 OFFCURVE",
"530 -2 OFFCURVE",
"550 -2 CURVE SMOOTH",
"558 -2 LINE SMOOTH",
"588 -2 OFFCURVE",
"601 5 OFFCURVE",
"601 15 CURVE SMOOTH",
"601 19 OFFCURVE",
"600 23 OFFCURVE",
"598 28 CURVE SMOOTH",
"361 686 LINE SMOOTH",
"358 697 OFFCURVE",
"344 702 OFFCURVE",
"321 702 CURVE SMOOTH",
"292 702 LINE SMOOTH",
"269 702 OFFCURVE",
"256 697 OFFCURVE",
"252 686 CURVE SMOOTH",
"15 29 LINE SMOOTH",
"13 23 OFFCURVE",
"12 19 OFFCURVE",
"12 15 CURVE SMOOTH",
"12 4 OFFCURVE",
"25 -2 OFFCURVE",
"55 -2 CURVE SMOOTH"
);
},
{
closed = 1;
nodes = (
"290 552 LINE SMOOTH",
"297 571 OFFCURVE",
"301 591 OFFCURVE",
"305 610 CURVE",
"307 610 LINE",
"310 591 OFFCURVE",
"313 570 OFFCURVE",
"319 552 CURVE SMOOTH",
"424 254 LINE",
"185 254 LINE"
);
},
{
closed = 1;
nodes = (
"354 747 OFFCURVE",
"391 783 OFFCURVE",
"391 831 CURVE SMOOTH",
"391 879 OFFCURVE",
"354 916 OFFCURVE",
"306 916 CURVE SMOOTH",
"258 916 OFFCURVE",
"222 879 OFFCURVE",
"222 831 CURVE SMOOTH",
"222 783 OFFCURVE",
"258 747 OFFCURVE",
"306 747 CURVE SMOOTH"
);
},
{
closed = 1;
nodes = (
"284 792 OFFCURVE",
"267 809 OFFCURVE",
"267 831 CURVE SMOOTH",
"267 854 OFFCURVE",
"284 871 OFFCURVE",
"306 871 CURVE SMOOTH",
"329 871 OFFCURVE",
"346 854 OFFCURVE",
"346 831 CURVE SMOOTH",
"346 809 OFFCURVE",
"329 792 OFFCURVE",
"306 792 CURVE SMOOTH"
);
}
);
width = 613;
},
{
anchors = (
{
name = bottom;
position = "{307, 0}";
},
{
name = ogonek;
position = "{590, 0}";
},
{
name = top;
position = "{307, 892}";
}
);
layerId = "2DCA4625-E4BE-49C6-A30F-EA66D600808E";
paths = (
{
closed = 1;
nodes = (
"101 -2 LINE SMOOTH",
"125 -2 OFFCURVE",
"142 4 OFFCURVE",
"147 19 CURVE SMOOTH",
"187 141 LINE",
"423 141 LINE",
"463 19 LINE SMOOTH",
"468 3 OFFCURVE",
"490 -2 OFFCURVE",
"519 -2 CURVE SMOOTH",
"563 -2 LINE SMOOTH",
"598 -2 OFFCURVE",
"613 6 OFFCURVE",
"613 20 CURVE SMOOTH",
"613 25 OFFCURVE",
"612 31 OFFCURVE",
"610 38 CURVE SMOOTH",
"390 681 LINE SMOOTH",
"385 695 OFFCURVE",
"367 702 OFFCURVE",
"333 702 CURVE SMOOTH",
"281 702 LINE SMOOTH",
"248 702 OFFCURVE",
"229 695 OFFCURVE",
"224 681 CURVE SMOOTH",
"4 38 LINE SMOOTH",
"2 31 OFFCURVE",
"0 25 OFFCURVE",
"0 20 CURVE SMOOTH",
"0 6 OFFCURVE",
"19 -2 OFFCURVE",
"61 -2 CURVE SMOOTH"
);
},
{
closed = 1;
nodes = (
"289 451 LINE SMOOTH",
"297 472 OFFCURVE",
"300 494 OFFCURVE",
"304 515 CURVE",
"308 515 LINE",
"312 494 OFFCURVE",
"316 472 OFFCURVE",
"323 451 CURVE SMOOTH",
"380 273 LINE",
"230 273 LINE"
);
},
{
closed = 1;
nodes = (
"363 718 OFFCURVE",
"406 761 OFFCURVE",
"406 817 CURVE SMOOTH",
"406 874 OFFCURVE",
"363 917 OFFCURVE",
"306 917 CURVE SMOOTH",
"250 917 OFFCURVE",
"207 874 OFFCURVE",
"207 817 CURVE SMOOTH",
"207 761 OFFCURVE",
"250 718 OFFCURVE",
"306 718 CURVE SMOOTH"
);
},
{
closed = 1;
nodes = (
"287 782 OFFCURVE",
"272 797 OFFCURVE",
"272 816 CURVE SMOOTH",
"272 836 OFFCURVE",
"287 851 OFFCURVE",
"306 851 CURVE SMOOTH",
"326 851 OFFCURVE",
"341 836 OFFCURVE",
"341 816 CURVE SMOOTH",
"341 797 OFFCURVE",
"326 782 OFFCURVE",
"306 782 CURVE SMOOTH"
);
}
);
width = 613;
}
);
leftKerningGroup = A;
rightKerningGroup = A;
unicode = 00C5;
},
{
glyphname = Aringacute;
layers = (
{
anchors = (
{
name = _top;
position = "{306, 593}";
},
{
name = top;
position = "{325, 916}";
}
);
layerId = master01;
paths = (
{
closed = 1;
nodes = (
"60 -2 LINE SMOOTH",
"80 -2 OFFCURVE",
"96 2 OFFCURVE",
"100 14 CURVE SMOOTH",
"157 178 LINE",
"451 178 LINE",
"510 14 LINE SMOOTH",
"514 2 OFFCURVE",
"530 -2 OFFCURVE",
"550 -2 CURVE SMOOTH",
"558 -2 LINE SMOOTH",
"588 -2 OFFCURVE",
"601 5 OFFCURVE",
"601 15 CURVE SMOOTH",
"601 19 OFFCURVE",
"600 23 OFFCURVE",
"598 28 CURVE SMOOTH",
"369 665 LINE SMOOTH",
"363 681 OFFCURVE",
"337 655 OFFCURVE",
"321 655 CURVE SMOOTH",
"292 655 LINE SMOOTH",
"276 655 OFFCURVE",
"252 683 OFFCURVE",
"244 665 CURVE SMOOTH",
"15 29 LINE SMOOTH",
"13 23 OFFCURVE",
"12 19 OFFCURVE",
"12 15 CURVE SMOOTH",
"12 4 OFFCURVE",
"25 -2 OFFCURVE",
"55 -2 CURVE SMOOTH"
);
},
{
closed = 1;
nodes = (
"290 552 LINE SMOOTH",
"297 571 OFFCURVE",
"301 591 OFFCURVE",
"305 610 CURVE",
"307 610 LINE",
"310 591 OFFCURVE",
"313 570 OFFCURVE",
"319 552 CURVE SMOOTH",
"424 254 LINE",
"185 254 LINE"
);
},
{
closed = 1;
nodes = (
"353 640 OFFCURVE",
"390 676 OFFCURVE",
"390 724 CURVE SMOOTH",
"390 772 OFFCURVE",
"353 809 OFFCURVE",
"305 809 CURVE SMOOTH",
"257 809 OFFCURVE",
"221 772 OFFCURVE",
"221 724 CURVE SMOOTH",
"221 676 OFFCURVE",
"257 640 OFFCURVE",
"305 640 CURVE SMOOTH"
);
},
{
closed = 1;
nodes = (
"283 685 OFFCURVE",
"266 702 OFFCURVE",
"266 724 CURVE SMOOTH",
"266 747 OFFCURVE",
"283 764 OFFCURVE",
"305 764 CURVE SMOOTH",
"328 764 OFFCURVE",
"345 747 OFFCURVE",
"345 724 CURVE SMOOTH",
"345 702 OFFCURVE",
"328 685 OFFCURVE",
"305 685 CURVE SMOOTH"
);
},
{
closed = 1;
nodes = (
"298 816 OFFCURVE",
"311 820 OFFCURVE",
"339 837 CURVE SMOOTH",
"393 870 LINE SMOOTH",
"428 892 OFFCURVE",
"433 899 OFFCURVE",
"433 910 CURVE SMOOTH",
"433 922 OFFCURVE",
"411 928 OFFCURVE",
"380 928 CURVE SMOOTH",
"338 928 OFFCURVE",
"321 923 OFFCURVE",
"304 905 CURVE SMOOTH",
"250 848 LINE SMOOTH",
"242 840 OFFCURVE",
"239 834 OFFCURVE",
"239 829 CURVE SMOOTH",
"239 821 OFFCURVE",
"249 816 OFFCURVE",
"265 816 CURVE SMOOTH"
);
}
);
width = 613;
},
{
anchors = (
{
name = _top;
position = "{309, 578}";
},
{
name = top;
position = "{319, 935}";
}
);
layerId = "2DCA4625-E4BE-49C6-A30F-EA66D600808E";
paths = (
{
closed = 1;
nodes = (
"101 -2 LINE SMOOTH",
"125 -2 OFFCURVE",
"142 4 OFFCURVE",
"147 19 CURVE SMOOTH",
"187 141 LINE",
"423 141 LINE",
"463 19 LINE SMOOTH",
"468 3 OFFCURVE",
"490 -2 OFFCURVE",
"519 -2 CURVE SMOOTH",
"563 -2 LINE SMOOTH",
"598 -2 OFFCURVE",
"613 6 OFFCURVE",
"613 20 CURVE SMOOTH",
"613 25 OFFCURVE",
"612 31 OFFCURVE",
"610 38 CURVE SMOOTH",
"395 666 LINE SMOOTH",
"387 690 OFFCURVE",
"354 656 OFFCURVE",
"333 656 CURVE SMOOTH",
"281 656 LINE SMOOTH",
"260 656 OFFCURVE",
"230 700 OFFCURVE",
"218 666 CURVE SMOOTH",
"4 38 LINE SMOOTH",
"2 31 OFFCURVE",
"0 25 OFFCURVE",
"0 20 CURVE SMOOTH",
"0 6 OFFCURVE",
"19 -2 OFFCURVE",
"61 -2 CURVE SMOOTH"
);
},
{
closed = 1;
nodes = (
"289 451 LINE SMOOTH",
"296.5 472 OFFCURVE",
"300 494 OFFCURVE",
"304 515 CURVE",
"308 515 LINE",
"312 494 OFFCURVE",
"316 472 OFFCURVE",
"323 451 CURVE SMOOTH",
"380 273 LINE",
"230 273 LINE"
);
},
{
closed = 1;
nodes = (
"365 596 OFFCURVE",
"408 639 OFFCURVE",
"408 695 CURVE SMOOTH",
"408 752 OFFCURVE",
"365 795 OFFCURVE",
"308 795 CURVE SMOOTH",
"252 795 OFFCURVE",
"209 752 OFFCURVE",
"209 695 CURVE SMOOTH",
"209 639 OFFCURVE",
"252 596 OFFCURVE",
"308 596 CURVE SMOOTH"
);
},
{
closed = 1;
nodes = (
"289 660 OFFCURVE",
"274 675 OFFCURVE",
"274 694 CURVE SMOOTH",
"274 714 OFFCURVE",
"289 729 OFFCURVE",
"308 729 CURVE SMOOTH",
"328 729 OFFCURVE",
"343 714 OFFCURVE",
"343 694 CURVE SMOOTH",
"343 675 OFFCURVE",
"328 660 OFFCURVE",
"308 660 CURVE SMOOTH"
);
},
{
closed = 1;
nodes = (
"299 822 OFFCURVE",
"314 826 OFFCURVE",
"335 841 CURVE SMOOTH",
"421 897 LINE SMOOTH",
"442 911 OFFCURVE",
"451 922 OFFCURVE",
"451 930 CURVE SMOOTH",
"451 945 OFFCURVE",
"427 948 OFFCURVE",
"380 948 CURVE SMOOTH",
"334 948 OFFCURVE",
"315 941 OFFCURVE",
"294 918 CURVE SMOOTH",
"240 858 LINE SMOOTH",
"230 847 OFFCURVE",
"227 840 OFFCURVE",
"227 835 CURVE SMOOTH",
"227 826 OFFCURVE",
"239 822 OFFCURVE",
"265 822 CURVE SMOOTH"
);
}
);
width = 613;
}
);
leftKerningGroup = A;
rightKerningGroup = A;
unicode = 01FA;
},
{
glyphname = Atilde;
layers = (
{
anchors = (
{
name = bottom;
position = "{307, 0}";
},
{
name = ogonek;
position = "{576, 0}";
},
{
name = top;
position = "{307, 837}";
}
);
layerId = master01;
paths = (
{
closed = 1;
nodes = (
"60 -2 LINE SMOOTH",
"80 -2 OFFCURVE",
"96 2 OFFCURVE",
"100 14 CURVE SMOOTH",
"157 178 LINE",
"451 178 LINE",
"510 14 LINE SMOOTH",
"514 2 OFFCURVE",
"530 -2 OFFCURVE",
"550 -2 CURVE SMOOTH",
"558 -2 LINE SMOOTH",
"588 -2 OFFCURVE",
"601 5 OFFCURVE",
"601 15 CURVE SMOOTH",
"601 19 OFFCURVE",
"600 23 OFFCURVE",
"598 28 CURVE SMOOTH",
"361 686 LINE SMOOTH",
"358 697 OFFCURVE",
"344 702 OFFCURVE",
"321 702 CURVE SMOOTH",
"292 702 LINE SMOOTH",
"269 702 OFFCURVE",
"256 697 OFFCURVE",
"252 686 CURVE SMOOTH",
"15 29 LINE SMOOTH",
"13 23 OFFCURVE",
"12 19 OFFCURVE",
"12 15 CURVE SMOOTH",
"12 4 OFFCURVE",
"25 -2 OFFCURVE",
"55 -2 CURVE SMOOTH"
);
},
{
closed = 1;
nodes = (
"290 552 LINE SMOOTH",
"297 571 OFFCURVE",
"301 591 OFFCURVE",
"305 610 CURVE",
"307 610 LINE",
"310 591 OFFCURVE",
"313 570 OFFCURVE",
"319 552 CURVE SMOOTH",
"424 254 LINE",
"185 254 LINE"
);
},
{
closed = 1;
nodes = (
"174 756 OFFCURVE",
"182 799 OFFCURVE",
"225 799 CURVE SMOOTH",
"268 799 OFFCURVE",
"326 756 OFFCURVE",
"387 756 CURVE SMOOTH",
"429 756 OFFCURVE",
"461 779 OFFCURVE",
"484 825 CURVE SMOOTH",
"487 831 OFFCURVE",
"488 835 OFFCURVE",
"488 838 CURVE SMOOTH",
"488 850 OFFCURVE",
"469 861 OFFCURVE",
"458 861 CURVE SMOOTH",
"441 861 OFFCURVE",
"428 818 OFFCURVE",
"385 818 CURVE SMOOTH",
"342 818 OFFCURVE",
"284 861 OFFCURVE",
"226 861 CURVE SMOOTH",
"183 861 OFFCURVE",
"146 835 OFFCURVE",
"128 790 CURVE SMOOTH",
"126 785 OFFCURVE",
"125 781 OFFCURVE",
"125 777 CURVE SMOOTH",
"125 765 OFFCURVE",
"145 756 OFFCURVE",
"156 756 CURVE SMOOTH"
);
}
);
width = 613;
},
{
anchors = (
{
name = bottom;
position = "{307, 0}";
},
{
name = ogonek;
position = "{590, 0}";
},
{
name = top;
position = "{307, 847}";
}
);
layerId = "2DCA4625-E4BE-49C6-A30F-EA66D600808E";
paths = (
{
closed = 1;
nodes = (
"101 -2 LINE SMOOTH",
"125 -2 OFFCURVE",
"142 4 OFFCURVE",
"147 19 CURVE SMOOTH",
"187 141 LINE",
"423 141 LINE",
"463 19 LINE SMOOTH",
"468 3 OFFCURVE",
"490 -2 OFFCURVE",
"519 -2 CURVE SMOOTH",
"563 -2 LINE SMOOTH",
"598 -2 OFFCURVE",
"613 6 OFFCURVE",
"613 20 CURVE SMOOTH",
"613 25 OFFCURVE",
"612 31 OFFCURVE",
"610 38 CURVE SMOOTH",
"390 681 LINE SMOOTH",
"385 695 OFFCURVE",
"367 702 OFFCURVE",
"333 702 CURVE SMOOTH",
"281 702 LINE SMOOTH",
"248 702 OFFCURVE",
"229 695 OFFCURVE",
"224 681 CURVE SMOOTH",
"4 38 LINE SMOOTH",
"2 31 OFFCURVE",
"0 25 OFFCURVE",
"0 20 CURVE SMOOTH",
"0 6 OFFCURVE",
"19 -2 OFFCURVE",
"61 -2 CURVE SMOOTH"
);
},
{
closed = 1;
nodes = (
"289 451 LINE SMOOTH",
"297 472 OFFCURVE",
"300 494 OFFCURVE",
"304 515 CURVE",
"308 515 LINE",
"312 494 OFFCURVE",
"316 472 OFFCURVE",
"323 451 CURVE SMOOTH",
"380 273 LINE",
"230 273 LINE"
);
},
{
closed = 1;
nodes = (
"187 750 OFFCURVE",
"197 782 OFFCURVE",
"231 782 CURVE SMOOTH",
"267 782 OFFCURVE",
"330 753 OFFCURVE",
"375 753 CURVE SMOOTH",
"432 753 OFFCURVE",
"465 791 OFFCURVE",
"479 817 CURVE SMOOTH",
"484 826 OFFCURVE",
"487 835 OFFCURVE",
"487 840 CURVE SMOOTH",
"487 854 OFFCURVE",
"459 873 OFFCURVE",
"444 873 CURVE SMOOTH",
"426 873 OFFCURVE",
"412 842 OFFCURVE",
"379 842 CURVE SMOOTH",
"346 842 OFFCURVE",
"282 871 OFFCURVE",
"238 871 CURVE SMOOTH",
"181 871 OFFCURVE",
"150 837 OFFCURVE",
"135 805 CURVE SMOOTH",
"131 797 OFFCURVE",
"127 787 OFFCURVE",
"127 778 CURVE SMOOTH",
"127 764 OFFCURVE",
"158 750 OFFCURVE",
"170 750 CURVE SMOOTH"
);
}
);
width = 613;
}
);
leftKerningGroup = A;
rightKerningGroup = A;
unicode = 00C3;
},
{
glyphname = AE;
layers = (
{
anchors = (
{
name = top;
position = "{539, 700}";
}
);
layerId = master01;
paths = (
{
closed = 1;
nodes = (
"35 -2 LINE SMOOTH",
"54 -2 OFFCURVE",
"70 3 OFFCURVE",
"75 14 CURVE SMOOTH",
"155 178 LINE",
"450 178 LINE",
"482 29 LINE SMOOTH",
"486 9 OFFCURVE",
"497 0 OFFCURVE",
"518 0 CURVE SMOOTH",
"805 0 LINE SMOOTH",
"819 0 OFFCURVE",
"825 9 OFFCURVE",
"825 30 CURVE SMOOTH",
"825 46 LINE SMOOTH",
"825 67 OFFCURVE",
"819 76 OFFCURVE",
"805 76 CURVE SMOOTH",
"561 76 LINE",
"508 320 LINE",
"774 320 LINE SMOOTH",
"788 320 OFFCURVE",
"794 329 OFFCURVE",
"794 350 CURVE SMOOTH",
"794 366 LINE SMOOTH",
"794 387 OFFCURVE",
"788 396 OFFCURVE",
"774 396 CURVE SMOOTH",
"492 396 LINE",
"442 624 LINE",
"804 624 LINE SMOOTH",
"818 624 OFFCURVE",
"824 633 OFFCURVE",
"824 654 CURVE SMOOTH",
"824 670 LINE SMOOTH",
"824 691 OFFCURVE",
"818 700 OFFCURVE",
"804 700 CURVE SMOOTH",
"359 700 LINE SMOOTH",
"338 700 OFFCURVE",
"325 692 OFFCURVE",
"316 673 CURVE SMOOTH",
"-5 31 LINE SMOOTH",
"-8 25 OFFCURVE",
"-9 19 OFFCURVE",
"-9 15 CURVE SMOOTH",
"-9 4 OFFCURVE",
"0 -2 OFFCURVE",
"30 -2 CURVE SMOOTH"
);
},
{
closed = 1;
nodes = (
"342 552 LINE",
"363 610 LINE",
"365 610 LINE",
"369 552 LINE",
"433 253 LINE",
"194 253 LINE"
);
}
);
width = 915;
},
{
anchors = (
{
name = top;
position = "{557, 700}";
}
);
layerId = "2DCA4625-E4BE-49C6-A30F-EA66D600808E";
paths = (
{
closed = 1;
nodes = (
"99 -2 LINE SMOOTH",
"123 -2 OFFCURVE",
"138 5 OFFCURVE",
"145 19 CURVE SMOOTH",
"205 141 LINE",
"448 141 LINE",
"469 30 LINE SMOOTH",
"473 9 OFFCURVE",
"482 0 OFFCURVE",
"504 0 CURVE SMOOTH",
"835 0 LINE SMOOTH",
"856 0 OFFCURVE",
"865 15 OFFCURVE",
"865 50 CURVE SMOOTH",
"865 81 LINE SMOOTH",
"865 116 OFFCURVE",
"856 131 OFFCURVE",
"835 131 CURVE SMOOTH",
"602 131 LINE",
"571 293 LINE",
"807 293 LINE SMOOTH",
"828 293 OFFCURVE",
"837 308 OFFCURVE",
"837 343 CURVE SMOOTH",
"837 374 LINE SMOOTH",
"837 409 OFFCURVE",
"828 424 OFFCURVE",
"807 424 CURVE SMOOTH",
"545 424 LINE",
"517 569 LINE",
"834 569 LINE SMOOTH",
"855 569 OFFCURVE",
"864 584 OFFCURVE",
"864 619 CURVE SMOOTH",
"864 650 LINE SMOOTH",
"864 685 OFFCURVE",
"855 700 OFFCURVE",
"834 700 CURVE SMOOTH",
"370 700 LINE SMOOTH",
"349 700 OFFCURVE",
"336 692 OFFCURVE",
"326 673 CURVE SMOOTH",
"5 38 LINE SMOOTH",
"2 32 OFFCURVE",
"1 25 OFFCURVE",
"1 20 CURVE SMOOTH",
"1 6 OFFCURVE",
"20 -2 OFFCURVE",
"62 -2 CURVE SMOOTH"
);
},
{
closed = 1;
nodes = (
"359 455 LINE",
"387 537 LINE",
"391 537 LINE",
"391 454 LINE",
"424 273 LINE",
"270 273 LINE"
);
}
);
width = 915;
}
);
leftKerningGroup = AE;
rightKerningGroup = E;
unicode = 00C6;
},
{
glyphname = AEacute;
layers = (
{
anchors = (
{
name = top;
position = "{539, 852}";
}
);
layerId = master01;
paths = (
{
closed = 1;
nodes = (
"35 -2 LINE SMOOTH",
"54 -2 OFFCURVE",
"70 3 OFFCURVE",
"75 14 CURVE SMOOTH",
"155 178 LINE",
"450 178 LINE",
"482 29 LINE SMOOTH",
"486 9 OFFCURVE",
"497 0 OFFCURVE",
"518 0 CURVE SMOOTH",
"805 0 LINE SMOOTH",
"819 0 OFFCURVE",
"825 9 OFFCURVE",
"825 30 CURVE SMOOTH",
"825 46 LINE SMOOTH",
"825 67 OFFCURVE",
"819 76 OFFCURVE",
"805 76 CURVE SMOOTH",
"561 76 LINE",
"508 320 LINE",
"774 320 LINE SMOOTH",
"788 320 OFFCURVE",
"794 329 OFFCURVE",
"794 350 CURVE SMOOTH",
"794 366 LINE SMOOTH",
"794 387 OFFCURVE",
"788 396 OFFCURVE",
"774 396 CURVE SMOOTH",
"492 396 LINE",
"442 624 LINE",
"804 624 LINE SMOOTH",
"818 624 OFFCURVE",
"824 633 OFFCURVE",
"824 654 CURVE SMOOTH",
"824 670 LINE SMOOTH",
"824 691 OFFCURVE",
"818 700 OFFCURVE",
"804 700 CURVE SMOOTH",
"359 700 LINE SMOOTH",
"338 700 OFFCURVE",
"325 692 OFFCURVE",
"316 673 CURVE SMOOTH",
"-5 31 LINE SMOOTH",
"-8 25 OFFCURVE",
"-9 19 OFFCURVE",
"-9 15 CURVE SMOOTH",
"-9 4 OFFCURVE",
"0 -2 OFFCURVE",
"30 -2 CURVE SMOOTH"
);
},
{
closed = 1;
nodes = (
"342 552 LINE",
"363 610 LINE",
"365 610 LINE",
"369 552 LINE",
"433 253 LINE",
"194 253 LINE"
);
},
{
closed = 1;
nodes = (
"512 752 OFFCURVE",
"525 756 OFFCURVE",
"553 773 CURVE SMOOTH",
"607 806 LINE SMOOTH",
"642 828 OFFCURVE",
"647 835 OFFCURVE",
"647 846 CURVE SMOOTH",
"647 858 OFFCURVE",
"625 864 OFFCURVE",
"594 864 CURVE SMOOTH",
"552 864 OFFCURVE",
"535 859 OFFCURVE",
"518 841 CURVE SMOOTH",
"464 784 LINE SMOOTH",
"456 776 OFFCURVE",
"453 770 OFFCURVE",
"453 765 CURVE SMOOTH",
"453 757 OFFCURVE",
"463 752 OFFCURVE",
"479 752 CURVE SMOOTH"
);
}
);
width = 915;
},
{
anchors = (
{
name = top;
position = "{557, 862}";
}
);
layerId = "2DCA4625-E4BE-49C6-A30F-EA66D600808E";
paths = (
{
closed = 1;
nodes = (
"99 -2 LINE SMOOTH",
"123 -2 OFFCURVE",
"138 5 OFFCURVE",
"145 19 CURVE SMOOTH",
"205 141 LINE",
"448 141 LINE",
"469 30 LINE SMOOTH",
"473 9 OFFCURVE",
"482 0 OFFCURVE",
"504 0 CURVE SMOOTH",
"835 0 LINE SMOOTH",
"856 0 OFFCURVE",
"865 15 OFFCURVE",
"865 50 CURVE SMOOTH",
"865 81 LINE SMOOTH",
"865 116 OFFCURVE",
"856 131 OFFCURVE",
"835 131 CURVE SMOOTH",
"602 131 LINE",
"571 293 LINE",
"807 293 LINE SMOOTH",
"828 293 OFFCURVE",
"837 308 OFFCURVE",
"837 343 CURVE SMOOTH",
"837 374 LINE SMOOTH",
"837 409 OFFCURVE",
"828 424 OFFCURVE",
"807 424 CURVE SMOOTH",
"545 424 LINE",
"517 569 LINE",
"834 569 LINE SMOOTH",
"855 569 OFFCURVE",
"864 584 OFFCURVE",
"864 619 CURVE SMOOTH",
"864 650 LINE SMOOTH",
"864 685 OFFCURVE",
"855 700 OFFCURVE",
"834 700 CURVE SMOOTH",
"370 700 LINE SMOOTH",
"349 700 OFFCURVE",
"336 692 OFFCURVE",
"326 673 CURVE SMOOTH",
"5 38 LINE SMOOTH",
"2 32 OFFCURVE",
"1 25 OFFCURVE",
"1 20 CURVE SMOOTH",
"1 6 OFFCURVE",
"20 -2 OFFCURVE",
"62 -2 CURVE SMOOTH"
);
},
{
closed = 1;
nodes = (
"359 455 LINE",
"387 537 LINE",
"391 537 LINE",
"391 454 LINE",
"424 273 LINE",
"270 273 LINE"
);
},
{
closed = 1;
nodes = (
"537 749 OFFCURVE",
"552 753 OFFCURVE",
"573 768 CURVE SMOOTH",
"659 824 LINE SMOOTH",
"680 838 OFFCURVE",
"689 849 OFFCURVE",
"689 857 CURVE SMOOTH",
"689 872 OFFCURVE",
"665 875 OFFCURVE",
"618 875 CURVE SMOOTH",
"572 875 OFFCURVE",
"553 868 OFFCURVE",
"532 845 CURVE SMOOTH",
"478 785 LINE SMOOTH",
"468 774 OFFCURVE",
"465 767 OFFCURVE",
"465 762 CURVE SMOOTH",
"465 753 OFFCURVE",
"477 749 OFFCURVE",
"503 749 CURVE SMOOTH"
);
}
);
width = 915;
}
);
leftKerningGroup = AE;
rightKerningGroup = E;
unicode = 01FC;
},
{
glyphname = B;
layers = (
{
anchors = (
{
name = bottom;
position = "{297, 0}";
},
{
name = top;
position = "{297, 700}";
}
);
layerId = master01;
paths = (
{
closed = 1;
nodes = (
"299 0 LINE SMOOTH",
"467 0 OFFCURVE",
"560 62 OFFCURVE",
"560 201 CURVE SMOOTH",
"560 333 OFFCURVE",
"420 367 OFFCURVE",
"420 367 CURVE",
"420 371 LINE",
"478 387 OFFCURVE",
"530 456 OFFCURVE",
"530 523 CURVE SMOOTH",
"530 628 OFFCURVE",
"455 700 OFFCURVE",
"306 700 CURVE SMOOTH",
"127 700 LINE SMOOTH",
"106 700 OFFCURVE",
"97 691 OFFCURVE",
"97 670 CURVE SMOOTH",
"97 30 LINE SMOOTH",
"97 9 OFFCURVE",
"106 0 OFFCURVE",
"127 0 CURVE SMOOTH"
);
},
{
closed = 1;
nodes = (
"185 322 LINE",
"314 322 LINE SMOOTH",
"417 322 OFFCURVE",
"469 278 OFFCURVE",
"469 205 CURVE SMOOTH",
"469 126 OFFCURVE",
"420 76 OFFCURVE",
"331 76 CURVE SMOOTH",
"185 76 LINE"
);
},
{
closed = 1;
nodes = (
"185 624 LINE",
"297 624 LINE SMOOTH",
"397 624 OFFCURVE",
"439 589 OFFCURVE",
"439 515 CURVE SMOOTH",
"439 450 OFFCURVE",
"382 398 OFFCURVE",
"301 398 CURVE SMOOTH",
"185 398 LINE"
);
}
);
width = 593;
},
{
anchors = (
{
name = bottom;
position = "{304, 0}";
},
{
name = top;
position = "{304, 700}";
}
);
layerId = "2DCA4625-E4BE-49C6-A30F-EA66D600808E";
paths = (
{
closed = 1;
nodes = (
"328 0 LINE SMOOTH",
"497 0 OFFCURVE",
"578 74 OFFCURVE",
"578 203 CURVE SMOOTH",
"578 280 OFFCURVE",
"523 351 OFFCURVE",
"443 367 CURVE",
"442 371 LINE",
"502 396 OFFCURVE",
"550 455 OFFCURVE",
"550 523 CURVE SMOOTH",
"550 628 OFFCURVE",
"483 700 OFFCURVE",
"314 700 CURVE SMOOTH",
"116 700 LINE SMOOTH",
"88 700 OFFCURVE",
"76 688 OFFCURVE",
"76 660 CURVE SMOOTH",
"76 40 LINE SMOOTH",
"76 12 OFFCURVE",
"88 0 OFFCURVE",
"116 0 CURVE SMOOTH"
);
},
{
closed = 1;
nodes = (
"230 290 LINE",
"312 290 LINE SMOOTH",
"381 290 OFFCURVE",
"420 264 OFFCURVE",
"420 212 CURVE SMOOTH",
"420 160 OFFCURVE",
"386 131 OFFCURVE",
"328 131 CURVE SMOOTH",
"230 131 LINE"
);
},
{
closed = 1;
nodes = (
"230 570 LINE",
"301 570 LINE SMOOTH",
"362 570 OFFCURVE",
"392 545 OFFCURVE",
"392 496 CURVE SMOOTH",
"392 454 OFFCURVE",
"359 421 OFFCURVE",
"299 421 CURVE SMOOTH",
"230 421 LINE"
);
}
);
width = 593;
}
);
leftKerningGroup = H;
rightKerningGroup = B;
unicode = 0042;
},
{
glyphname = C;
layers = (
{
anchors = (
{
name = bottom;
position = "{356, 0}";
},
{
name = top;
position = "{365, 700}";
}
);
layerId = master01;
paths = (
{
closed = 1;
nodes = (
"454 -6 OFFCURVE",
"518 13 OFFCURVE",
"554 33 CURVE SMOOTH",
"574 44 OFFCURVE",
"586 56 OFFCURVE",
"586 66 CURVE SMOOTH",
"586 78 OFFCURVE",
"564 120 OFFCURVE",
"551 120 CURVE SMOOTH",
"538 120 OFFCURVE",
"482 70 OFFCURVE",
"379 70 CURVE SMOOTH",
"222 70 OFFCURVE",
"148 157 OFFCURVE",
"148 349 CURVE SMOOTH",
"148 546 OFFCURVE",
"223 630 OFFCURVE",
"383 630 CURVE SMOOTH",
"479 630 OFFCURVE",
"527 586 OFFCURVE",
"538 586 CURVE SMOOTH",
"551 586 OFFCURVE",
"572 627 OFFCURVE",
"572 644 CURVE SMOOTH",
"572 652 OFFCURVE",
"563 661 OFFCURVE",
"548 670 CURVE SMOOTH",
"514 689 OFFCURVE",
"449 706 OFFCURVE",
"381 706 CURVE SMOOTH",
"167 706 OFFCURVE",
"57 589 OFFCURVE",
"57 350 CURVE SMOOTH",
"57 106 OFFCURVE",
"160 -6 OFFCURVE",
"379 -6 CURVE SMOOTH"
);
}
);
width = 619;
},
{
anchors = (
{
name = bottom;
position = "{343, 0}";
},
{
name = top;
position = "{368, 700}";
}
);
layerId = "2DCA4625-E4BE-49C6-A30F-EA66D600808E";
paths = (
{
closed = 1;
nodes = (
"429 -8 OFFCURVE",
"514 3 OFFCURVE",
"562 30 CURVE SMOOTH",
"583 42 OFFCURVE",
"597 57 OFFCURVE",
"597 76 CURVE SMOOTH",
"597 93 OFFCURVE",
"570 163 OFFCURVE",
"538 163 CURVE SMOOTH",
"523 163 OFFCURVE",
"469 123 OFFCURVE",
"374 123 CURVE SMOOTH",
"259 123 OFFCURVE",
"203 201 OFFCURVE",
"203 351 CURVE SMOOTH",
"203 501 OFFCURVE",
"258 576 OFFCURVE",
"376 576 CURVE SMOOTH",
"471 576 OFFCURVE",
"511 544 OFFCURVE",
"523 544 CURVE SMOOTH",
"548 544 OFFCURVE",
"588 610 OFFCURVE",
"588 638 CURVE SMOOTH",
"588 650 OFFCURVE",
"578 661 OFFCURVE",
"562 670 CURVE SMOOTH",
"522 694 OFFCURVE",
"442 708 OFFCURVE",
"379 708 CURVE SMOOTH",
"157 708 OFFCURVE",
"45 590 OFFCURVE",
"45 352 CURVE SMOOTH",
"45 105 OFFCURVE",
"150 -8 OFFCURVE",
"374 -8 CURVE SMOOTH"
);
}
);
width = 619;
}
);
leftKerningGroup = O;
rightKerningGroup = C;
unicode = 0043;
},
{
glyphname = Cacute;
layers = (
{
anchors = (
{
name = bottom;
position = "{356, 0}";
},
{
name = top;
position = "{365, 852}";
}
);
layerId = master01;
paths = (
{
closed = 1;
nodes = (
"454 -6 OFFCURVE",
"518 13 OFFCURVE",
"554 33 CURVE SMOOTH",
"574 44 OFFCURVE",
"586 56 OFFCURVE",
"586 66 CURVE SMOOTH",
"586 78 OFFCURVE",
"564 120 OFFCURVE",
"551 120 CURVE SMOOTH",
"538 120 OFFCURVE",
"482 70 OFFCURVE",
"379 70 CURVE SMOOTH",
"222 70 OFFCURVE",
"148 157 OFFCURVE",
"148 349 CURVE SMOOTH",
"148 546 OFFCURVE",
"223 630 OFFCURVE",
"383 630 CURVE SMOOTH",
"479 630 OFFCURVE",
"527 586 OFFCURVE",
"538 586 CURVE SMOOTH",
"551 586 OFFCURVE",
"572 627 OFFCURVE",
"572 644 CURVE SMOOTH",
"572 652 OFFCURVE",
"563 661 OFFCURVE",
"548 670 CURVE SMOOTH",
"514 689 OFFCURVE",
"449 706 OFFCURVE",
"381 706 CURVE SMOOTH",
"167 706 OFFCURVE",
"57 589 OFFCURVE",
"57 350 CURVE SMOOTH",
"57 106 OFFCURVE",
"160 -6 OFFCURVE",
"379 -6 CURVE SMOOTH"
);
},
{
closed = 1;
nodes = (
"338 752 OFFCURVE",
"351 756 OFFCURVE",
"379 773 CURVE SMOOTH",
"433 806 LINE SMOOTH",
"468 828 OFFCURVE",
"473 835 OFFCURVE",
"473 846 CURVE SMOOTH",
"473 858 OFFCURVE",
"451 864 OFFCURVE",
"420 864 CURVE SMOOTH",
"378 864 OFFCURVE",
"361 859 OFFCURVE",
"344 841 CURVE SMOOTH",
"290 784 LINE SMOOTH",
"282 776 OFFCURVE",
"279 770 OFFCURVE",
"279 765 CURVE SMOOTH",
"279 757 OFFCURVE",
"289 752 OFFCURVE",
"305 752 CURVE SMOOTH"
);
}
);
width = 619;
},
{
anchors = (
{
name = bottom;
position = "{343, 0}";
},
{
name = top;
position = "{368, 862}";
}
);
layerId = "2DCA4625-E4BE-49C6-A30F-EA66D600808E";
paths = (
{
closed = 1;
nodes = (
"429 -8 OFFCURVE",
"514 3 OFFCURVE",
"562 30 CURVE SMOOTH",
"583 42 OFFCURVE",
"597 57 OFFCURVE",
"597 76 CURVE SMOOTH",
"597 93 OFFCURVE",
"570 163 OFFCURVE",
"538 163 CURVE SMOOTH",
"523 163 OFFCURVE",
"469 123 OFFCURVE",
"374 123 CURVE SMOOTH",
"259 123 OFFCURVE",
"203 201 OFFCURVE",
"203 351 CURVE SMOOTH",
"203 501 OFFCURVE",
"258 576 OFFCURVE",
"376 576 CURVE SMOOTH",
"471 576 OFFCURVE",
"511 544 OFFCURVE",
"523 544 CURVE SMOOTH",
"548 544 OFFCURVE",
"588 610 OFFCURVE",
"588 638 CURVE SMOOTH",
"588 650 OFFCURVE",
"578 661 OFFCURVE",
"562 670 CURVE SMOOTH",
"522 694 OFFCURVE",
"442 708 OFFCURVE",
"379 708 CURVE SMOOTH",
"157 708 OFFCURVE",
"45 590 OFFCURVE",
"45 352 CURVE SMOOTH",
"45 105 OFFCURVE",
"150 -8 OFFCURVE",
"374 -8 CURVE SMOOTH"
);
},
{
closed = 1;
nodes = (
"348 749 OFFCURVE",
"363 753 OFFCURVE",
"384 768 CURVE SMOOTH",
"470 824 LINE SMOOTH",
"491 838 OFFCURVE",
"500 849 OFFCURVE",
"500 857 CURVE SMOOTH",
"500 872 OFFCURVE",
"476 875 OFFCURVE",
"429 875 CURVE SMOOTH",
"383 875 OFFCURVE",
"364 868 OFFCURVE",
"343 845 CURVE SMOOTH",
"289 785 LINE SMOOTH",
"279 774 OFFCURVE",
"276 767 OFFCURVE",
"276 762 CURVE SMOOTH",
"276 753 OFFCURVE",
"288 749 OFFCURVE",
"314 749 CURVE SMOOTH"
);
}
);
width = 619;
}
);
leftKerningGroup = O;
rightKerningGroup = C;
unicode = 0106;
},
{
glyphname = Ccaron;
layers = (
{
anchors = (
{
name = bottom;
position = "{356, 0}";
},
{
name = top;
position = "{365, 842}";
}
);
layerId = master01;
paths = (
{
closed = 1;
nodes = (
"454 -6 OFFCURVE",
"518 13 OFFCURVE",
"554 33 CURVE SMOOTH",
"574 44 OFFCURVE",
"586 56 OFFCURVE",
"586 66 CURVE SMOOTH",
"586 78 OFFCURVE",
"564 120 OFFCURVE",
"551 120 CURVE SMOOTH",
"538 120 OFFCURVE",
"482 70 OFFCURVE",
"379 70 CURVE SMOOTH",
"222 70 OFFCURVE",
"148 157 OFFCURVE",
"148 349 CURVE SMOOTH",
"148 546 OFFCURVE",
"223 630 OFFCURVE",
"383 630 CURVE SMOOTH",
"479 630 OFFCURVE",
"527 586 OFFCURVE",
"538 586 CURVE SMOOTH",
"551 586 OFFCURVE",
"572 627 OFFCURVE",
"572 644 CURVE SMOOTH",
"572 652 OFFCURVE",
"563 661 OFFCURVE",
"548 670 CURVE SMOOTH",
"514 689 OFFCURVE",
"449 706 OFFCURVE",
"381 706 CURVE SMOOTH",
"167 706 OFFCURVE",
"57 589 OFFCURVE",
"57 350 CURVE SMOOTH",
"57 106 OFFCURVE",
"160 -6 OFFCURVE",
"379 -6 CURVE SMOOTH"
);
},
{
closed = 1;
nodes = (
"378 752 LINE SMOOTH",
"410 752 OFFCURVE",
"422 755 OFFCURVE",
"438 775 CURVE SMOOTH",
"479 827 LINE SMOOTH",
"494 845 OFFCURVE",
"495 848 OFFCURVE",
"495 853 CURVE SMOOTH",
"495 859 OFFCURVE",
"490 864 OFFCURVE",
"473 864 CURVE SMOOTH",
"451 864 OFFCURVE",
"442 862 OFFCURVE",
"430 853 CURVE SMOOTH",
"365 807 LINE",
"303 851 LINE SMOOTH",
"289 861 OFFCURVE",
"279 864 OFFCURVE",
"257 864 CURVE SMOOTH",
"240 864 OFFCURVE",
"235 859 OFFCURVE",
"235 853 CURVE SMOOTH",
"235 848 OFFCURVE",
"236 845 OFFCURVE",
"249 829 CURVE SMOOTH",
"292 775 LINE SMOOTH",
"308 754 OFFCURVE",
"320 752 OFFCURVE",
"352 752 CURVE SMOOTH"
);
}
);
width = 619;
},
{
anchors = (
{
name = bottom;
position = "{343, 0}";
},
{
name = top;
position = "{368, 877}";
}
);
layerId = "2DCA4625-E4BE-49C6-A30F-EA66D600808E";
paths = (
{
closed = 1;
nodes = (
"429 -8 OFFCURVE",
"514 3 OFFCURVE",
"562 30 CURVE SMOOTH",
"583 42 OFFCURVE",
"597 57 OFFCURVE",
"597 76 CURVE SMOOTH",
"597 93 OFFCURVE",
"570 163 OFFCURVE",
"538 163 CURVE SMOOTH",
"523 163 OFFCURVE",
"469 123 OFFCURVE",
"374 123 CURVE SMOOTH",
"259 123 OFFCURVE",
"203 201 OFFCURVE",
"203 351 CURVE SMOOTH",
"203 501 OFFCURVE",
"258 576 OFFCURVE",
"376 576 CURVE SMOOTH",
"471 576 OFFCURVE",
"511 544 OFFCURVE",
"523 544 CURVE SMOOTH",
"548 544 OFFCURVE",
"588 610 OFFCURVE",
"588 638 CURVE SMOOTH",
"588 650 OFFCURVE",
"578 661 OFFCURVE",
"562 670 CURVE SMOOTH",
"522 694 OFFCURVE",
"442 708 OFFCURVE",
"379 708 CURVE SMOOTH",
"157 708 OFFCURVE",
"45 590 OFFCURVE",
"45 352 CURVE SMOOTH",
"45 105 OFFCURVE",
"150 -8 OFFCURVE",
"374 -8 CURVE SMOOTH"
);
},
{
closed = 1;
nodes = (
"382 749 LINE SMOOTH",
"426 749 OFFCURVE",
"440 755 OFFCURVE",
"458 778 CURVE SMOOTH",
"506 842 LINE SMOOTH",
"512 850 OFFCURVE",
"515 856 OFFCURVE",
"515 861 CURVE SMOOTH",
"515 871 OFFCURVE",
"504 875 OFFCURVE",
"470 875 CURVE SMOOTH",
"443 875 OFFCURVE",
"425 872 OFFCURVE",
"407 858 CURVE SMOOTH",
"368 826 LINE",
"329 858 LINE SMOOTH",
"311 872 OFFCURVE",
"293 875 OFFCURVE",
"266 875 CURVE SMOOTH",
"232 875 OFFCURVE",
"221 871 OFFCURVE",
"221 861 CURVE SMOOTH",
"221 856 OFFCURVE",
"224 850 OFFCURVE",
"230 842 CURVE SMOOTH",
"278 778 LINE SMOOTH",
"296 755 OFFCURVE",
"310 749 OFFCURVE",
"354 749 CURVE SMOOTH"
);
}
);
width = 619;
}
);
leftKerningGroup = O;
rightKerningGroup = C;
unicode = 010C;
},
{
glyphname = Ccedilla;
layers = (
{
anchors = (
{
name = bottom;
position = "{356, -210}";
},
{
name = top;
position = "{365, 700}";
}
);
layerId = master01;
paths = (
{
closed = 1;
nodes = (
"454 -6 OFFCURVE",
"518 13 OFFCURVE",
"554 33 CURVE SMOOTH",
"574 44 OFFCURVE",
"586 56 OFFCURVE",
"586 66 CURVE SMOOTH",
"586 78 OFFCURVE",
"564 120 OFFCURVE",
"551 120 CURVE SMOOTH",
"538 120 OFFCURVE",
"482 70 OFFCURVE",
"379 70 CURVE SMOOTH",
"222 70 OFFCURVE",
"148 157 OFFCURVE",
"148 349 CURVE SMOOTH",
"148 546 OFFCURVE",
"223 630 OFFCURVE",
"383 630 CURVE SMOOTH",
"479 630 OFFCURVE",
"527 586 OFFCURVE",
"538 586 CURVE SMOOTH",
"551 586 OFFCURVE",
"572 627 OFFCURVE",
"572 644 CURVE SMOOTH",
"572 652 OFFCURVE",
"563 661 OFFCURVE",
"548 670 CURVE SMOOTH",
"514 689 OFFCURVE",
"449 706 OFFCURVE",
"381 706 CURVE SMOOTH",
"167 706 OFFCURVE",
"57 589 OFFCURVE",
"57 350 CURVE SMOOTH",
"57 106 OFFCURVE",
"160 -6 OFFCURVE",
"379 -6 CURVE SMOOTH"
);
},
{
closed = 1;
nodes = (
"386 -210 OFFCURVE",
"452 -199 OFFCURVE",
"452 -125 CURVE SMOOTH",
"452 -80 OFFCURVE",
"417 -54 OFFCURVE",
"351 -54 CURVE",
"360 -59 LINE",
"377 0 LINE",
"334 0 LINE",
"319 -53 OFFCURVE",
"315 -68 OFFCURVE",
"315 -76 CURVE SMOOTH",
"315 -103 OFFCURVE",
"388 -82 OFFCURVE",
"388 -126 CURVE SMOOTH",
"388 -157 OFFCURVE",
"351 -161 OFFCURVE",
"334 -161 CURVE SMOOTH",
"286 -161 OFFCURVE",
"257 -141 OFFCURVE",
"241 -141 CURVE SMOOTH",
"226 -141 OFFCURVE",
"222 -155 OFFCURVE",
"222 -167 CURVE SMOOTH",
"222 -194 OFFCURVE",
"292 -210 OFFCURVE",
"337 -210 CURVE SMOOTH"
);
}
);
width = 619;
},
{
anchors = (
{
name = bottom;
position = "{343, -212}";
},
{
name = top;
position = "{368, 700}";
}
);
layerId = "2DCA4625-E4BE-49C6-A30F-EA66D600808E";
paths = (
{
closed = 1;
nodes = (
"429 -8 OFFCURVE",
"514 3 OFFCURVE",
"562 30 CURVE SMOOTH",
"583 42 OFFCURVE",
"597 57 OFFCURVE",
"597 76 CURVE SMOOTH",
"597 93 OFFCURVE",
"570 163 OFFCURVE",
"538 163 CURVE SMOOTH",
"523 163 OFFCURVE",
"469 123 OFFCURVE",
"374 123 CURVE SMOOTH",
"259 123 OFFCURVE",
"203 201 OFFCURVE",
"203 351 CURVE SMOOTH",
"203 501 OFFCURVE",
"258 576 OFFCURVE",
"376 576 CURVE SMOOTH",
"471 576 OFFCURVE",
"511 544 OFFCURVE",
"523 544 CURVE SMOOTH",
"548 544 OFFCURVE",
"588 610 OFFCURVE",
"588 638 CURVE SMOOTH",
"588 650 OFFCURVE",
"578 661 OFFCURVE",
"562 670 CURVE SMOOTH",
"522 694 OFFCURVE",
"442 708 OFFCURVE",
"379 708 CURVE SMOOTH",
"157 708 OFFCURVE",
"45 590 OFFCURVE",
"45 352 CURVE SMOOTH",
"45 105 OFFCURVE",
"150 -8 OFFCURVE",
"374 -8 CURVE SMOOTH"
);
},
{
closed = 1;
nodes = (
"405 -212 OFFCURVE",
"445 -180 OFFCURVE",
"445 -120 CURVE SMOOTH",
"445 -72 OFFCURVE",
"401 -45 OFFCURVE",
"335 -45 CURVE",
"360 -57 LINE",
"378 10 LINE",
"314 10 LINE",
"290 -64 OFFCURVE",
"289 -69 OFFCURVE",
"289 -75 CURVE SMOOTH",
"289 -93 OFFCURVE",
"359 -89 OFFCURVE",
"359 -121 CURVE SMOOTH",
"359 -137 OFFCURVE",
"350 -144 OFFCURVE",
"324 -144 CURVE SMOOTH",
"281 -144 OFFCURVE",
"240 -122 OFFCURVE",
"223 -122 CURVE SMOOTH",
"214 -122 OFFCURVE",
"195 -136 OFFCURVE",
"195 -162 CURVE SMOOTH",
"195 -194 OFFCURVE",
"270 -212 OFFCURVE",
"326 -212 CURVE SMOOTH"
);
}
);
width = 619;
}
);
leftKerningGroup = O;
rightKerningGroup = C;
unicode = 00C7;
},
{
glyphname = Ccircumflex;
layers = (
{
anchors = (
{
name = bottom;
position = "{356, 0}";
},
{
name = top;
position = "{365, 837}";
}
);
layerId = master01;
paths = (
{
closed = 1;
nodes = (
"454 -6 OFFCURVE",
"518 13 OFFCURVE",
"554 33 CURVE SMOOTH",
"574 44 OFFCURVE",
"586 56 OFFCURVE",
"586 66 CURVE SMOOTH",
"586 78 OFFCURVE",
"564 120 OFFCURVE",
"551 120 CURVE SMOOTH",
"538 120 OFFCURVE",
"482 70 OFFCURVE",
"379 70 CURVE SMOOTH",
"222 70 OFFCURVE",
"148 157 OFFCURVE",
"148 349 CURVE SMOOTH",
"148 546 OFFCURVE",
"223 630 OFFCURVE",
"383 630 CURVE SMOOTH",
"479 630 OFFCURVE",
"527 586 OFFCURVE",
"538 586 CURVE SMOOTH",
"551 586 OFFCURVE",
"572 627 OFFCURVE",
"572 644 CURVE SMOOTH",
"572 652 OFFCURVE",
"563 661 OFFCURVE",
"548 670 CURVE SMOOTH",
"514 689 OFFCURVE",
"449 706 OFFCURVE",
"381 706 CURVE SMOOTH",
"167 706 OFFCURVE",
"57 589 OFFCURVE",
"57 350 CURVE SMOOTH",
"57 106 OFFCURVE",
"160 -6 OFFCURVE",
"379 -6 CURVE SMOOTH"
);
},
{
closed = 1;
nodes = (
"269 742 OFFCURVE",
"286 747 OFFCURVE",
"301 757 CURVE SMOOTH",
"365 799 LINE",
"432 755 LINE SMOOTH",
"444 747 OFFCURVE",
"460 742 OFFCURVE",
"473 742 CURVE SMOOTH",
"490 742 OFFCURVE",
"495 747 OFFCURVE",
"495 753 CURVE SMOOTH",
"495 758 OFFCURVE",
"495 762 OFFCURVE",
"479 779 CURVE SMOOTH",
"429 832 LINE SMOOTH",
"411 851 OFFCURVE",
"406 854 OFFCURVE",
"375 854 CURVE SMOOTH",
"355 854 LINE SMOOTH",
"326 854 OFFCURVE",
"316 848 OFFCURVE",
"301 832 CURVE SMOOTH",
"249 777 LINE SMOOTH",
"235 762 OFFCURVE",
"235 758 OFFCURVE",
"235 753 CURVE SMOOTH",
"235 747 OFFCURVE",
"240 742 OFFCURVE",
"257 742 CURVE SMOOTH"
);
}
);
width = 619;
},
{
anchors = (
{
name = bottom;
position = "{343, 0}";
},
{
name = top;
position = "{368, 842}";
}
);
layerId = "2DCA4625-E4BE-49C6-A30F-EA66D600808E";
paths = (
{
closed = 1;
nodes = (
"429 -8 OFFCURVE",
"514 3 OFFCURVE",
"562 30 CURVE SMOOTH",
"583 42 OFFCURVE",
"597 57 OFFCURVE",
"597 76 CURVE SMOOTH",
"597 93 OFFCURVE",
"570 163 OFFCURVE",
"538 163 CURVE SMOOTH",
"523 163 OFFCURVE",
"469 123 OFFCURVE",
"374 123 CURVE SMOOTH",
"259 123 OFFCURVE",
"203 201 OFFCURVE",
"203 351 CURVE SMOOTH",
"203 501 OFFCURVE",
"258 576 OFFCURVE",
"376 576 CURVE SMOOTH",
"471 576 OFFCURVE",
"511 544 OFFCURVE",
"523 544 CURVE SMOOTH",
"548 544 OFFCURVE",
"588 610 OFFCURVE",
"588 638 CURVE SMOOTH",
"588 650 OFFCURVE",
"578 661 OFFCURVE",
"562 670 CURVE SMOOTH",
"522 694 OFFCURVE",
"442 708 OFFCURVE",
"379 708 CURVE SMOOTH",
"157 708 OFFCURVE",
"45 590 OFFCURVE",
"45 352 CURVE SMOOTH",
"45 105 OFFCURVE",
"150 -8 OFFCURVE",
"374 -8 CURVE SMOOTH"
);
},
{
closed = 1;
nodes = (
"283 734 OFFCURVE",
"300 741 OFFCURVE",
"318 751 CURVE SMOOTH",
"367 779 LINE",
"416 751 LINE SMOOTH",
"435 740 OFFCURVE",
"452 734 OFFCURVE",
"474 734 CURVE SMOOTH",
"508 734 OFFCURVE",
"514 737 OFFCURVE",
"514 744 CURVE SMOOTH",
"514 748 OFFCURVE",
"512 753 OFFCURVE",
"493 774 CURVE SMOOTH",
"438 836 LINE SMOOTH",
"421 855 OFFCURVE",
"408 860 OFFCURVE",
"377 860 CURVE SMOOTH",
"357 860 LINE SMOOTH",
"326 860 OFFCURVE",
"313 855 OFFCURVE",
"297 837 CURVE SMOOTH",
"241 774 LINE SMOOTH",
"222 753 OFFCURVE",
"220 748 OFFCURVE",
"220 744 CURVE SMOOTH",
"220 737 OFFCURVE",
"226 734 OFFCURVE",
"260 734 CURVE SMOOTH"
);
}
);
width = 619;
}
);
leftKerningGroup = O;
rightKerningGroup = C;
unicode = 0108;
},
{
glyphname = Cdotaccent;
layers = (
{
anchors = (
{
name = bottom;
position = "{356, 0}";
},
{
name = top;
position = "{365, 842}";
}
);
layerId = master01;
paths = (
{
closed = 1;
nodes = (
"454 -6 OFFCURVE",
"518 13 OFFCURVE",
"554 33 CURVE SMOOTH",
"574 44 OFFCURVE",
"586 56 OFFCURVE",
"586 66 CURVE SMOOTH",
"586 78 OFFCURVE",
"564 120 OFFCURVE",
"551 120 CURVE SMOOTH",
"538 120 OFFCURVE",
"482 70 OFFCURVE",
"379 70 CURVE SMOOTH",
"222 70 OFFCURVE",
"148 157 OFFCURVE",
"148 349 CURVE SMOOTH",
"148 546 OFFCURVE",
"223 630 OFFCURVE",
"383 630 CURVE SMOOTH",
"479 630 OFFCURVE",
"527 586 OFFCURVE",
"538 586 CURVE SMOOTH",
"551 586 OFFCURVE",
"572 627 OFFCURVE",
"572 644 CURVE SMOOTH",
"572 652 OFFCURVE",
"563 661 OFFCURVE",
"548 670 CURVE SMOOTH",
"514 689 OFFCURVE",
"449 706 OFFCURVE",
"381 706 CURVE SMOOTH",
"167 706 OFFCURVE",
"57 589 OFFCURVE",
"57 350 CURVE SMOOTH",
"57 106 OFFCURVE",
"160 -6 OFFCURVE",
"379 -6 CURVE SMOOTH"
);
},
{
closed = 1;
nodes = (
"397 757 OFFCURVE",
"409 766 OFFCURVE",
"409 779 CURVE SMOOTH",
"409 839 LINE SMOOTH",
"409 853 OFFCURVE",
"397 861 OFFCURVE",
"365 861 CURVE SMOOTH",
"333 861 OFFCURVE",
"321 852 OFFCURVE",
"321 839 CURVE SMOOTH",
"321 779 LINE SMOOTH",
"321 765 OFFCURVE",
"333 757 OFFCURVE",
"365 757 CURVE SMOOTH"
);
}
);
width = 619;
},
{
anchors = (
{
name = bottom;
position = "{343, 0}";
},
{
name = top;
position = "{368, 852}";
}
);
layerId = "2DCA4625-E4BE-49C6-A30F-EA66D600808E";
paths = (
{
closed = 1;
nodes = (
"429 -8 OFFCURVE",
"514 3 OFFCURVE",
"562 30 CURVE SMOOTH",
"583 42 OFFCURVE",
"597 57 OFFCURVE",
"597 76 CURVE SMOOTH",
"597 93 OFFCURVE",
"570 163 OFFCURVE",
"538 163 CURVE SMOOTH",
"523 163 OFFCURVE",
"469 123 OFFCURVE",
"374 123 CURVE SMOOTH",
"259 123 OFFCURVE",
"203 201 OFFCURVE",
"203 351 CURVE SMOOTH",
"203 501 OFFCURVE",
"258 576 OFFCURVE",
"376 576 CURVE SMOOTH",
"471 576 OFFCURVE",
"511 544 OFFCURVE",
"523 544 CURVE SMOOTH",
"548 544 OFFCURVE",
"588 610 OFFCURVE",
"588 638 CURVE SMOOTH",
"588 650 OFFCURVE",
"578 661 OFFCURVE",
"562 670 CURVE SMOOTH",
"522 694 OFFCURVE",
"442 708 OFFCURVE",
"379 708 CURVE SMOOTH",
"157 708 OFFCURVE",
"45 590 OFFCURVE",
"45 352 CURVE SMOOTH",
"45 105 OFFCURVE",
"150 -8 OFFCURVE",
"374 -8 CURVE SMOOTH"
);
},
{
closed = 1;
nodes = (
"420 741 OFFCURVE",
"442 752 OFFCURVE",
"442 773 CURVE SMOOTH",
"442 851 LINE SMOOTH",
"442 872 OFFCURVE",
"420 883 OFFCURVE",
"368 883 CURVE SMOOTH",
"316 883 OFFCURVE",
"294 872 OFFCURVE",
"294 851 CURVE SMOOTH",
"294 773 LINE SMOOTH",
"294 752 OFFCURVE",
"316 741 OFFCURVE",
"368 741 CURVE SMOOTH"
);
}
);
width = 619;
}
);
leftKerningGroup = O;
rightKerningGroup = C;
unicode = 010A;
},
{
glyphname = D;
layers = (
{
anchors = (
{
name = bottom;
position = "{327, 0}";
},
{
name = center;
position = "{141, 350}";
},
{
name = top;
position = "{312, 700}";
}
);
layerId = master01;
paths = (
{
closed = 1;
nodes = (
"329 0 LINE SMOOTH",
"501 0 OFFCURVE",
"638 90 OFFCURVE",
"638 350 CURVE SMOOTH",
"638 609 OFFCURVE",
"501 700 OFFCURVE",
"329 700 CURVE SMOOTH",
"127 700 LINE SMOOTH",
"106 700 OFFCURVE",
"97 691 OFFCURVE",
"97 670 CURVE SMOOTH",
"97 30 LINE SMOOTH",
"97 9 OFFCURVE",
"106 0 OFFCURVE",
"127 0 CURVE SMOOTH"
);
},
{
closed = 1;
nodes = (
"185 624 LINE",
"322 624 LINE SMOOTH",
"447 624 OFFCURVE",
"547 549 OFFCURVE",
"547 350 CURVE SMOOTH",
"547 150 OFFCURVE",
"447 76 OFFCURVE",
"322 76 CURVE SMOOTH",
"185 76 LINE"
);
}
);
userData = {
com.schriftgestaltung.Glyphs.glyph.rightMetricsKey = O;
};
width = 695;
},
{
anchors = (
{
name = bottom;
position = "{338, 0}";
},
{
name = center;
position = "{154, 350}";
},
{
name = top;
position = "{340, 700}";
}
);
layerId = "2DCA4625-E4BE-49C6-A30F-EA66D600808E";
paths = (
{
closed = 1;
nodes = (
"330 0 LINE SMOOTH",
"536 0 OFFCURVE",
"650 124 OFFCURVE",
"650 350 CURVE SMOOTH",
"650 576 OFFCURVE",
"536 700 OFFCURVE",
"330 700 CURVE SMOOTH",
"116 700 LINE SMOOTH",
"88 700 OFFCURVE",
"76 688 OFFCURVE",
"76 660 CURVE SMOOTH",
"76 40 LINE SMOOTH",
"76 12 OFFCURVE",
"88 0 OFFCURVE",
"116 0 CURVE SMOOTH"
);
},
{
closed = 1;
nodes = (
"231 569 LINE",
"330 569 LINE SMOOTH",
"437 569 OFFCURVE",
"492 492 OFFCURVE",
"492 350 CURVE SMOOTH",
"492 208 OFFCURVE",
"437 131 OFFCURVE",
"330 131 CURVE SMOOTH",
"231 131 LINE"
);
}
);
userData = {
com.schriftgestaltung.Glyphs.glyph.rightMetricsKey = O;
};
width = 695;
}
);
leftKerningGroup = H;
rightKerningGroup = O;
unicode = 0044;
},
{
glyphname = DZ;
layers = (
{
anchors = (
{
name = bottom;
position = "{1013, 0}";
},
{
name = center;
position = "{141, 350}";
},
{
name = top;
position = "{1003, 700}";
}
);
layerId = master01;
paths = (
{
closed = 1;
nodes = (
"329 0 LINE SMOOTH",
"501 0 OFFCURVE",
"638 90 OFFCURVE",
"638 350 CURVE SMOOTH",
"638 609 OFFCURVE",
"501 700 OFFCURVE",
"329 700 CURVE SMOOTH",
"127 700 LINE SMOOTH",
"106 700 OFFCURVE",
"97 691 OFFCURVE",
"97 670 CURVE SMOOTH",
"97 30 LINE SMOOTH",
"97 9 OFFCURVE",
"106 0 OFFCURVE",
"127 0 CURVE SMOOTH"
);
},
{
closed = 1;
nodes = (
"185 624 LINE",
"322 624 LINE SMOOTH",
"447 624 OFFCURVE",
"547 549 OFFCURVE",
"547 350 CURVE SMOOTH",
"547 150 OFFCURVE",
"447 76 OFFCURVE",
"322 76 CURVE SMOOTH",
"185 76 LINE"
);
},
{
closed = 1;
nodes = (
"1244 0 LINE SMOOTH",
"1258 0 OFFCURVE",
"1264 10 OFFCURVE",
"1264 34 CURVE SMOOTH",
"1264 42 LINE SMOOTH",
"1264 66 OFFCURVE",
"1258 76 OFFCURVE",
"1244 76 CURVE SMOOTH",
"853 76 LINE",
"1263 635 LINE SMOOTH",
"1265 638 OFFCURVE",
"1266 642 OFFCURVE",
"1266 647 CURVE SMOOTH",
"1266 668 OFFCURVE",
"1251 700 OFFCURVE",
"1244 700 CURVE SMOOTH",
"786 700 LINE SMOOTH",
"772 700 OFFCURVE",
"766 690 OFFCURVE",
"766 666 CURVE SMOOTH",
"766 658 LINE SMOOTH",
"766 634 OFFCURVE",
"772 624 OFFCURVE",
"786 624 CURVE SMOOTH",
"1146 624 LINE",
"736 65 LINE SMOOTH",
"734 62 OFFCURVE",
"733 58 OFFCURVE",
"733 53 CURVE SMOOTH",
"733 33 OFFCURVE",
"747 0 OFFCURVE",
"757 0 CURVE"
);
}
);
width = 1311;
},
{
anchors = (
{
name = bottom;
position = "{994, 0}";
},
{
name = center;
position = "{154, 350}";
},
{
name = top;
position = "{1003, 700}";
}
);
layerId = "2DCA4625-E4BE-49C6-A30F-EA66D600808E";
paths = (
{
closed = 1;
nodes = (
"330 0 LINE SMOOTH",
"536 0 OFFCURVE",
"650 124 OFFCURVE",
"650 350 CURVE SMOOTH",
"650 576 OFFCURVE",
"536 700 OFFCURVE",
"330 700 CURVE SMOOTH",
"116 700 LINE SMOOTH",
"88 700 OFFCURVE",
"76 688 OFFCURVE",
"76 660 CURVE SMOOTH",
"76 40 LINE SMOOTH",
"76 12 OFFCURVE",
"88 0 OFFCURVE",
"116 0 CURVE SMOOTH"
);
},
{
closed = 1;
nodes = (
"231 569 LINE",
"330 569 LINE SMOOTH",
"437 569 OFFCURVE",
"492 492 OFFCURVE",
"492 350 CURVE SMOOTH",
"492 208 OFFCURVE",
"437 131 OFFCURVE",
"330 131 CURVE SMOOTH",
"231 131 LINE"
);
},
{
closed = 1;
nodes = (
"1245 0 LINE SMOOTH",
"1266 0 OFFCURVE",
"1275 15 OFFCURVE",
"1275 50 CURVE SMOOTH",
"1275 81 LINE SMOOTH",
"1275 116 OFFCURVE",
"1266 131 OFFCURVE",
"1245 131 CURVE SMOOTH",
"940 131 LINE",
"1270 594 LINE SMOOTH",
"1274 599 OFFCURVE",
"1275 604 OFFCURVE",
"1275 608 CURVE SMOOTH",
"1275 634 OFFCURVE",
"1254 700 OFFCURVE",
"1238 700 CURVE SMOOTH",
"781 700 LINE SMOOTH",
"760 700 OFFCURVE",
"751 685 OFFCURVE",
"751 650 CURVE SMOOTH",
"751 619 LINE SMOOTH",
"751 584 OFFCURVE",
"760 569 OFFCURVE",
"781 569 CURVE SMOOTH",
"1059 569 LINE",
"724 99 LINE SMOOTH",
"723 97 OFFCURVE",
"722 93 OFFCURVE",
"722 89 CURVE SMOOTH",
"722 62 OFFCURVE",
"744 0 OFFCURVE",
"761 0 CURVE"
);
}
);
width = 1311;
}
);
leftKerningGroup = H;
rightKerningGroup = Z;
unicode = 01F1;
},
{
glyphname = DZcaron;
layers = (
{
anchors = (
{
name = bottom;
position = "{1013, 0}";
},
{
name = center;
position = "{141, 350}";
},
{
name = top;
position = "{1019, 842}";
}
);
layerId = master01;
paths = (
{
closed = 1;
nodes = (
"329 0 LINE SMOOTH",
"501 0 OFFCURVE",
"638 90 OFFCURVE",
"638 350 CURVE SMOOTH",
"638 609 OFFCURVE",
"501 700 OFFCURVE",
"329 700 CURVE SMOOTH",
"127 700 LINE SMOOTH",
"106 700 OFFCURVE",
"97 691 OFFCURVE",
"97 670 CURVE SMOOTH",
"97 30 LINE SMOOTH",
"97 9 OFFCURVE",
"106 0 OFFCURVE",
"127 0 CURVE SMOOTH"
);
},
{
closed = 1;
nodes = (
"185 624 LINE",
"322 624 LINE SMOOTH",
"447 624 OFFCURVE",
"547 549 OFFCURVE",
"547 350 CURVE SMOOTH",
"547 150 OFFCURVE",
"447 76 OFFCURVE",
"322 76 CURVE SMOOTH",
"185 76 LINE"
);
},
{
closed = 1;
nodes = (
"1244 0 LINE SMOOTH",
"1258 0 OFFCURVE",
"1264 10 OFFCURVE",
"1264 34 CURVE SMOOTH",
"1264 42 LINE SMOOTH",
"1264 66 OFFCURVE",
"1258 76 OFFCURVE",
"1244 76 CURVE SMOOTH",
"853 76 LINE",
"1263 635 LINE SMOOTH",
"1265 638 OFFCURVE",
"1266 642 OFFCURVE",
"1266 647 CURVE SMOOTH",
"1266 668 OFFCURVE",
"1251 700 OFFCURVE",
"1244 700 CURVE SMOOTH",
"786 700 LINE SMOOTH",
"772 700 OFFCURVE",
"766 690 OFFCURVE",
"766 666 CURVE SMOOTH",
"766 658 LINE SMOOTH",
"766 634 OFFCURVE",
"772 624 OFFCURVE",
"786 624 CURVE SMOOTH",
"1146 624 LINE",
"736 65 LINE SMOOTH",
"734 62 OFFCURVE",
"733 58 OFFCURVE",
"733 53 CURVE SMOOTH",
"733 33 OFFCURVE",
"747 0 OFFCURVE",
"757 0 CURVE"
);
},
{
closed = 1;
nodes = (
"1032 752 LINE SMOOTH",
"1064 752 OFFCURVE",
"1076 755 OFFCURVE",
"1092 775 CURVE SMOOTH",
"1133 827 LINE SMOOTH",
"1148 845 OFFCURVE",
"1149 848 OFFCURVE",
"1149 853 CURVE SMOOTH",
"1149 859 OFFCURVE",
"1144 864 OFFCURVE",
"1127 864 CURVE SMOOTH",
"1105 864 OFFCURVE",
"1096 862 OFFCURVE",
"1084 853 CURVE SMOOTH",
"1019 807 LINE",
"957 851 LINE SMOOTH",
"943 861 OFFCURVE",
"933 864 OFFCURVE",
"911 864 CURVE SMOOTH",
"894 864 OFFCURVE",
"889 859 OFFCURVE",
"889 853 CURVE SMOOTH",
"889 848 OFFCURVE",
"890 845 OFFCURVE",
"903 829 CURVE SMOOTH",
"946 775 LINE SMOOTH",
"962 754 OFFCURVE",
"974 752 OFFCURVE",
"1006 752 CURVE SMOOTH"
);
}
);
width = 1311;
},
{
anchors = (
{
name = bottom;
position = "{994, 0}";
},
{
name = center;
position = "{154, 350}";
},
{
name = top;
position = "{1011, 877}";
}
);
layerId = "2DCA4625-E4BE-49C6-A30F-EA66D600808E";
paths = (
{
closed = 1;
nodes = (
"330 0 LINE SMOOTH",
"536 0 OFFCURVE",
"650 124 OFFCURVE",
"650 350 CURVE SMOOTH",
"650 576 OFFCURVE",
"536 700 OFFCURVE",
"330 700 CURVE SMOOTH",
"116 700 LINE SMOOTH",
"88 700 OFFCURVE",
"76 688 OFFCURVE",
"76 660 CURVE SMOOTH",
"76 40 LINE SMOOTH",
"76 12 OFFCURVE",
"88 0 OFFCURVE",
"116 0 CURVE SMOOTH"
);
},
{
closed = 1;
nodes = (
"231 569 LINE",
"330 569 LINE SMOOTH",
"437 569 OFFCURVE",
"492 492 OFFCURVE",
"492 350 CURVE SMOOTH",
"492 208 OFFCURVE",
"437 131 OFFCURVE",
"330 131 CURVE SMOOTH",
"231 131 LINE"
);
},
{
closed = 1;
nodes = (
"1245 0 LINE SMOOTH",
"1266 0 OFFCURVE",
"1275 15 OFFCURVE",
"1275 50 CURVE SMOOTH",
"1275 81 LINE SMOOTH",
"1275 116 OFFCURVE",
"1266 131 OFFCURVE",
"1245 131 CURVE SMOOTH",
"940 131 LINE",
"1270 594 LINE SMOOTH",
"1274 599 OFFCURVE",
"1275 604 OFFCURVE",
"1275 608 CURVE SMOOTH",
"1275 634 OFFCURVE",
"1254 700 OFFCURVE",
"1238 700 CURVE SMOOTH",
"781 700 LINE SMOOTH",
"760 700 OFFCURVE",
"751 685 OFFCURVE",
"751 650 CURVE SMOOTH",
"751 619 LINE SMOOTH",
"751 584 OFFCURVE",
"760 569 OFFCURVE",
"781 569 CURVE SMOOTH",
"1059 569 LINE",
"724 99 LINE SMOOTH",
"723 97 OFFCURVE",
"722 93 OFFCURVE",
"722 89 CURVE SMOOTH",
"722 62 OFFCURVE",
"744 0 OFFCURVE",
"761 0 CURVE"
);
},
{
closed = 1;
nodes = (
"1025 749 LINE SMOOTH",
"1069 749 OFFCURVE",
"1083 755 OFFCURVE",
"1101 778 CURVE SMOOTH",
"1149 842 LINE SMOOTH",
"1155 850 OFFCURVE",
"1158 856 OFFCURVE",
"1158 861 CURVE SMOOTH",
"1158 871 OFFCURVE",
"1147 875 OFFCURVE",
"1113 875 CURVE SMOOTH",
"1086 875 OFFCURVE",
"1068 872 OFFCURVE",
"1050 858 CURVE SMOOTH",
"1011 826 LINE",
"972 858 LINE SMOOTH",
"954 872 OFFCURVE",
"936 875 OFFCURVE",
"909 875 CURVE SMOOTH",
"875 875 OFFCURVE",
"864 871 OFFCURVE",
"864 861 CURVE SMOOTH",
"864 856 OFFCURVE",
"867 850 OFFCURVE",
"873 842 CURVE SMOOTH",
"921 778 LINE SMOOTH",
"939 755 OFFCURVE",
"953 749 OFFCURVE",
"997 749 CURVE SMOOTH"
);
}
);
width = 1311;
}
);
leftKerningGroup = H;
rightKerningGroup = Z;
unicode = 01C4;
},
{
glyphname = Eth;
layers = (
{
anchors = (
{
name = bottom;
position = "{327, 0}";
},
{
name = center;
position = "{141, 350}";
},
{
name = top;
position = "{312, 700}";
}
);
layerId = master01;
paths = (
{
closed = 1;
nodes = (
"323 320 LINE SMOOTH",
"337 320 OFFCURVE",
"343 329 OFFCURVE",
"343 350 CURVE SMOOTH",
"343 366 LINE SMOOTH",
"343 387 OFFCURVE",
"337 396 OFFCURVE",
"323 396 CURVE SMOOTH",
"20 396 LINE SMOOTH",
"6 396 OFFCURVE",
"0 387 OFFCURVE",
"0 366 CURVE SMOOTH",
"0 350 LINE SMOOTH",
"0 329 OFFCURVE",
"6 320 OFFCURVE",
"20 320 CURVE SMOOTH"
);
},
{
closed = 1;
nodes = (
"329 0 LINE SMOOTH",
"501 0 OFFCURVE",
"638 90 OFFCURVE",
"638 350 CURVE SMOOTH",
"638 609 OFFCURVE",
"501 700 OFFCURVE",
"329 700 CURVE SMOOTH",
"127 700 LINE SMOOTH",
"106 700 OFFCURVE",
"97 691 OFFCURVE",
"97 670 CURVE SMOOTH",
"97 30 LINE SMOOTH",
"97 9 OFFCURVE",
"106 0 OFFCURVE",
"127 0 CURVE SMOOTH"
);
},
{
closed = 1;
nodes = (
"185 624 LINE",
"322 624 LINE SMOOTH",
"447 624 OFFCURVE",
"547 549 OFFCURVE",
"547 350 CURVE SMOOTH",
"547 150 OFFCURVE",
"447 76 OFFCURVE",
"322 76 CURVE SMOOTH",
"185 76 LINE"
);
}
);
width = 695;
},
{
anchors = (
{
name = bottom;
position = "{338, 0}";
},
{
name = center;
position = "{154, 350}";
},
{
name = top;
position = "{340, 700}";
}
);
layerId = "2DCA4625-E4BE-49C6-A30F-EA66D600808E";
paths = (
{
closed = 1;
nodes = (
"325 291 LINE SMOOTH",
"346 291 OFFCURVE",
"355 306 OFFCURVE",
"355 341 CURVE SMOOTH",
"355 371 LINE SMOOTH",
"355 406 OFFCURVE",
"346 421 OFFCURVE",
"325 421 CURVE SMOOTH",
"42 421 LINE SMOOTH",
"21 421 OFFCURVE",
"12 406 OFFCURVE",
"12 371 CURVE SMOOTH",
"12 341 LINE SMOOTH",
"12 306 OFFCURVE",
"21 291 OFFCURVE",
"42 291 CURVE SMOOTH"
);
},
{
closed = 1;
nodes = (
"330 0 LINE SMOOTH",
"536 0 OFFCURVE",
"650 124 OFFCURVE",
"650 350 CURVE SMOOTH",
"650 576 OFFCURVE",
"536 700 OFFCURVE",
"330 700 CURVE SMOOTH",
"116 700 LINE SMOOTH",
"88 700 OFFCURVE",
"76 688 OFFCURVE",
"76 660 CURVE SMOOTH",
"76 40 LINE SMOOTH",
"76 12 OFFCURVE",
"88 0 OFFCURVE",
"116 0 CURVE SMOOTH"
);
},
{
closed = 1;
nodes = (
"231 569 LINE",
"330 569 LINE SMOOTH",
"437 569 OFFCURVE",
"492 492 OFFCURVE",
"492 350 CURVE SMOOTH",
"492 208 OFFCURVE",
"437 131 OFFCURVE",
"330 131 CURVE SMOOTH",
"231 131 LINE"
);
}
);
width = 696;
}
);
leftKerningGroup = H;
rightKerningGroup = O;
unicode = 00D0;
},
{
glyphname = Dcaron;
layers = (
{
anchors = (
{
name = bottom;
position = "{327, 0}";
},
{
name = center;
position = "{141, 350}";
},
{
name = top;
position = "{312, 842}";
}
);
layerId = master01;
paths = (
{
closed = 1;
nodes = (
"329 0 LINE SMOOTH",
"501 0 OFFCURVE",
"638 90 OFFCURVE",
"638 350 CURVE SMOOTH",
"638 609 OFFCURVE",
"501 700 OFFCURVE",
"329 700 CURVE SMOOTH",
"127 700 LINE SMOOTH",
"106 700 OFFCURVE",
"97 691 OFFCURVE",
"97 670 CURVE SMOOTH",
"97 30 LINE SMOOTH",
"97 9 OFFCURVE",
"106 0 OFFCURVE",
"127 0 CURVE SMOOTH"
);
},
{
closed = 1;
nodes = (
"185 624 LINE",
"322 624 LINE SMOOTH",
"447 624 OFFCURVE",
"547 549 OFFCURVE",
"547 350 CURVE SMOOTH",
"547 150 OFFCURVE",
"447 76 OFFCURVE",
"322 76 CURVE SMOOTH",
"185 76 LINE"
);
},
{
closed = 1;
nodes = (
"325 752 LINE SMOOTH",
"357 752 OFFCURVE",
"369 755 OFFCURVE",
"385 775 CURVE SMOOTH",
"426 827 LINE SMOOTH",
"441 845 OFFCURVE",
"442 848 OFFCURVE",
"442 853 CURVE SMOOTH",
"442 859 OFFCURVE",
"437 864 OFFCURVE",
"420 864 CURVE SMOOTH",
"398 864 OFFCURVE",
"389 862 OFFCURVE",
"377 853 CURVE SMOOTH",
"312 807 LINE",
"250 851 LINE SMOOTH",
"236 861 OFFCURVE",
"226 864 OFFCURVE",
"204 864 CURVE SMOOTH",
"187 864 OFFCURVE",
"182 859 OFFCURVE",
"182 853 CURVE SMOOTH",
"182 848 OFFCURVE",
"183 845 OFFCURVE",
"196 829 CURVE SMOOTH",
"239 775 LINE SMOOTH",
"255 754 OFFCURVE",
"267 752 OFFCURVE",
"299 752 CURVE SMOOTH"
);
}
);
width = 695;
},
{
anchors = (
{
name = bottom;
position = "{338, 0}";
},
{
name = center;
position = "{154, 350}";
},
{
name = top;
position = "{340, 877}";
}
);
layerId = "2DCA4625-E4BE-49C6-A30F-EA66D600808E";
paths = (
{
closed = 1;
nodes = (
"330 0 LINE SMOOTH",
"536 0 OFFCURVE",
"650 124 OFFCURVE",
"650 350 CURVE SMOOTH",
"650 576 OFFCURVE",
"536 700 OFFCURVE",
"330 700 CURVE SMOOTH",
"116 700 LINE SMOOTH",
"88 700 OFFCURVE",
"76 688 OFFCURVE",
"76 660 CURVE SMOOTH",
"76 40 LINE SMOOTH",
"76 12 OFFCURVE",
"88 0 OFFCURVE",
"116 0 CURVE SMOOTH"
);
},
{
closed = 1;
nodes = (
"231 569 LINE",
"330 569 LINE SMOOTH",
"437 569 OFFCURVE",
"492 492 OFFCURVE",
"492 350 CURVE SMOOTH",
"492 208 OFFCURVE",
"437 131 OFFCURVE",
"330 131 CURVE SMOOTH",
"231 131 LINE"
);
},
{
closed = 1;
nodes = (
"354 749 LINE SMOOTH",
"398 749 OFFCURVE",
"412 755 OFFCURVE",
"430 778 CURVE SMOOTH",
"478 842 LINE SMOOTH",
"484 850 OFFCURVE",
"487 856 OFFCURVE",
"487 861 CURVE SMOOTH",
"487 871 OFFCURVE",
"476 875 OFFCURVE",
"442 875 CURVE SMOOTH",
"415 875 OFFCURVE",
"397 872 OFFCURVE",
"379 858 CURVE SMOOTH",
"340 826 LINE",
"301 858 LINE SMOOTH",
"283 872 OFFCURVE",
"265 875 OFFCURVE",
"238 875 CURVE SMOOTH",
"204 875 OFFCURVE",
"193 871 OFFCURVE",
"193 861 CURVE SMOOTH",
"193 856 OFFCURVE",
"196 850 OFFCURVE",
"202 842 CURVE SMOOTH",
"250 778 LINE SMOOTH",
"268 755 OFFCURVE",
"282 749 OFFCURVE",
"326 749 CURVE SMOOTH"
);
}
);
width = 695;
}
);
leftKerningGroup = H;
rightKerningGroup = O;
unicode = 010E;
},
{
glyphname = Dcroat;
layers = (
{
anchors = (
{
name = bottom;
position = "{327, 0}";
},
{
name = center;
position = "{141, 350}";
},
{
name = top;
position = "{312, 700}";
}
);
layerId = master01;
paths = (
{
closed = 1;
nodes = (
"323 320 LINE SMOOTH",
"337 320 OFFCURVE",
"343 329 OFFCURVE",
"343 350 CURVE SMOOTH",
"343 366 LINE SMOOTH",
"343 387 OFFCURVE",
"337 396 OFFCURVE",
"323 396 CURVE SMOOTH",
"20 396 LINE SMOOTH",
"6 396 OFFCURVE",
"0 387 OFFCURVE",
"0 366 CURVE SMOOTH",
"0 350 LINE SMOOTH",
"0 329 OFFCURVE",
"6 320 OFFCURVE",
"20 320 CURVE SMOOTH"
);
},
{
closed = 1;
nodes = (
"329 0 LINE SMOOTH",
"501 0 OFFCURVE",
"638 90 OFFCURVE",
"638 350 CURVE SMOOTH",
"638 609 OFFCURVE",
"501 700 OFFCURVE",
"329 700 CURVE SMOOTH",
"127 700 LINE SMOOTH",
"106 700 OFFCURVE",
"97 691 OFFCURVE",
"97 670 CURVE SMOOTH",
"97 30 LINE SMOOTH",
"97 9 OFFCURVE",
"106 0 OFFCURVE",
"127 0 CURVE SMOOTH"
);
},
{
closed = 1;
nodes = (
"185 624 LINE",
"322 624 LINE SMOOTH",
"447 624 OFFCURVE",
"547 549 OFFCURVE",
"547 350 CURVE SMOOTH",
"547 150 OFFCURVE",
"447 76 OFFCURVE",
"322 76 CURVE SMOOTH",
"185 76 LINE"
);
}
);
width = 695;
},
{
anchors = (
{
name = bottom;
position = "{338, 0}";
},
{
name = center;
position = "{154, 350}";
},
{
name = top;
position = "{340, 700}";
}
);
layerId = "2DCA4625-E4BE-49C6-A30F-EA66D600808E";
paths = (
{
closed = 1;
nodes = (
"325 291 LINE SMOOTH",
"346 291 OFFCURVE",
"355 306 OFFCURVE",
"355 341 CURVE SMOOTH",
"355 371 LINE SMOOTH",
"355 406 OFFCURVE",
"346 421 OFFCURVE",
"325 421 CURVE SMOOTH",
"42 421 LINE SMOOTH",
"21 421 OFFCURVE",
"12 406 OFFCURVE",
"12 371 CURVE SMOOTH",
"12 341 LINE SMOOTH",
"12 306 OFFCURVE",
"21 291 OFFCURVE",
"42 291 CURVE SMOOTH"
);
},
{
closed = 1;
nodes = (
"330 0 LINE SMOOTH",
"536 0 OFFCURVE",
"650 124 OFFCURVE",
"650 350 CURVE SMOOTH",
"650 576 OFFCURVE",
"536 700 OFFCURVE",
"330 700 CURVE SMOOTH",
"116 700 LINE SMOOTH",
"88 700 OFFCURVE",
"76 688 OFFCURVE",
"76 660 CURVE SMOOTH",
"76 40 LINE SMOOTH",
"76 12 OFFCURVE",
"88 0 OFFCURVE",
"116 0 CURVE SMOOTH"
);
},
{
closed = 1;
nodes = (
"231 569 LINE",
"330 569 LINE SMOOTH",
"437 569 OFFCURVE",
"492 492 OFFCURVE",
"492 350 CURVE SMOOTH",
"492 208 OFFCURVE",
"437 131 OFFCURVE",
"330 131 CURVE SMOOTH",
"231 131 LINE"
);
}
);
width = 695;
}
);
leftKerningGroup = H;
rightKerningGroup = O;
unicode = 0110;
},
{
glyphname = Ddotbelow;
layers = (
{
anchors = (
{
name = bottom;
position = "{327, -155}";
},
{
name = center;
position = "{141, 350}";
},
{
name = top;
position = "{312, 700}";
}
);
layerId = master01;
paths = (
{
closed = 1;
nodes = (
"329 0 LINE SMOOTH",
"501 0 OFFCURVE",
"638 90 OFFCURVE",
"638 350 CURVE SMOOTH",
"638 609 OFFCURVE",
"501 700 OFFCURVE",
"329 700 CURVE SMOOTH",
"127 700 LINE SMOOTH",
"106 700 OFFCURVE",
"97 691 OFFCURVE",
"97 670 CURVE SMOOTH",
"97 30 LINE SMOOTH",
"97 9 OFFCURVE",
"106 0 OFFCURVE",
"127 0 CURVE SMOOTH"
);
},
{
closed = 1;
nodes = (
"185 624 LINE",
"322 624 LINE SMOOTH",
"447 624 OFFCURVE",
"547 549 OFFCURVE",
"547 350 CURVE SMOOTH",
"547 150 OFFCURVE",
"447 76 OFFCURVE",
"322 76 CURVE SMOOTH",
"185 76 LINE"
);
},
{
closed = 1;
nodes = (
"357 -175 OFFCURVE",
"370 -168 OFFCURVE",
"370 -153 CURVE SMOOTH",
"370 -102 LINE SMOOTH",
"370 -87 OFFCURVE",
"357 -80 OFFCURVE",
"327 -80 CURVE SMOOTH",
"297 -80 OFFCURVE",
"284 -87 OFFCURVE",
"284 -102 CURVE SMOOTH",
"284 -153 LINE SMOOTH",
"284 -168 OFFCURVE",
"297 -175 OFFCURVE",
"327 -175 CURVE"
);
}
);
width = 695;
},
{
anchors = (
{
name = bottom;
position = "{338, -185}";
},
{
name = center;
position = "{154, 350}";
},
{
name = top;
position = "{340, 700}";
}
);
layerId = "2DCA4625-E4BE-49C6-A30F-EA66D600808E";
paths = (
{
closed = 1;
nodes = (
"330 0 LINE SMOOTH",
"536 0 OFFCURVE",
"650 124 OFFCURVE",
"650 350 CURVE SMOOTH",
"650 576 OFFCURVE",
"536 700 OFFCURVE",
"330 700 CURVE SMOOTH",
"116 700 LINE SMOOTH",
"88 700 OFFCURVE",
"76 688 OFFCURVE",
"76 660 CURVE SMOOTH",
"76 40 LINE SMOOTH",
"76 12 OFFCURVE",
"88 0 OFFCURVE",
"116 0 CURVE SMOOTH"
);
},
{
closed = 1;
nodes = (
"231 569 LINE",
"330 569 LINE SMOOTH",
"437 569 OFFCURVE",
"492 492 OFFCURVE",
"492 350 CURVE SMOOTH",
"492 208 OFFCURVE",
"437 131 OFFCURVE",
"330 131 CURVE SMOOTH",
"231 131 LINE"
);
},
{
closed = 1;
nodes = (
"381 -204 OFFCURVE",
"399 -193 OFFCURVE",
"399 -172 CURVE SMOOTH",
"399 -112 LINE SMOOTH",
"399 -91 OFFCURVE",
"381 -80 OFFCURVE",
"338 -80 CURVE SMOOTH",
"295 -80 OFFCURVE",
"277 -91 OFFCURVE",
"277 -112 CURVE SMOOTH",
"277 -172 LINE SMOOTH",
"277 -193 OFFCURVE",
"295 -204 OFFCURVE",
"338 -204 CURVE SMOOTH"
);
}
);
width = 695;
}
);
leftKerningGroup = H;
rightKerningGroup = O;
unicode = 1E0C;
},
{
glyphname = Dz;
layers = (
{
anchors = (
{
name = bottom;
position = "{933, 0}";
},
{
name = center;
position = "{141, 350}";
},
{
name = top;
position = "{940, 523}";
}
);
layerId = master01;
paths = (
{
closed = 1;
nodes = (
"329 0 LINE SMOOTH",
"501 0 OFFCURVE",
"638 90 OFFCURVE",
"638 350 CURVE SMOOTH",
"638 609 OFFCURVE",
"501 700 OFFCURVE",
"329 700 CURVE SMOOTH",
"127 700 LINE SMOOTH",
"106 700 OFFCURVE",
"97 691 OFFCURVE",
"97 670 CURVE SMOOTH",
"97 30 LINE SMOOTH",
"97 9 OFFCURVE",
"106 0 OFFCURVE",
"127 0 CURVE SMOOTH"
);
},
{
closed = 1;
nodes = (
"185 624 LINE",
"322 624 LINE SMOOTH",
"447 624 OFFCURVE",
"547 549 OFFCURVE",
"547 350 CURVE SMOOTH",
"547 150 OFFCURVE",
"447 76 OFFCURVE",
"322 76 CURVE SMOOTH",
"185 76 LINE"
);
},
{
closed = 1;
nodes = (
"1124 0 LINE SMOOTH",
"1138 0 OFFCURVE",
"1144 9 OFFCURVE",
"1144 30 CURVE SMOOTH",
"1144 42 LINE SMOOTH",
"1144 63 OFFCURVE",
"1138 72 OFFCURVE",
"1124 72 CURVE SMOOTH",
"849 72 LINE",
"1141 461 LINE SMOOTH",
"1142 463 OFFCURVE",
"1143 466 OFFCURVE",
"1143 471 CURVE SMOOTH",
"1143 489 OFFCURVE",
"1133 523 OFFCURVE",
"1123 523 CURVE SMOOTH",
"772 523 LINE SMOOTH",
"758 523 OFFCURVE",
"752 514 OFFCURVE",
"752 493 CURVE SMOOTH",
"752 481 LINE SMOOTH",
"752 460 OFFCURVE",
"758 451 OFFCURVE",
"772 451 CURVE SMOOTH",
"1028 451 LINE",
"735 62 LINE SMOOTH",
"733 59 OFFCURVE",
"732 55 OFFCURVE",
"732 51 CURVE SMOOTH",
"732 31 OFFCURVE",
"746 0 OFFCURVE",
"754 0 CURVE"
);
}
);
width = 1184;
},
{
anchors = (
{
name = bottom;
position = "{936, 0}";
},
{
name = center;
position = "{154, 350}";
},
{
name = top;
position = "{940, 523}";
}
);
layerId = "2DCA4625-E4BE-49C6-A30F-EA66D600808E";
paths = (
{
closed = 1;
nodes = (
"330 0 LINE SMOOTH",
"536 0 OFFCURVE",
"650 124 OFFCURVE",
"650 350 CURVE SMOOTH",
"650 576 OFFCURVE",
"536 700 OFFCURVE",
"330 700 CURVE SMOOTH",
"116 700 LINE SMOOTH",
"88 700 OFFCURVE",
"76 688 OFFCURVE",
"76 660 CURVE SMOOTH",
"76 40 LINE SMOOTH",
"76 12 OFFCURVE",
"88 0 OFFCURVE",
"116 0 CURVE SMOOTH"
);
},
{
closed = 1;
nodes = (
"231 569 LINE",
"330 569 LINE SMOOTH",
"437 569 OFFCURVE",
"492 492 OFFCURVE",
"492 350 CURVE SMOOTH",
"492 208 OFFCURVE",
"437 131 OFFCURVE",
"330 131 CURVE SMOOTH",
"231 131 LINE"
);
},
{
closed = 1;
nodes = (
"1125 0 LINE SMOOTH",
"1146 0 OFFCURVE",
"1155 15 OFFCURVE",
"1155 50 CURVE SMOOTH",
"1155 67 LINE SMOOTH",
"1155 102 OFFCURVE",
"1146 117 OFFCURVE",
"1125 117 CURVE SMOOTH",
"920 117 LINE",
"1148 431 LINE SMOOTH",
"1150 434 OFFCURVE",
"1151 439 OFFCURVE",
"1151 446 CURVE SMOOTH",
"1151 474 OFFCURVE",
"1133 523 OFFCURVE",
"1122 523 CURVE SMOOTH",
"768 523 LINE SMOOTH",
"747 523 OFFCURVE",
"738 508 OFFCURVE",
"738 473 CURVE SMOOTH",
"738 456 LINE SMOOTH",
"738 421 OFFCURVE",
"747 406 OFFCURVE",
"768 406 CURVE SMOOTH",
"954 406 LINE",
"725 90 LINE SMOOTH",
"723 87 OFFCURVE",
"722 82 OFFCURVE",
"722 76 CURVE SMOOTH",
"722 50 OFFCURVE",
"738 0 OFFCURVE",
"751 0 CURVE"
);
}
);
width = 1184;
}
);
leftKerningGroup = H;
rightKerningGroup = z;
unicode = 01F2;
},
{
glyphname = Dzcaron;
layers = (
{
anchors = (
{
name = bottom;
position = "{933, 0}";
},
{
name = center;
position = "{141, 350}";
},
{
name = top;
position = "{940, 700}";
}
);
layerId = master01;
paths = (
{
closed = 1;
nodes = (
"329 0 LINE SMOOTH",
"501 0 OFFCURVE",
"638 90 OFFCURVE",
"638 350 CURVE SMOOTH",
"638 609 OFFCURVE",
"501 700 OFFCURVE",
"329 700 CURVE SMOOTH",
"127 700 LINE SMOOTH",
"106 700 OFFCURVE",
"97 691 OFFCURVE",
"97 670 CURVE SMOOTH",
"97 30 LINE SMOOTH",
"97 9 OFFCURVE",
"106 0 OFFCURVE",
"127 0 CURVE SMOOTH"
);
},
{
closed = 1;
nodes = (
"185 624 LINE",
"322 624 LINE SMOOTH",
"447 624 OFFCURVE",
"547 549 OFFCURVE",
"547 350 CURVE SMOOTH",
"547 150 OFFCURVE",
"447 76 OFFCURVE",
"322 76 CURVE SMOOTH",
"185 76 LINE"
);
},
{
closed = 1;
nodes = (
"1124 0 LINE SMOOTH",
"1138 0 OFFCURVE",
"1144 9 OFFCURVE",
"1144 30 CURVE SMOOTH",
"1144 42 LINE SMOOTH",
"1144 63 OFFCURVE",
"1138 72 OFFCURVE",
"1124 72 CURVE SMOOTH",
"849 72 LINE",
"1141 461 LINE SMOOTH",
"1142 463 OFFCURVE",
"1143 466 OFFCURVE",
"1143 471 CURVE SMOOTH",
"1143 489 OFFCURVE",
"1133 523 OFFCURVE",
"1123 523 CURVE SMOOTH",
"772 523 LINE SMOOTH",
"758 523 OFFCURVE",
"752 514 OFFCURVE",
"752 493 CURVE SMOOTH",
"752 481 LINE SMOOTH",
"752 460 OFFCURVE",
"758 451 OFFCURVE",
"772 451 CURVE SMOOTH",
"1028 451 LINE",
"735 62 LINE SMOOTH",
"733 59 OFFCURVE",
"732 55 OFFCURVE",
"732 51 CURVE SMOOTH",
"732 31 OFFCURVE",
"746 0 OFFCURVE",
"754 0 CURVE"
);
},
{
closed = 1;
nodes = (
"948 576 LINE SMOOTH",
"990 576 OFFCURVE",
"1001 585 OFFCURVE",
"1010 602 CURVE SMOOTH",
"1050 678 LINE SMOOTH",
"1056 690 OFFCURVE",
"1061 699 OFFCURVE",
"1061 705 CURVE SMOOTH",
"1061 713 OFFCURVE",
"1054 718 OFFCURVE",
"1039 718 CURVE SMOOTH",
"1016 718 OFFCURVE",
"1008 715 OFFCURVE",
"991 694 CURVE SMOOTH",
"941 633 LINE",
"891 694 LINE SMOOTH",
"874 714 OFFCURVE",
"864 718 OFFCURVE",
"841 718 CURVE SMOOTH",
"826 718 OFFCURVE",
"819 713 OFFCURVE",
"819 705 CURVE SMOOTH",
"819 699 OFFCURVE",
"824 690 OFFCURVE",
"830 678 CURVE SMOOTH",
"870 602 LINE SMOOTH",
"879 585 OFFCURVE",
"890 576 OFFCURVE",
"932 576 CURVE SMOOTH"
);
}
);
width = 1184;
},
{
anchors = (
{
name = bottom;
position = "{936, 0}";
},
{
name = center;
position = "{154, 350}";
},
{
name = top;
position = "{940, 700}";
}
);
layerId = "2DCA4625-E4BE-49C6-A30F-EA66D600808E";
paths = (
{
closed = 1;
nodes = (
"330 0 LINE SMOOTH",
"536 0 OFFCURVE",
"650 124 OFFCURVE",
"650 350 CURVE SMOOTH",
"650 576 OFFCURVE",
"536 700 OFFCURVE",
"330 700 CURVE SMOOTH",
"116 700 LINE SMOOTH",
"88 700 OFFCURVE",
"76 688 OFFCURVE",
"76 660 CURVE SMOOTH",
"76 40 LINE SMOOTH",
"76 12 OFFCURVE",
"88 0 OFFCURVE",
"116 0 CURVE SMOOTH"
);
},
{
closed = 1;
nodes = (
"231 569 LINE",
"330 569 LINE SMOOTH",
"437 569 OFFCURVE",
"492 492 OFFCURVE",
"492 350 CURVE SMOOTH",
"492 208 OFFCURVE",
"437 131 OFFCURVE",
"330 131 CURVE SMOOTH",
"231 131 LINE"
);
},
{
closed = 1;
nodes = (
"1125 0 LINE SMOOTH",
"1146 0 OFFCURVE",
"1155 15 OFFCURVE",
"1155 50 CURVE SMOOTH",
"1155 67 LINE SMOOTH",
"1155 102 OFFCURVE",
"1146 117 OFFCURVE",
"1125 117 CURVE SMOOTH",
"920 117 LINE",
"1148 431 LINE SMOOTH",
"1150 434 OFFCURVE",
"1151 439 OFFCURVE",
"1151 446 CURVE SMOOTH",
"1151 474 OFFCURVE",
"1133 523 OFFCURVE",
"1122 523 CURVE SMOOTH",
"768 523 LINE SMOOTH",
"747 523 OFFCURVE",
"738 508 OFFCURVE",
"738 473 CURVE SMOOTH",
"738 456 LINE SMOOTH",
"738 421 OFFCURVE",
"747 406 OFFCURVE",
"768 406 CURVE SMOOTH",
"954 406 LINE",
"725 90 LINE SMOOTH",
"723 87 OFFCURVE",
"722 82 OFFCURVE",
"722 76 CURVE SMOOTH",
"722 50 OFFCURVE",
"738 0 OFFCURVE",
"751 0 CURVE"
);
},
{
closed = 1;
nodes = (
"954 572 LINE SMOOTH",
"995 572 OFFCURVE",
"1010 579 OFFCURVE",
"1020 598 CURVE SMOOTH",
"1064 675 LINE SMOOTH",
"1072 689 OFFCURVE",
"1077 697 OFFCURVE",
"1077 703 CURVE SMOOTH",
"1077 714 OFFCURVE",
"1065 718 OFFCURVE",
"1036 718 CURVE SMOOTH",
"1001 718 OFFCURVE",
"989 708 OFFCURVE",
"976 693 CURVE SMOOTH",
"940 654 LINE",
"904 693 LINE SMOOTH",
"891 708 OFFCURVE",
"879 718 OFFCURVE",
"844 718 CURVE SMOOTH",
"815 718 OFFCURVE",
"803 714 OFFCURVE",
"803 703 CURVE SMOOTH",
"803 697 OFFCURVE",
"808 689 OFFCURVE",
"816 675 CURVE SMOOTH",
"860 598 LINE SMOOTH",
"871 578 OFFCURVE",
"885 572 OFFCURVE",
"926 572 CURVE SMOOTH"
);
}
);
width = 1184;
}
);
leftKerningGroup = H;
rightKerningGroup = z;
unicode = 01C5;
},
{
glyphname = E;
layers = (
{
anchors = (
{
name = bottom;
position = "{301, 0}";
},
{
name = ogonek;
position = "{478, 0}";
},
{
name = top;
position = "{297, 700}";
}
);
background = {
paths = (
{
closed = 0;
nodes = (
"496 662 LINE",
"141 662 LINE",
"141 38 LINE",
"497 38 LINE"
);
},
{
closed = 0;
nodes = (
"466 358 LINE",
"142 358 LINE"
);
}
);
};
layerId = master01;
paths = (
{
closed = 1;
nodes = (
"478 0 LINE SMOOTH",
"492 0 OFFCURVE",
"498 9 OFFCURVE",
"498 30 CURVE SMOOTH",
"498 46 LINE SMOOTH",
"498 67 OFFCURVE",
"492 76 OFFCURVE",
"478 76 CURVE SMOOTH",
"186 76 LINE",
"186 320 LINE",
"447 320 LINE SMOOTH",
"461 320 OFFCURVE",
"467 329 OFFCURVE",
"467 350 CURVE SMOOTH",
"467 366 LINE SMOOTH",
"467 387 OFFCURVE",
"461 396 OFFCURVE",
"447 396 CURVE SMOOTH",
"186 396 LINE",
"186 624 LINE",
"477 624 LINE SMOOTH",
"491 624 OFFCURVE",
"497 633 OFFCURVE",
"497 654 CURVE SMOOTH",
"497 670 LINE SMOOTH",
"497 691 OFFCURVE",
"491 700 OFFCURVE",
"477 700 CURVE SMOOTH",
"128 700 LINE SMOOTH",
"107 700 OFFCURVE",
"98 691 OFFCURVE",
"98 670 CURVE SMOOTH",
"98 30 LINE SMOOTH",
"98 9 OFFCURVE",
"107 0 OFFCURVE",
"128 0 CURVE SMOOTH"
);
}
);
width = 546;
},
{
anchors = (
{
name = bottom;
position = "{295, 0}";
},
{
name = ogonek;
position = "{475, 0}";
},
{
name = top;
position = "{286, 700}";
}
);
background = {
paths = (
{
closed = 1;
nodes = (
"231 132 LINE",
"231 568 LINE",
"477 568 LINE SMOOTH",
"500 568 OFFCURVE",
"513 581 OFFCURVE",
"513 604 CURVE SMOOTH",
"513 664 LINE SMOOTH",
"513 687 OFFCURVE",
"500 700 OFFCURVE",
"477 700 CURVE SMOOTH",
"115 700 LINE SMOOTH",
"89 700 OFFCURVE",
"76 686 OFFCURVE",
"76 660 CURVE SMOOTH",
"76 0 LINE",
"514 0 LINE",
"514 132 LINE"
);
},
{
closed = 1;
nodes = (
"486 292 LINE",
"486 424 LINE",
"154 424 LINE",
"154 292 LINE"
);
},
{
closed = 0;
nodes = (
"513 634 LINE",
"153 634 LINE",
"153 66 LINE",
"514 66 LINE"
);
},
{
closed = 0;
nodes = (
"486 358 LINE",
"154 358 LINE"
);
}
);
};
layerId = "2DCA4625-E4BE-49C6-A30F-EA66D600808E";
paths = (
{
closed = 1;
nodes = (
"469 0 LINE SMOOTH",
"490 0 OFFCURVE",
"499 15 OFFCURVE",
"499 50 CURVE SMOOTH",
"499 81 LINE SMOOTH",
"499 116 OFFCURVE",
"490 131 OFFCURVE",
"469 131 CURVE SMOOTH",
"231 131 LINE",
"231 293 LINE",
"441 293 LINE SMOOTH",
"462 293 OFFCURVE",
"471 308 OFFCURVE",
"471 343 CURVE SMOOTH",
"471 374 LINE SMOOTH",
"471 409 OFFCURVE",
"462 424 OFFCURVE",
"441 424 CURVE SMOOTH",
"231 424 LINE",
"231 569 LINE",
"468 569 LINE SMOOTH",
"489 569 OFFCURVE",
"498 584 OFFCURVE",
"498 619 CURVE SMOOTH",
"498 650 LINE SMOOTH",
"498 685 OFFCURVE",
"489 700 OFFCURVE",
"468 700 CURVE SMOOTH",
"117 700 LINE SMOOTH",
"89 700 OFFCURVE",
"77 688 OFFCURVE",
"77 660 CURVE SMOOTH",
"77 40 LINE SMOOTH",
"77 12 OFFCURVE",
"89 0 OFFCURVE",
"117 0 CURVE SMOOTH"
);
}
);
width = 546;
}
);
leftKerningGroup = H;
rightKerningGroup = E;
unicode = 0045;
},
{
glyphname = Eacute;
layers = (
{
anchors = (
{
name = bottom;
position = "{301, 0}";
},
{
name = ogonek;
position = "{478, 0}";
},
{
name = top;
position = "{297, 852}";
}
);
layerId = master01;
paths = (
{
closed = 1;
nodes = (
"478 0 LINE SMOOTH",
"492 0 OFFCURVE",
"498 9 OFFCURVE",
"498 30 CURVE SMOOTH",
"498 46 LINE SMOOTH",
"498 67 OFFCURVE",
"492 76 OFFCURVE",
"478 76 CURVE SMOOTH",
"186 76 LINE",
"186 320 LINE",
"447 320 LINE SMOOTH",
"461 320 OFFCURVE",
"467 329 OFFCURVE",
"467 350 CURVE SMOOTH",
"467 366 LINE SMOOTH",
"467 387 OFFCURVE",
"461 396 OFFCURVE",
"447 396 CURVE SMOOTH",
"186 396 LINE",
"186 624 LINE",
"477 624 LINE SMOOTH",
"491 624 OFFCURVE",
"497 633 OFFCURVE",
"497 654 CURVE SMOOTH",
"497 670 LINE SMOOTH",
"497 691 OFFCURVE",
"491 700 OFFCURVE",
"477 700 CURVE SMOOTH",
"128 700 LINE SMOOTH",
"107 700 OFFCURVE",
"98 691 OFFCURVE",
"98 670 CURVE SMOOTH",
"98 30 LINE SMOOTH",
"98 9 OFFCURVE",
"107 0 OFFCURVE",
"128 0 CURVE SMOOTH"
);
},
{
closed = 1;
nodes = (
"270 752 OFFCURVE",
"283 756 OFFCURVE",
"311 773 CURVE SMOOTH",
"365 806 LINE SMOOTH",
"400 828 OFFCURVE",
"405 835 OFFCURVE",
"405 846 CURVE SMOOTH",
"405 858 OFFCURVE",
"383 864 OFFCURVE",
"352 864 CURVE SMOOTH",
"310 864 OFFCURVE",
"293 859 OFFCURVE",
"276 841 CURVE SMOOTH",
"222 784 LINE SMOOTH",
"214 776 OFFCURVE",
"211 770 OFFCURVE",
"211 765 CURVE SMOOTH",
"211 757 OFFCURVE",
"221 752 OFFCURVE",
"237 752 CURVE SMOOTH"
);
}
);
width = 546;
},
{
anchors = (
{
name = bottom;
position = "{295, 0}";
},
{
name = ogonek;
position = "{475, 0}";
},
{
name = top;
position = "{286, 862}";
}
);
layerId = "2DCA4625-E4BE-49C6-A30F-EA66D600808E";
paths = (
{
closed = 1;
nodes = (
"469 0 LINE SMOOTH",
"490 0 OFFCURVE",
"499 15 OFFCURVE",
"499 50 CURVE SMOOTH",
"499 81 LINE SMOOTH",
"499 116 OFFCURVE",
"490 131 OFFCURVE",
"469 131 CURVE SMOOTH",
"231 131 LINE",
"231 293 LINE",
"441 293 LINE SMOOTH",
"462 293 OFFCURVE",
"471 308 OFFCURVE",
"471 343 CURVE SMOOTH",
"471 374 LINE SMOOTH",
"471 409 OFFCURVE",
"462 424 OFFCURVE",
"441 424 CURVE SMOOTH",
"231 424 LINE",
"231 569 LINE",
"468 569 LINE SMOOTH",
"489 569 OFFCURVE",
"498 584 OFFCURVE",
"498 619 CURVE SMOOTH",
"498 650 LINE SMOOTH",
"498 685 OFFCURVE",
"489 700 OFFCURVE",
"468 700 CURVE SMOOTH",
"117 700 LINE SMOOTH",
"89 700 OFFCURVE",
"77 688 OFFCURVE",
"77 660 CURVE SMOOTH",
"77 40 LINE SMOOTH",
"77 12 OFFCURVE",
"89 0 OFFCURVE",
"117 0 CURVE SMOOTH"
);
},
{
closed = 1;
nodes = (
"266 749 OFFCURVE",
"281 753 OFFCURVE",
"302 768 CURVE SMOOTH",
"388 824 LINE SMOOTH",
"409 838 OFFCURVE",
"418 849 OFFCURVE",
"418 857 CURVE SMOOTH",
"418 872 OFFCURVE",
"394 875 OFFCURVE",
"347 875 CURVE SMOOTH",
"301 875 OFFCURVE",
"282 868 OFFCURVE",
"261 845 CURVE SMOOTH",
"207 785 LINE SMOOTH",
"197 774 OFFCURVE",
"194 767 OFFCURVE",
"194 762 CURVE SMOOTH",
"194 753 OFFCURVE",
"206 749 OFFCURVE",
"232 749 CURVE SMOOTH"
);
}
);
width = 546;
}
);
leftKerningGroup = H;
rightKerningGroup = E;
unicode = 00C9;
},
{
glyphname = Ebreve;
layers = (
{
anchors = (
{
name = bottom;
position = "{301, 0}";
},
{
name = ogonek;
position = "{478, 0}";
},
{
name = top;
position = "{297, 832}";
}
);
layerId = master01;
paths = (
{
closed = 1;
nodes = (
"478 0 LINE SMOOTH",
"492 0 OFFCURVE",
"498 9 OFFCURVE",
"498 30 CURVE SMOOTH",
"498 46 LINE SMOOTH",
"498 67 OFFCURVE",
"492 76 OFFCURVE",
"478 76 CURVE SMOOTH",
"186 76 LINE",
"186 320 LINE",
"447 320 LINE SMOOTH",
"461 320 OFFCURVE",
"467 329 OFFCURVE",
"467 350 CURVE SMOOTH",
"467 366 LINE SMOOTH",
"467 387 OFFCURVE",
"461 396 OFFCURVE",
"447 396 CURVE SMOOTH",
"186 396 LINE",
"186 624 LINE",
"477 624 LINE SMOOTH",
"491 624 OFFCURVE",
"497 633 OFFCURVE",
"497 654 CURVE SMOOTH",
"497 670 LINE SMOOTH",
"497 691 OFFCURVE",
"491 700 OFFCURVE",
"477 700 CURVE SMOOTH",
"128 700 LINE SMOOTH",
"107 700 OFFCURVE",
"98 691 OFFCURVE",
"98 670 CURVE SMOOTH",
"98 30 LINE SMOOTH",
"98 9 OFFCURVE",
"107 0 OFFCURVE",
"128 0 CURVE SMOOTH"
);
},
{
closed = 1;
nodes = (
"377 744 OFFCURVE",
"447 782 OFFCURVE",
"447 849 CURVE SMOOTH",
"447 869 OFFCURVE",
"442 874 OFFCURVE",
"429 874 CURVE SMOOTH",
"419 874 OFFCURVE",
"413 872 OFFCURVE",
"410 862 CURVE SMOOTH",
"402 837 OFFCURVE",
"378 810 OFFCURVE",
"297 810 CURVE SMOOTH",
"216 810 OFFCURVE",
"192 837 OFFCURVE",
"184 862 CURVE SMOOTH",
"181 872 OFFCURVE",
"175 874 OFFCURVE",
"165 874 CURVE SMOOTH",
"152 874 OFFCURVE",
"147 869 OFFCURVE",
"147 849 CURVE SMOOTH",
"147 782 OFFCURVE",
"217 744 OFFCURVE",
"297 744 CURVE SMOOTH"
);
}
);
width = 546;
},
{
anchors = (
{
name = bottom;
position = "{295, 0}";
},
{
name = ogonek;
position = "{475, 0}";
},
{
name = top;
position = "{286, 842}";
}
);
layerId = "2DCA4625-E4BE-49C6-A30F-EA66D600808E";
paths = (
{
closed = 1;
nodes = (
"469 0 LINE SMOOTH",
"490 0 OFFCURVE",
"499 15 OFFCURVE",
"499 50 CURVE SMOOTH",
"499 81 LINE SMOOTH",
"499 116 OFFCURVE",
"490 131 OFFCURVE",
"469 131 CURVE SMOOTH",
"231 131 LINE",
"231 293 LINE",
"441 293 LINE SMOOTH",
"462 293 OFFCURVE",
"471 308 OFFCURVE",
"471 343 CURVE SMOOTH",
"471 374 LINE SMOOTH",
"471 409 OFFCURVE",
"462 424 OFFCURVE",
"441 424 CURVE SMOOTH",
"231 424 LINE",
"231 569 LINE",
"468 569 LINE SMOOTH",
"489 569 OFFCURVE",
"498 584 OFFCURVE",
"498 619 CURVE SMOOTH",
"498 650 LINE SMOOTH",
"498 685 OFFCURVE",
"489 700 OFFCURVE",
"468 700 CURVE SMOOTH",
"117 700 LINE SMOOTH",
"89 700 OFFCURVE",
"77 688 OFFCURVE",
"77 660 CURVE SMOOTH",
"77 40 LINE SMOOTH",
"77 12 OFFCURVE",
"89 0 OFFCURVE",
"117 0 CURVE SMOOTH"
);
},
{
closed = 1;
nodes = (
"379 741 OFFCURVE",
"443 796 OFFCURVE",
"443 853 CURVE SMOOTH",
"443 871 OFFCURVE",
"430 881 OFFCURVE",
"408 881 CURVE SMOOTH",
"392 881 OFFCURVE",
"385 874 OFFCURVE",
"377 865 CURVE SMOOTH",
"365 851 OFFCURVE",
"347 832 OFFCURVE",
"286 832 CURVE SMOOTH",
"229 832 OFFCURVE",
"210 849 OFFCURVE",
"197 863 CURVE SMOOTH",
"188 873 OFFCURVE",
"181 881 OFFCURVE",
"164 881 CURVE SMOOTH",
"142 881 OFFCURVE",
"129 871 OFFCURVE",
"129 853 CURVE SMOOTH",
"129 796 OFFCURVE",
"193 741 OFFCURVE",
"286 741 CURVE SMOOTH"
);
}
);
width = 546;
}
);
leftKerningGroup = H;
rightKerningGroup = E;
unicode = 0114;
},
{
glyphname = Ecaron;
layers = (
{
anchors = (
{
name = bottom;
position = "{301, 0}";
},
{
name = ogonek;
position = "{478, 0}";
},
{
name = top;
position = "{297, 842}";
}
);
layerId = master01;
paths = (
{
closed = 1;
nodes = (
"478 0 LINE SMOOTH",
"492 0 OFFCURVE",
"498 9 OFFCURVE",
"498 30 CURVE SMOOTH",
"498 46 LINE SMOOTH",
"498 67 OFFCURVE",
"492 76 OFFCURVE",
"478 76 CURVE SMOOTH",
"186 76 LINE",
"186 320 LINE",
"447 320 LINE SMOOTH",
"461 320 OFFCURVE",
"467 329 OFFCURVE",
"467 350 CURVE SMOOTH",
"467 366 LINE SMOOTH",
"467 387 OFFCURVE",
"461 396 OFFCURVE",
"447 396 CURVE SMOOTH",
"186 396 LINE",
"186 624 LINE",
"477 624 LINE SMOOTH",
"491 624 OFFCURVE",
"497 633 OFFCURVE",
"497 654 CURVE SMOOTH",
"497 670 LINE SMOOTH",
"497 691 OFFCURVE",
"491 700 OFFCURVE",
"477 700 CURVE SMOOTH",
"128 700 LINE SMOOTH",
"107 700 OFFCURVE",
"98 691 OFFCURVE",
"98 670 CURVE SMOOTH",
"98 30 LINE SMOOTH",
"98 9 OFFCURVE",
"107 0 OFFCURVE",
"128 0 CURVE SMOOTH"
);
},
{
closed = 1;
nodes = (
"310 752 LINE SMOOTH",
"342 752 OFFCURVE",
"354 755 OFFCURVE",
"370 775 CURVE SMOOTH",
"411 827 LINE SMOOTH",
"426 845 OFFCURVE",
"427 848 OFFCURVE",
"427 853 CURVE SMOOTH",
"427 859 OFFCURVE",
"422 864 OFFCURVE",
"405 864 CURVE SMOOTH",
"383 864 OFFCURVE",
"374 862 OFFCURVE",
"362 853 CURVE SMOOTH",
"297 807 LINE",
"235 851 LINE SMOOTH",
"221 861 OFFCURVE",
"211 864 OFFCURVE",
"189 864 CURVE SMOOTH",
"172 864 OFFCURVE",
"167 859 OFFCURVE",
"167 853 CURVE SMOOTH",
"167 848 OFFCURVE",
"168 845 OFFCURVE",
"181 829 CURVE SMOOTH",
"224 775 LINE SMOOTH",
"240 754 OFFCURVE",
"252 752 OFFCURVE",
"284 752 CURVE SMOOTH"
);
}
);
width = 546;
},
{
anchors = (
{
name = bottom;
position = "{295, 0}";
},
{
name = ogonek;
position = "{475, 0}";
},
{
name = top;
position = "{286, 877}";
}
);
layerId = "2DCA4625-E4BE-49C6-A30F-EA66D600808E";
paths = (
{
closed = 1;
nodes = (
"469 0 LINE SMOOTH",
"490 0 OFFCURVE",
"499 15 OFFCURVE",
"499 50 CURVE SMOOTH",
"499 81 LINE SMOOTH",
"499 116 OFFCURVE",
"490 131 OFFCURVE",
"469 131 CURVE SMOOTH",
"231 131 LINE",
"231 293 LINE",
"441 293 LINE SMOOTH",
"462 293 OFFCURVE",
"471 308 OFFCURVE",
"471 343 CURVE SMOOTH",
"471 374 LINE SMOOTH",
"471 409 OFFCURVE",
"462 424 OFFCURVE",
"441 424 CURVE SMOOTH",
"231 424 LINE",
"231 569 LINE",
"468 569 LINE SMOOTH",
"489 569 OFFCURVE",
"498 584 OFFCURVE",
"498 619 CURVE SMOOTH",
"498 650 LINE SMOOTH",
"498 685 OFFCURVE",
"489 700 OFFCURVE",
"468 700 CURVE SMOOTH",
"117 700 LINE SMOOTH",
"89 700 OFFCURVE",
"77 688 OFFCURVE",
"77 660 CURVE SMOOTH",
"77 40 LINE SMOOTH",
"77 12 OFFCURVE",
"89 0 OFFCURVE",
"117 0 CURVE SMOOTH"
);
},
{
closed = 1;
nodes = (
"300 749 LINE SMOOTH",
"344 749 OFFCURVE",
"358 755 OFFCURVE",
"376 778 CURVE SMOOTH",
"424 842 LINE SMOOTH",
"430 850 OFFCURVE",
"433 856 OFFCURVE",
"433 861 CURVE SMOOTH",
"433 871 OFFCURVE",
"422 875 OFFCURVE",
"388 875 CURVE SMOOTH",
"361 875 OFFCURVE",
"343 872 OFFCURVE",
"325 858 CURVE SMOOTH",
"286 826 LINE",
"247 858 LINE SMOOTH",
"229 872 OFFCURVE",
"211 875 OFFCURVE",
"184 875 CURVE SMOOTH",
"150 875 OFFCURVE",
"139 871 OFFCURVE",
"139 861 CURVE SMOOTH",
"139 856 OFFCURVE",
"142 850 OFFCURVE",
"148 842 CURVE SMOOTH",
"196 778 LINE SMOOTH",
"214 755 OFFCURVE",
"228 749 OFFCURVE",
"272 749 CURVE SMOOTH"
);
}
);
width = 546;
}
);
leftKerningGroup = H;
rightKerningGroup = E;
unicode = 011A;
},
{
glyphname = Ecircumflex;
layers = (
{
anchors = (
{
name = bottom;
position = "{301, 0}";
},
{
name = ogonek;
position = "{478, 0}";
},
{
name = top;
position = "{297, 837}";
}
);
layerId = master01;
paths = (
{
closed = 1;
nodes = (
"478 0 LINE SMOOTH",
"492 0 OFFCURVE",
"498 9 OFFCURVE",
"498 30 CURVE SMOOTH",
"498 46 LINE SMOOTH",
"498 67 OFFCURVE",
"492 76 OFFCURVE",
"478 76 CURVE SMOOTH",
"186 76 LINE",
"186 320 LINE",
"447 320 LINE SMOOTH",
"461 320 OFFCURVE",
"467 329 OFFCURVE",
"467 350 CURVE SMOOTH",
"467 366 LINE SMOOTH",
"467 387 OFFCURVE",
"461 396 OFFCURVE",
"447 396 CURVE SMOOTH",
"186 396 LINE",
"186 624 LINE",
"477 624 LINE SMOOTH",
"491 624 OFFCURVE",
"497 633 OFFCURVE",
"497 654 CURVE SMOOTH",
"497 670 LINE SMOOTH",
"497 691 OFFCURVE",
"491 700 OFFCURVE",
"477 700 CURVE SMOOTH",
"128 700 LINE SMOOTH",
"107 700 OFFCURVE",
"98 691 OFFCURVE",
"98 670 CURVE SMOOTH",
"98 30 LINE SMOOTH",
"98 9 OFFCURVE",
"107 0 OFFCURVE",
"128 0 CURVE SMOOTH"
);
},
{
closed = 1;
nodes = (
"201 742 OFFCURVE",
"218 747 OFFCURVE",
"233 757 CURVE SMOOTH",
"297 799 LINE",
"364 755 LINE SMOOTH",
"376 747 OFFCURVE",
"392 742 OFFCURVE",
"405 742 CURVE SMOOTH",
"422 742 OFFCURVE",
"427 747 OFFCURVE",
"427 753 CURVE SMOOTH",
"427 758 OFFCURVE",
"427 762 OFFCURVE",
"411 779 CURVE SMOOTH",
"361 832 LINE SMOOTH",
"343 851 OFFCURVE",
"338 854 OFFCURVE",
"307 854 CURVE SMOOTH",
"287 854 LINE SMOOTH",
"258 854 OFFCURVE",
"248 848 OFFCURVE",
"233 832 CURVE SMOOTH",
"181 777 LINE SMOOTH",
"167 762 OFFCURVE",
"167 758 OFFCURVE",
"167 753 CURVE SMOOTH",
"167 747 OFFCURVE",
"172 742 OFFCURVE",
"189 742 CURVE SMOOTH"
);
}
);
width = 546;
},
{
anchors = (
{
name = bottom;
position = "{295, 0}";
},
{
name = ogonek;
position = "{475, 0}";
},
{
name = top;
position = "{286, 842}";
}
);
layerId = "2DCA4625-E4BE-49C6-A30F-EA66D600808E";
paths = (
{
closed = 1;
nodes = (
"469 0 LINE SMOOTH",
"490 0 OFFCURVE",
"499 15 OFFCURVE",
"499 50 CURVE SMOOTH",
"499 81 LINE SMOOTH",
"499 116 OFFCURVE",
"490 131 OFFCURVE",
"469 131 CURVE SMOOTH",
"231 131 LINE",
"231 293 LINE",
"441 293 LINE SMOOTH",
"462 293 OFFCURVE",
"471 308 OFFCURVE",
"471 343 CURVE SMOOTH",
"471 374 LINE SMOOTH",
"471 409 OFFCURVE",
"462 424 OFFCURVE",
"441 424 CURVE SMOOTH",
"231 424 LINE",
"231 569 LINE",
"468 569 LINE SMOOTH",
"489 569 OFFCURVE",
"498 584 OFFCURVE",
"498 619 CURVE SMOOTH",
"498 650 LINE SMOOTH",
"498 685 OFFCURVE",
"489 700 OFFCURVE",
"468 700 CURVE SMOOTH",
"117 700 LINE SMOOTH",
"89 700 OFFCURVE",
"77 688 OFFCURVE",
"77 660 CURVE SMOOTH",
"77 40 LINE SMOOTH",
"77 12 OFFCURVE",
"89 0 OFFCURVE",
"117 0 CURVE SMOOTH"
);
},
{
closed = 1;
nodes = (
"201 734 OFFCURVE",
"218 741 OFFCURVE",
"236 751 CURVE SMOOTH",
"285 779 LINE",
"334 751 LINE SMOOTH",
"353 740 OFFCURVE",
"370 734 OFFCURVE",
"392 734 CURVE SMOOTH",
"426 734 OFFCURVE",
"432 737 OFFCURVE",
"432 744 CURVE SMOOTH",
"432 748 OFFCURVE",
"430 753 OFFCURVE",
"411 774 CURVE SMOOTH",
"356 836 LINE SMOOTH",
"339 855 OFFCURVE",
"326 860 OFFCURVE",
"295 860 CURVE SMOOTH",
"275 860 LINE SMOOTH",
"244 860 OFFCURVE",
"231 855 OFFCURVE",
"215 837 CURVE SMOOTH",
"159 774 LINE SMOOTH",
"140 753 OFFCURVE",
"138 748 OFFCURVE",
"138 744 CURVE SMOOTH",
"138 737 OFFCURVE",
"144 734 OFFCURVE",
"178 734 CURVE SMOOTH"
);
}
);
width = 546;
}
);
leftKerningGroup = H;
rightKerningGroup = E;
unicode = 00CA;
},
{
glyphname = Ecircumflexacute;
layers = (
{
anchors = (
{
name = bottom;
position = "{301, 0}";
},
{
name = ogonek;
position = "{478, 0}";
},
{
name = top;
position = "{297, 989}";
}
);
layerId = master01;
paths = (
{
closed = 1;
nodes = (
"478 0 LINE SMOOTH",
"492 0 OFFCURVE",
"498 9 OFFCURVE",
"498 30 CURVE SMOOTH",
"498 46 LINE SMOOTH",
"498 67 OFFCURVE",
"492 76 OFFCURVE",
"478 76 CURVE SMOOTH",
"186 76 LINE",
"186 320 LINE",
"447 320 LINE SMOOTH",
"461 320 OFFCURVE",
"467 329 OFFCURVE",
"467 350 CURVE SMOOTH",
"467 366 LINE SMOOTH",
"467 387 OFFCURVE",
"461 396 OFFCURVE",
"447 396 CURVE SMOOTH",
"186 396 LINE",
"186 624 LINE",
"477 624 LINE SMOOTH",
"491 624 OFFCURVE",
"497 633 OFFCURVE",
"497 654 CURVE SMOOTH",
"497 670 LINE SMOOTH",
"497 691 OFFCURVE",
"491 700 OFFCURVE",
"477 700 CURVE SMOOTH",
"128 700 LINE SMOOTH",
"107 700 OFFCURVE",
"98 691 OFFCURVE",
"98 670 CURVE SMOOTH",
"98 30 LINE SMOOTH",
"98 9 OFFCURVE",
"107 0 OFFCURVE",
"128 0 CURVE SMOOTH"
);
},
{
closed = 1;
nodes = (
"201 742 OFFCURVE",
"218 747 OFFCURVE",
"233 757 CURVE SMOOTH",
"297 799 LINE",
"364 755 LINE SMOOTH",
"376 747 OFFCURVE",
"392 742 OFFCURVE",
"405 742 CURVE SMOOTH",
"422 742 OFFCURVE",
"427 747 OFFCURVE",
"427 753 CURVE SMOOTH",
"427 758 OFFCURVE",
"427 762 OFFCURVE",
"411 779 CURVE SMOOTH",
"361 832 LINE SMOOTH",
"343 851 OFFCURVE",
"338 854 OFFCURVE",
"307 854 CURVE SMOOTH",
"287 854 LINE SMOOTH",
"258 854 OFFCURVE",
"248 848 OFFCURVE",
"233 832 CURVE SMOOTH",
"181 777 LINE SMOOTH",
"167 762 OFFCURVE",
"167 758 OFFCURVE",
"167 753 CURVE SMOOTH",
"167 747 OFFCURVE",
"172 742 OFFCURVE",
"189 742 CURVE SMOOTH"
);
},
{
closed = 1;
nodes = (
"270 889 OFFCURVE",
"283 893 OFFCURVE",
"311 910 CURVE SMOOTH",
"365 943 LINE SMOOTH",
"400 965 OFFCURVE",
"405 972 OFFCURVE",
"405 983 CURVE SMOOTH",
"405 995 OFFCURVE",
"383 1001 OFFCURVE",
"352 1001 CURVE SMOOTH",
"310 1001 OFFCURVE",
"293 996 OFFCURVE",
"276 978 CURVE SMOOTH",
"222 921 LINE SMOOTH",
"214 913 OFFCURVE",
"211 907 OFFCURVE",
"211 902 CURVE SMOOTH",
"211 894 OFFCURVE",
"221 889 OFFCURVE",
"237 889 CURVE SMOOTH"
);
}
);
width = 546;
},
{
anchors = (
{
name = bottom;
position = "{295, 0}";
},
{
name = ogonek;
position = "{475, 0}";
},
{
name = top;
position = "{286, 1004}";
}
);
layerId = "2DCA4625-E4BE-49C6-A30F-EA66D600808E";
paths = (
{
closed = 1;
nodes = (
"469 0 LINE SMOOTH",
"490 0 OFFCURVE",
"499 15 OFFCURVE",
"499 50 CURVE SMOOTH",
"499 81 LINE SMOOTH",
"499 116 OFFCURVE",
"490 131 OFFCURVE",
"469 131 CURVE SMOOTH",
"231 131 LINE",
"231 293 LINE",
"441 293 LINE SMOOTH",
"462 293 OFFCURVE",
"471 308 OFFCURVE",
"471 343 CURVE SMOOTH",
"471 374 LINE SMOOTH",
"471 409 OFFCURVE",
"462 424 OFFCURVE",
"441 424 CURVE SMOOTH",
"231 424 LINE",
"231 569 LINE",
"468 569 LINE SMOOTH",
"489 569 OFFCURVE",
"498 584 OFFCURVE",
"498 619 CURVE SMOOTH",
"498 650 LINE SMOOTH",
"498 685 OFFCURVE",
"489 700 OFFCURVE",
"468 700 CURVE SMOOTH",
"117 700 LINE SMOOTH",
"89 700 OFFCURVE",
"77 688 OFFCURVE",
"77 660 CURVE SMOOTH",
"77 40 LINE SMOOTH",
"77 12 OFFCURVE",
"89 0 OFFCURVE",
"117 0 CURVE SMOOTH"
);
},
{
closed = 1;
nodes = (
"201 734 OFFCURVE",
"218 741 OFFCURVE",
"236 751 CURVE SMOOTH",
"285 779 LINE",
"334 751 LINE SMOOTH",
"353 740 OFFCURVE",
"370 734 OFFCURVE",
"392 734 CURVE SMOOTH",
"426 734 OFFCURVE",
"432 737 OFFCURVE",
"432 744 CURVE SMOOTH",
"432 748 OFFCURVE",
"430 753 OFFCURVE",
"411 774 CURVE SMOOTH",
"356 836 LINE SMOOTH",
"339 855 OFFCURVE",
"326 860 OFFCURVE",
"295 860 CURVE SMOOTH",
"275 860 LINE SMOOTH",
"244 860 OFFCURVE",
"231 855 OFFCURVE",
"215 837 CURVE SMOOTH",
"159 774 LINE SMOOTH",
"140 753 OFFCURVE",
"138 748 OFFCURVE",
"138 744 CURVE SMOOTH",
"138 737 OFFCURVE",
"144 734 OFFCURVE",
"178 734 CURVE SMOOTH"
);
},
{
closed = 1;
nodes = (
"266 891 OFFCURVE",
"281 895 OFFCURVE",
"302 910 CURVE SMOOTH",
"388 966 LINE SMOOTH",
"409 980 OFFCURVE",
"418 991 OFFCURVE",
"418 999 CURVE SMOOTH",
"418 1014 OFFCURVE",
"394 1017 OFFCURVE",
"347 1017 CURVE SMOOTH",
"301 1017 OFFCURVE",
"282 1010 OFFCURVE",
"261 987 CURVE SMOOTH",
"207 927 LINE SMOOTH",
"197 916 OFFCURVE",
"194 909 OFFCURVE",
"194 904 CURVE SMOOTH",
"194 895 OFFCURVE",
"206 891 OFFCURVE",
"232 891 CURVE SMOOTH"
);
}
);
width = 546;
}
);
leftKerningGroup = H;
rightKerningGroup = E;
unicode = 1EBE;
},
{
glyphname = Ecircumflexdotbelow;
layers = (
{
anchors = (
{
name = bottom;
position = "{301, -155}";
},
{
name = ogonek;
position = "{478, 0}";
},
{
name = top;
position = "{297, 837}";
}
);
layerId = master01;
paths = (
{
closed = 1;
nodes = (
"478 0 LINE SMOOTH",
"492 0 OFFCURVE",
"498 9 OFFCURVE",
"498 30 CURVE SMOOTH",
"498 46 LINE SMOOTH",
"498 67 OFFCURVE",
"492 76 OFFCURVE",
"478 76 CURVE SMOOTH",
"186 76 LINE",
"186 320 LINE",
"447 320 LINE SMOOTH",
"461 320 OFFCURVE",
"467 329 OFFCURVE",
"467 350 CURVE SMOOTH",
"467 366 LINE SMOOTH",
"467 387 OFFCURVE",
"461 396 OFFCURVE",
"447 396 CURVE SMOOTH",
"186 396 LINE",
"186 624 LINE",
"477 624 LINE SMOOTH",
"491 624 OFFCURVE",
"497 633 OFFCURVE",
"497 654 CURVE SMOOTH",
"497 670 LINE SMOOTH",
"497 691 OFFCURVE",
"491 700 OFFCURVE",
"477 700 CURVE SMOOTH",
"128 700 LINE SMOOTH",
"107 700 OFFCURVE",
"98 691 OFFCURVE",
"98 670 CURVE SMOOTH",
"98 30 LINE SMOOTH",
"98 9 OFFCURVE",
"107 0 OFFCURVE",
"128 0 CURVE SMOOTH"
);
},
{
closed = 1;
nodes = (
"331 -175 OFFCURVE",
"344 -168 OFFCURVE",
"344 -153 CURVE SMOOTH",
"344 -102 LINE SMOOTH",
"344 -87 OFFCURVE",
"331 -80 OFFCURVE",
"301 -80 CURVE SMOOTH",
"271 -80 OFFCURVE",
"258 -87 OFFCURVE",
"258 -102 CURVE SMOOTH",
"258 -153 LINE SMOOTH",
"258 -168 OFFCURVE",
"271 -175 OFFCURVE",
"301 -175 CURVE"
);
},
{
closed = 1;
nodes = (
"201 742 OFFCURVE",
"218 747 OFFCURVE",
"233 757 CURVE SMOOTH",
"297 799 LINE",
"364 755 LINE SMOOTH",
"376 747 OFFCURVE",
"392 742 OFFCURVE",
"405 742 CURVE SMOOTH",
"422 742 OFFCURVE",
"427 747 OFFCURVE",
"427 753 CURVE SMOOTH",
"427 758 OFFCURVE",
"427 762 OFFCURVE",
"411 779 CURVE SMOOTH",
"361 832 LINE SMOOTH",
"343 851 OFFCURVE",
"338 854 OFFCURVE",
"307 854 CURVE SMOOTH",
"287 854 LINE SMOOTH",
"258 854 OFFCURVE",
"248 848 OFFCURVE",
"233 832 CURVE SMOOTH",
"181 777 LINE SMOOTH",
"167 762 OFFCURVE",
"167 758 OFFCURVE",
"167 753 CURVE SMOOTH",
"167 747 OFFCURVE",
"172 742 OFFCURVE",
"189 742 CURVE SMOOTH"
);
}
);
width = 546;
},
{
anchors = (
{
name = bottom;
position = "{295, -185}";
},
{
name = ogonek;
position = "{475, 0}";
},
{
name = top;
position = "{286, 842}";
}
);
layerId = "2DCA4625-E4BE-49C6-A30F-EA66D600808E";
paths = (
{
closed = 1;
nodes = (
"469 0 LINE SMOOTH",
"490 0 OFFCURVE",
"499 15 OFFCURVE",
"499 50 CURVE SMOOTH",
"499 81 LINE SMOOTH",
"499 116 OFFCURVE",
"490 131 OFFCURVE",
"469 131 CURVE SMOOTH",
"231 131 LINE",
"231 293 LINE",
"441 293 LINE SMOOTH",
"462 293 OFFCURVE",
"471 308 OFFCURVE",
"471 343 CURVE SMOOTH",
"471 374 LINE SMOOTH",
"471 409 OFFCURVE",
"462 424 OFFCURVE",
"441 424 CURVE SMOOTH",
"231 424 LINE",
"231 569 LINE",
"468 569 LINE SMOOTH",
"489 569 OFFCURVE",
"498 584 OFFCURVE",
"498 619 CURVE SMOOTH",
"498 650 LINE SMOOTH",
"498 685 OFFCURVE",
"489 700 OFFCURVE",
"468 700 CURVE SMOOTH",
"117 700 LINE SMOOTH",
"89 700 OFFCURVE",
"77 688 OFFCURVE",
"77 660 CURVE SMOOTH",
"77 40 LINE SMOOTH",
"77 12 OFFCURVE",
"89 0 OFFCURVE",
"117 0 CURVE SMOOTH"
);
},
{
closed = 1;
nodes = (
"338 -204 OFFCURVE",
"356 -193 OFFCURVE",
"356 -172 CURVE SMOOTH",
"356 -112 LINE SMOOTH",
"356 -91 OFFCURVE",
"338 -80 OFFCURVE",
"295 -80 CURVE SMOOTH",
"252 -80 OFFCURVE",
"234 -91 OFFCURVE",
"234 -112 CURVE SMOOTH",
"234 -172 LINE SMOOTH",
"234 -193 OFFCURVE",
"252 -204 OFFCURVE",
"295 -204 CURVE SMOOTH"
);
},
{
closed = 1;
nodes = (
"201 734 OFFCURVE",
"218 741 OFFCURVE",
"236 751 CURVE SMOOTH",
"285 779 LINE",
"334 751 LINE SMOOTH",
"353 740 OFFCURVE",
"370 734 OFFCURVE",
"392 734 CURVE SMOOTH",
"426 734 OFFCURVE",
"432 737 OFFCURVE",
"432 744 CURVE SMOOTH",
"432 748 OFFCURVE",
"430 753 OFFCURVE",
"411 774 CURVE SMOOTH",
"356 836 LINE SMOOTH",
"339 855 OFFCURVE",
"326 860 OFFCURVE",
"295 860 CURVE SMOOTH",
"275 860 LINE SMOOTH",
"244 860 OFFCURVE",
"231 855 OFFCURVE",
"215 837 CURVE SMOOTH",
"159 774 LINE SMOOTH",
"140 753 OFFCURVE",
"138 748 OFFCURVE",
"138 744 CURVE SMOOTH",
"138 737 OFFCURVE",
"144 734 OFFCURVE",
"178 734 CURVE SMOOTH"
);
}
);
width = 546;
}
);
leftKerningGroup = H;
rightKerningGroup = E;
unicode = 1EC6;
},
{
glyphname = Ecircumflexgrave;
layers = (
{
anchors = (
{
name = bottom;
position = "{301, 0}";
},
{
name = ogonek;
position = "{478, 0}";
},
{
name = top;
position = "{297, 989}";
}
);
layerId = master01;
paths = (
{
closed = 1;
nodes = (
"478 0 LINE SMOOTH",
"492 0 OFFCURVE",
"498 9 OFFCURVE",
"498 30 CURVE SMOOTH",
"498 46 LINE SMOOTH",
"498 67 OFFCURVE",
"492 76 OFFCURVE",
"478 76 CURVE SMOOTH",
"186 76 LINE",
"186 320 LINE",
"447 320 LINE SMOOTH",
"461 320 OFFCURVE",
"467 329 OFFCURVE",
"467 350 CURVE SMOOTH",
"467 366 LINE SMOOTH",
"467 387 OFFCURVE",
"461 396 OFFCURVE",
"447 396 CURVE SMOOTH",
"186 396 LINE",
"186 624 LINE",
"477 624 LINE SMOOTH",
"491 624 OFFCURVE",
"497 633 OFFCURVE",
"497 654 CURVE SMOOTH",
"497 670 LINE SMOOTH",
"497 691 OFFCURVE",
"491 700 OFFCURVE",
"477 700 CURVE SMOOTH",
"128 700 LINE SMOOTH",
"107 700 OFFCURVE",
"98 691 OFFCURVE",
"98 670 CURVE SMOOTH",
"98 30 LINE SMOOTH",
"98 9 OFFCURVE",
"107 0 OFFCURVE",
"128 0 CURVE SMOOTH"
);
},
{
closed = 1;
nodes = (
"201 742 OFFCURVE",
"218 747 OFFCURVE",
"233 757 CURVE SMOOTH",
"297 799 LINE",
"364 755 LINE SMOOTH",
"376 747 OFFCURVE",
"392 742 OFFCURVE",
"405 742 CURVE SMOOTH",
"422 742 OFFCURVE",
"427 747 OFFCURVE",
"427 753 CURVE SMOOTH",
"427 758 OFFCURVE",
"427 762 OFFCURVE",
"411 779 CURVE SMOOTH",
"361 832 LINE SMOOTH",
"343 851 OFFCURVE",
"338 854 OFFCURVE",
"307 854 CURVE SMOOTH",
"287 854 LINE SMOOTH",
"258 854 OFFCURVE",
"248 848 OFFCURVE",
"233 832 CURVE SMOOTH",
"181 777 LINE SMOOTH",
"167 762 OFFCURVE",
"167 758 OFFCURVE",
"167 753 CURVE SMOOTH",
"167 747 OFFCURVE",
"172 742 OFFCURVE",
"189 742 CURVE SMOOTH"
);
},
{
closed = 1;
nodes = (
"373 889 OFFCURVE",
"383 894 OFFCURVE",
"383 902 CURVE SMOOTH",
"383 907 OFFCURVE",
"380 913 OFFCURVE",
"372 921 CURVE SMOOTH",
"318 978 LINE SMOOTH",
"301 996 OFFCURVE",
"284 1001 OFFCURVE",
"242 1001 CURVE SMOOTH",
"211 1001 OFFCURVE",
"189 995 OFFCURVE",
"189 983 CURVE SMOOTH",
"189 972 OFFCURVE",
"194 965 OFFCURVE",
"229 943 CURVE SMOOTH",
"283 910 LINE SMOOTH",
"311 893 OFFCURVE",
"324 889 OFFCURVE",
"357 889 CURVE SMOOTH"
);
}
);
width = 546;
},
{
anchors = (
{
name = bottom;
position = "{295, 0}";
},
{
name = ogonek;
position = "{475, 0}";
},
{
name = top;
position = "{286, 1004}";
}
);
layerId = "2DCA4625-E4BE-49C6-A30F-EA66D600808E";
paths = (
{
closed = 1;
nodes = (
"469 0 LINE SMOOTH",
"490 0 OFFCURVE",
"499 15 OFFCURVE",
"499 50 CURVE SMOOTH",
"499 81 LINE SMOOTH",
"499 116 OFFCURVE",
"490 131 OFFCURVE",
"469 131 CURVE SMOOTH",
"231 131 LINE",
"231 293 LINE",
"441 293 LINE SMOOTH",
"462 293 OFFCURVE",
"471 308 OFFCURVE",
"471 343 CURVE SMOOTH",
"471 374 LINE SMOOTH",
"471 409 OFFCURVE",
"462 424 OFFCURVE",
"441 424 CURVE SMOOTH",
"231 424 LINE",
"231 569 LINE",
"468 569 LINE SMOOTH",
"489 569 OFFCURVE",
"498 584 OFFCURVE",
"498 619 CURVE SMOOTH",
"498 650 LINE SMOOTH",
"498 685 OFFCURVE",
"489 700 OFFCURVE",
"468 700 CURVE SMOOTH",
"117 700 LINE SMOOTH",
"89 700 OFFCURVE",
"77 688 OFFCURVE",
"77 660 CURVE SMOOTH",
"77 40 LINE SMOOTH",
"77 12 OFFCURVE",
"89 0 OFFCURVE",
"117 0 CURVE SMOOTH"
);
},
{
closed = 1;
nodes = (
"201 734 OFFCURVE",
"218 741 OFFCURVE",
"236 751 CURVE SMOOTH",
"285 779 LINE",
"334 751 LINE SMOOTH",
"353 740 OFFCURVE",
"370 734 OFFCURVE",
"392 734 CURVE SMOOTH",
"426 734 OFFCURVE",
"432 737 OFFCURVE",
"432 744 CURVE SMOOTH",
"432 748 OFFCURVE",
"430 753 OFFCURVE",
"411 774 CURVE SMOOTH",
"356 836 LINE SMOOTH",
"339 855 OFFCURVE",
"326 860 OFFCURVE",
"295 860 CURVE SMOOTH",
"275 860 LINE SMOOTH",
"244 860 OFFCURVE",
"231 855 OFFCURVE",
"215 837 CURVE SMOOTH",
"159 774 LINE SMOOTH",
"140 753 OFFCURVE",
"138 748 OFFCURVE",
"138 744 CURVE SMOOTH",
"138 737 OFFCURVE",
"144 734 OFFCURVE",
"178 734 CURVE SMOOTH"
);
},
{
closed = 1;
nodes = (
"365 891 OFFCURVE",
"377 895 OFFCURVE",
"377 904 CURVE SMOOTH",
"377 909 OFFCURVE",
"374 916 OFFCURVE",
"364 927 CURVE SMOOTH",
"310 987 LINE SMOOTH",
"289 1010 OFFCURVE",
"270 1017 OFFCURVE",
"224 1017 CURVE SMOOTH",
"177 1017 OFFCURVE",
"153 1014 OFFCURVE",
"153 999 CURVE SMOOTH",
"153 991 OFFCURVE",
"161 981 OFFCURVE",
"183 967 CURVE SMOOTH",
"269 910 LINE SMOOTH",
"291 896 OFFCURVE",
"305 891 OFFCURVE",
"339 891 CURVE SMOOTH"
);
}
);
width = 546;
}
);
leftKerningGroup = H;
rightKerningGroup = E;
unicode = 1EC0;
},
{
glyphname = Ecircumflexhookabove;
layers = (
{
anchors = (
{
name = bottom;
position = "{301, 0}";
},
{
name = ogonek;
position = "{478, 0}";
},
{
name = top;
position = "{297, 1034}";
}
);
layerId = master01;
paths = (
{
closed = 1;
nodes = (
"478 0 LINE SMOOTH",
"492 0 OFFCURVE",
"498 9 OFFCURVE",
"498 30 CURVE SMOOTH",
"498 46 LINE SMOOTH",
"498 67 OFFCURVE",
"492 76 OFFCURVE",
"478 76 CURVE SMOOTH",
"186 76 LINE",
"186 320 LINE",
"447 320 LINE SMOOTH",
"461 320 OFFCURVE",
"467 329 OFFCURVE",
"467 350 CURVE SMOOTH",
"467 366 LINE SMOOTH",
"467 387 OFFCURVE",
"461 396 OFFCURVE",
"447 396 CURVE SMOOTH",
"186 396 LINE",
"186 624 LINE",
"477 624 LINE SMOOTH",
"491 624 OFFCURVE",
"497 633 OFFCURVE",
"497 654 CURVE SMOOTH",
"497 670 LINE SMOOTH",
"497 691 OFFCURVE",
"491 700 OFFCURVE",
"477 700 CURVE SMOOTH",
"128 700 LINE SMOOTH",
"107 700 OFFCURVE",
"98 691 OFFCURVE",
"98 670 CURVE SMOOTH",
"98 30 LINE SMOOTH",
"98 9 OFFCURVE",
"107 0 OFFCURVE",
"128 0 CURVE SMOOTH"
);
},
{
closed = 1;
nodes = (
"201 742 OFFCURVE",
"218 747 OFFCURVE",
"233 757 CURVE SMOOTH",
"297 799 LINE",
"364 755 LINE SMOOTH",
"376 747 OFFCURVE",
"392 742 OFFCURVE",
"405 742 CURVE SMOOTH",
"422 742 OFFCURVE",
"427 747 OFFCURVE",
"427 753 CURVE SMOOTH",
"427 758 OFFCURVE",
"427 762 OFFCURVE",
"411 779 CURVE SMOOTH",
"361 832 LINE SMOOTH",
"343 851 OFFCURVE",
"338 854 OFFCURVE",
"307 854 CURVE SMOOTH",
"287 854 LINE SMOOTH",
"258 854 OFFCURVE",
"248 848 OFFCURVE",
"233 832 CURVE SMOOTH",
"181 777 LINE SMOOTH",
"167 762 OFFCURVE",
"167 758 OFFCURVE",
"167 753 CURVE SMOOTH",
"167 747 OFFCURVE",
"172 742 OFFCURVE",
"189 742 CURVE SMOOTH"
);
},
{
closed = 1;
nodes = (
"303 875 OFFCURVE",
"397 908 OFFCURVE",
"397 971 CURVE SMOOTH",
"397 1011 OFFCURVE",
"356 1042 OFFCURVE",
"294 1042 CURVE SMOOTH",
"253 1042 OFFCURVE",
"196 1024 OFFCURVE",
"196 1011 CURVE SMOOTH",
"196 997 OFFCURVE",
"210 978 OFFCURVE",
"223 978 CURVE SMOOTH",
"238 978 OFFCURVE",
"257 991 OFFCURVE",
"292 991 CURVE SMOOTH",
"314 991 OFFCURVE",
"333 982 OFFCURVE",
"333 964 CURVE SMOOTH",
"333 933 OFFCURVE",
"245 920 OFFCURVE",
"245 908 CURVE SMOOTH",
"245 899 OFFCURVE",
"265 875 OFFCURVE",
"282 875 CURVE SMOOTH"
);
}
);
width = 546;
},
{
anchors = (
{
name = bottom;
position = "{295, 0}";
},
{
name = ogonek;
position = "{475, 0}";
},
{
name = top;
position = "{286, 1039}";
}
);
layerId = "2DCA4625-E4BE-49C6-A30F-EA66D600808E";
paths = (
{
closed = 1;
nodes = (
"469 0 LINE SMOOTH",
"490 0 OFFCURVE",
"499 15 OFFCURVE",
"499 50 CURVE SMOOTH",
"499 81 LINE SMOOTH",
"499 116 OFFCURVE",
"490 131 OFFCURVE",
"469 131 CURVE SMOOTH",
"231 131 LINE",
"231 293 LINE",
"441 293 LINE SMOOTH",
"462 293 OFFCURVE",
"471 308 OFFCURVE",
"471 343 CURVE SMOOTH",
"471 374 LINE SMOOTH",
"471 409 OFFCURVE",
"462 424 OFFCURVE",
"441 424 CURVE SMOOTH",
"231 424 LINE",
"231 569 LINE",
"468 569 LINE SMOOTH",
"489 569 OFFCURVE",
"498 584 OFFCURVE",
"498 619 CURVE SMOOTH",
"498 650 LINE SMOOTH",
"498 685 OFFCURVE",
"489 700 OFFCURVE",
"468 700 CURVE SMOOTH",
"117 700 LINE SMOOTH",
"89 700 OFFCURVE",
"77 688 OFFCURVE",
"77 660 CURVE SMOOTH",
"77 40 LINE SMOOTH",
"77 12 OFFCURVE",
"89 0 OFFCURVE",
"117 0 CURVE SMOOTH"
);
},
{
closed = 1;
nodes = (
"201 734 OFFCURVE",
"218 741 OFFCURVE",
"236 751 CURVE SMOOTH",
"285 779 LINE",
"334 751 LINE SMOOTH",
"353 740 OFFCURVE",
"370 734 OFFCURVE",
"392 734 CURVE SMOOTH",
"426 734 OFFCURVE",
"432 737 OFFCURVE",
"432 744 CURVE SMOOTH",
"432 748 OFFCURVE",
"430 753 OFFCURVE",
"411 774 CURVE SMOOTH",
"356 836 LINE SMOOTH",
"339 855 OFFCURVE",
"326 860 OFFCURVE",
"295 860 CURVE SMOOTH",
"275 860 LINE SMOOTH",
"244 860 OFFCURVE",
"231 855 OFFCURVE",
"215 837 CURVE SMOOTH",
"159 774 LINE SMOOTH",
"140 753 OFFCURVE",
"138 748 OFFCURVE",
"138 744 CURVE SMOOTH",
"138 737 OFFCURVE",
"144 734 OFFCURVE",
"178 734 CURVE SMOOTH"
);
},
{
closed = 1;
nodes = (
"301 879 OFFCURVE",
"391 916 OFFCURVE",
"391 976 CURVE SMOOTH",
"391 1024 OFFCURVE",
"348 1055 OFFCURVE",
"279 1055 CURVE SMOOTH",
"230 1055 OFFCURVE",
"180 1037 OFFCURVE",
"180 1024 CURVE SMOOTH",
"180 1004 OFFCURVE",
"198 982 OFFCURVE",
"211 982 CURVE SMOOTH",
"226 982 OFFCURVE",
"249 992 OFFCURVE",
"276 992 CURVE SMOOTH",
"293 992 OFFCURVE",
"308 987 OFFCURVE",
"308 972 CURVE SMOOTH",
"308 932 OFFCURVE",
"230 924 OFFCURVE",
"230 909 CURVE SMOOTH",
"230 896 OFFCURVE",
"258 879 OFFCURVE",
"278 879 CURVE SMOOTH"
);
}
);
width = 546;
}
);
leftKerningGroup = H;
rightKerningGroup = E;
unicode = 1EC2;
},
{
glyphname = Ecircumflextilde;
layers = (
{
anchors = (
{
name = bottom;
position = "{301, 0}";
},
{
name = ogonek;
position = "{478, 0}";
},
{
name = top;
position = "{297, 974}";
}
);
layerId = master01;
paths = (
{
closed = 1;
nodes = (
"478 0 LINE SMOOTH",
"492 0 OFFCURVE",
"498 9 OFFCURVE",
"498 30 CURVE SMOOTH",
"498 46 LINE SMOOTH",
"498 67 OFFCURVE",
"492 76 OFFCURVE",
"478 76 CURVE SMOOTH",
"186 76 LINE",
"186 320 LINE",
"447 320 LINE SMOOTH",
"461 320 OFFCURVE",
"467 329 OFFCURVE",
"467 350 CURVE SMOOTH",
"467 366 LINE SMOOTH",
"467 387 OFFCURVE",
"461 396 OFFCURVE",
"447 396 CURVE SMOOTH",
"186 396 LINE",
"186 624 LINE",
"477 624 LINE SMOOTH",
"491 624 OFFCURVE",
"497 633 OFFCURVE",
"497 654 CURVE SMOOTH",
"497 670 LINE SMOOTH",
"497 691 OFFCURVE",
"491 700 OFFCURVE",
"477 700 CURVE SMOOTH",
"128 700 LINE SMOOTH",
"107 700 OFFCURVE",
"98 691 OFFCURVE",
"98 670 CURVE SMOOTH",
"98 30 LINE SMOOTH",
"98 9 OFFCURVE",
"107 0 OFFCURVE",
"128 0 CURVE SMOOTH"
);
},
{
closed = 1;
nodes = (
"201 742 OFFCURVE",
"218 747 OFFCURVE",
"233 757 CURVE SMOOTH",
"297 799 LINE",
"364 755 LINE SMOOTH",
"376 747 OFFCURVE",
"392 742 OFFCURVE",
"405 742 CURVE SMOOTH",
"422 742 OFFCURVE",
"427 747 OFFCURVE",
"427 753 CURVE SMOOTH",
"427 758 OFFCURVE",
"427 762 OFFCURVE",
"411 779 CURVE SMOOTH",
"361 832 LINE SMOOTH",
"343 851 OFFCURVE",
"338 854 OFFCURVE",
"307 854 CURVE SMOOTH",
"287 854 LINE SMOOTH",
"258 854 OFFCURVE",
"248 848 OFFCURVE",
"233 832 CURVE SMOOTH",
"181 777 LINE SMOOTH",
"167 762 OFFCURVE",
"167 758 OFFCURVE",
"167 753 CURVE SMOOTH",
"167 747 OFFCURVE",
"172 742 OFFCURVE",
"189 742 CURVE SMOOTH"
);
},
{
closed = 1;
nodes = (
"164 893 OFFCURVE",
"172 936 OFFCURVE",
"215 936 CURVE SMOOTH",
"258 936 OFFCURVE",
"316 893 OFFCURVE",
"377 893 CURVE SMOOTH",
"419 893 OFFCURVE",
"451 916 OFFCURVE",
"474 962 CURVE SMOOTH",
"477 968 OFFCURVE",
"478 972 OFFCURVE",
"478 975 CURVE SMOOTH",
"478 987 OFFCURVE",
"459 998 OFFCURVE",
"448 998 CURVE SMOOTH",
"431 998 OFFCURVE",
"418 955 OFFCURVE",
"375 955 CURVE SMOOTH",
"332 955 OFFCURVE",
"274 998 OFFCURVE",
"216 998 CURVE SMOOTH",
"173 998 OFFCURVE",
"136 972 OFFCURVE",
"118 927 CURVE SMOOTH",
"116 922 OFFCURVE",
"115 918 OFFCURVE",
"115 914 CURVE SMOOTH",
"115 902 OFFCURVE",
"135 893 OFFCURVE",
"146 893 CURVE SMOOTH"
);
}
);
width = 546;
},
{
anchors = (
{
name = bottom;
position = "{295, 0}";
},
{
name = ogonek;
position = "{475, 0}";
},
{
name = top;
position = "{286, 989}";
}
);
layerId = "2DCA4625-E4BE-49C6-A30F-EA66D600808E";
paths = (
{
closed = 1;
nodes = (
"469 0 LINE SMOOTH",
"490 0 OFFCURVE",
"499 15 OFFCURVE",
"499 50 CURVE SMOOTH",
"499 81 LINE SMOOTH",
"499 116 OFFCURVE",
"490 131 OFFCURVE",
"469 131 CURVE SMOOTH",
"231 131 LINE",
"231 293 LINE",
"441 293 LINE SMOOTH",
"462 293 OFFCURVE",
"471 308 OFFCURVE",
"471 343 CURVE SMOOTH",
"471 374 LINE SMOOTH",
"471 409 OFFCURVE",
"462 424 OFFCURVE",
"441 424 CURVE SMOOTH",
"231 424 LINE",
"231 569 LINE",
"468 569 LINE SMOOTH",
"489 569 OFFCURVE",
"498 584 OFFCURVE",
"498 619 CURVE SMOOTH",
"498 650 LINE SMOOTH",
"498 685 OFFCURVE",
"489 700 OFFCURVE",
"468 700 CURVE SMOOTH",
"117 700 LINE SMOOTH",
"89 700 OFFCURVE",
"77 688 OFFCURVE",
"77 660 CURVE SMOOTH",
"77 40 LINE SMOOTH",
"77 12 OFFCURVE",
"89 0 OFFCURVE",
"117 0 CURVE SMOOTH"
);
},
{
closed = 1;
nodes = (
"201 734 OFFCURVE",
"218 741 OFFCURVE",
"236 751 CURVE SMOOTH",
"285 779 LINE",
"334 751 LINE SMOOTH",
"353 740 OFFCURVE",
"370 734 OFFCURVE",
"392 734 CURVE SMOOTH",
"426 734 OFFCURVE",
"432 737 OFFCURVE",
"432 744 CURVE SMOOTH",
"432 748 OFFCURVE",
"430 753 OFFCURVE",
"411 774 CURVE SMOOTH",
"356 836 LINE SMOOTH",
"339 855 OFFCURVE",
"326 860 OFFCURVE",
"295 860 CURVE SMOOTH",
"275 860 LINE SMOOTH",
"244 860 OFFCURVE",
"231 855 OFFCURVE",
"215 837 CURVE SMOOTH",
"159 774 LINE SMOOTH",
"140 753 OFFCURVE",
"138 748 OFFCURVE",
"138 744 CURVE SMOOTH",
"138 737 OFFCURVE",
"144 734 OFFCURVE",
"178 734 CURVE SMOOTH"
);
},
{
closed = 1;
nodes = (
"166 892 OFFCURVE",
"176 924 OFFCURVE",
"210 924 CURVE SMOOTH",
"246 924 OFFCURVE",
"309 895 OFFCURVE",
"354 895 CURVE SMOOTH",
"411 895 OFFCURVE",
"444 933 OFFCURVE",
"458 959 CURVE SMOOTH",
"463 968 OFFCURVE",
"466 977 OFFCURVE",
"466 982 CURVE SMOOTH",
"466 996 OFFCURVE",
"438 1015 OFFCURVE",
"423 1015 CURVE SMOOTH",
"405 1015 OFFCURVE",
"391 984 OFFCURVE",
"358 984 CURVE SMOOTH",
"325 984 OFFCURVE",
"261 1013 OFFCURVE",
"217 1013 CURVE SMOOTH",
"160 1013 OFFCURVE",
"129 979 OFFCURVE",
"114 947 CURVE SMOOTH",
"110 939 OFFCURVE",
"106 929 OFFCURVE",
"106 920 CURVE SMOOTH",
"106 906 OFFCURVE",
"137 892 OFFCURVE",
"149 892 CURVE SMOOTH"
);
}
);
width = 546;
}
);
leftKerningGroup = H;
rightKerningGroup = E;
unicode = 1EC4;
},
{
glyphname = Edblgrave;
layers = (
{
anchors = (
{
name = bottom;
position = "{301, 0}";
},
{
name = ogonek;
position = "{478, 0}";
},
{
name = top;
position = "{297, 852}";
}
);
layerId = master01;
paths = (
{
closed = 1;
nodes = (
"478 0 LINE SMOOTH",
"492 0 OFFCURVE",
"498 9 OFFCURVE",
"498 30 CURVE SMOOTH",
"498 46 LINE SMOOTH",
"498 67 OFFCURVE",
"492 76 OFFCURVE",
"478 76 CURVE SMOOTH",
"186 76 LINE",
"186 320 LINE",
"447 320 LINE SMOOTH",
"461 320 OFFCURVE",
"467 329 OFFCURVE",
"467 350 CURVE SMOOTH",
"467 366 LINE SMOOTH",
"467 387 OFFCURVE",
"461 396 OFFCURVE",
"447 396 CURVE SMOOTH",
"186 396 LINE",
"186 624 LINE",
"477 624 LINE SMOOTH",
"491 624 OFFCURVE",
"497 633 OFFCURVE",
"497 654 CURVE SMOOTH",
"497 670 LINE SMOOTH",
"497 691 OFFCURVE",
"491 700 OFFCURVE",
"477 700 CURVE SMOOTH",
"128 700 LINE SMOOTH",
"107 700 OFFCURVE",
"98 691 OFFCURVE",
"98 670 CURVE SMOOTH",
"98 30 LINE SMOOTH",
"98 9 OFFCURVE",
"107 0 OFFCURVE",
"128 0 CURVE SMOOTH"
);
},
{
closed = 1;
nodes = (
"275 752 OFFCURVE",
"285 757 OFFCURVE",
"285 765 CURVE SMOOTH",
"285 770 OFFCURVE",
"282 776 OFFCURVE",
"274 784 CURVE SMOOTH",
"220 841 LINE SMOOTH",
"203 859 OFFCURVE",
"186 864 OFFCURVE",
"144 864 CURVE SMOOTH",
"113 864 OFFCURVE",
"91 858 OFFCURVE",
"91 846 CURVE SMOOTH",
"91 835 OFFCURVE",
"96 828 OFFCURVE",
"131 806 CURVE SMOOTH",
"185 773 LINE SMOOTH",
"213 756 OFFCURVE",
"226 752 OFFCURVE",
"259 752 CURVE SMOOTH"
);
},
{
closed = 1;
nodes = (
"438 752 OFFCURVE",
"448 757 OFFCURVE",
"448 765 CURVE SMOOTH",
"448 770 OFFCURVE",
"445 776 OFFCURVE",
"437 784 CURVE SMOOTH",
"383 841 LINE SMOOTH",
"366 859 OFFCURVE",
"349 864 OFFCURVE",
"307 864 CURVE SMOOTH",
"276 864 OFFCURVE",
"254 858 OFFCURVE",
"254 846 CURVE SMOOTH",
"254 835 OFFCURVE",
"259 828 OFFCURVE",
"294 806 CURVE SMOOTH",
"348 773 LINE SMOOTH",
"376 756 OFFCURVE",
"389 752 OFFCURVE",
"422 752 CURVE SMOOTH"
);
}
);
width = 546;
},
{
anchors = (
{
name = bottom;
position = "{295, 0}";
},
{
name = ogonek;
position = "{475, 0}";
},
{
name = top;
position = "{286, 862}";
}
);
layerId = "2DCA4625-E4BE-49C6-A30F-EA66D600808E";
paths = (
{
closed = 1;
nodes = (
"469 0 LINE SMOOTH",
"490 0 OFFCURVE",
"499 15 OFFCURVE",
"499 50 CURVE SMOOTH",
"499 81 LINE SMOOTH",
"499 116 OFFCURVE",
"490 131 OFFCURVE",
"469 131 CURVE SMOOTH",
"231 131 LINE",
"231 293 LINE",
"441 293 LINE SMOOTH",
"462 293 OFFCURVE",
"471 308 OFFCURVE",
"471 343 CURVE SMOOTH",
"471 374 LINE SMOOTH",
"471 409 OFFCURVE",
"462 424 OFFCURVE",
"441 424 CURVE SMOOTH",
"231 424 LINE",
"231 569 LINE",
"468 569 LINE SMOOTH",
"489 569 OFFCURVE",
"498 584 OFFCURVE",
"498 619 CURVE SMOOTH",
"498 650 LINE SMOOTH",
"498 685 OFFCURVE",
"489 700 OFFCURVE",
"468 700 CURVE SMOOTH",
"117 700 LINE SMOOTH",
"89 700 OFFCURVE",
"77 688 OFFCURVE",
"77 660 CURVE SMOOTH",
"77 40 LINE SMOOTH",
"77 12 OFFCURVE",
"89 0 OFFCURVE",
"117 0 CURVE SMOOTH"
);
},
{
closed = 1;
nodes = (
"260 749 OFFCURVE",
"272 753 OFFCURVE",
"272 762 CURVE SMOOTH",
"272 767 OFFCURVE",
"269 774 OFFCURVE",
"259 785 CURVE SMOOTH",
"205 845 LINE SMOOTH",
"184 868 OFFCURVE",
"165 875 OFFCURVE",
"119 875 CURVE SMOOTH",
"72 875 OFFCURVE",
"48 872 OFFCURVE",
"48 857 CURVE SMOOTH",
"48 849 OFFCURVE",
"56 839 OFFCURVE",
"78 825 CURVE SMOOTH",
"164 768 LINE SMOOTH",
"186 754 OFFCURVE",
"200 749 OFFCURVE",
"234 749 CURVE SMOOTH"
);
},
{
closed = 1;
nodes = (
"454 749 OFFCURVE",
"466 753 OFFCURVE",
"466 762 CURVE SMOOTH",
"466 767 OFFCURVE",
"463 774 OFFCURVE",
"453 785 CURVE SMOOTH",
"399 845 LINE SMOOTH",
"378 868 OFFCURVE",
"359 875 OFFCURVE",
"313 875 CURVE SMOOTH",
"266 875 OFFCURVE",
"242 872 OFFCURVE",
"242 857 CURVE SMOOTH",
"242 849 OFFCURVE",
"250 839 OFFCURVE",
"272 825 CURVE SMOOTH",
"358 768 LINE SMOOTH",
"380 754 OFFCURVE",
"394 749 OFFCURVE",
"428 749 CURVE SMOOTH"
);
}
);
width = 546;
}
);
leftKerningGroup = H;
rightKerningGroup = E;
unicode = 0204;
},
{
glyphname = Edieresis;
layers = (
{
anchors = (
{
name = bottom;
position = "{301, 0}";
},
{
name = ogonek;
position = "{478, 0}";
},
{
name = top;
position = "{297, 842}";
}
);
layerId = master01;
paths = (
{
closed = 1;
nodes = (
"478 0 LINE SMOOTH",
"492 0 OFFCURVE",
"498 9 OFFCURVE",
"498 30 CURVE SMOOTH",
"498 46 LINE SMOOTH",
"498 67 OFFCURVE",
"492 76 OFFCURVE",
"478 76 CURVE SMOOTH",
"186 76 LINE",
"186 320 LINE",
"447 320 LINE SMOOTH",
"461 320 OFFCURVE",
"467 329 OFFCURVE",
"467 350 CURVE SMOOTH",
"467 366 LINE SMOOTH",
"467 387 OFFCURVE",
"461 396 OFFCURVE",
"447 396 CURVE SMOOTH",
"186 396 LINE",
"186 624 LINE",
"477 624 LINE SMOOTH",
"491 624 OFFCURVE",
"497 633 OFFCURVE",
"497 654 CURVE SMOOTH",
"497 670 LINE SMOOTH",
"497 691 OFFCURVE",
"491 700 OFFCURVE",
"477 700 CURVE SMOOTH",
"128 700 LINE SMOOTH",
"107 700 OFFCURVE",
"98 691 OFFCURVE",
"98 670 CURVE SMOOTH",
"98 30 LINE SMOOTH",
"98 9 OFFCURVE",
"107 0 OFFCURVE",
"128 0 CURVE SMOOTH"
);
},
{
closed = 1;
nodes = (
"408 758 OFFCURVE",
"421 765 OFFCURVE",
"421 780 CURVE SMOOTH",
"421 836 LINE SMOOTH",
"421 851 OFFCURVE",
"408 858 OFFCURVE",
"377 858 CURVE SMOOTH",
"346 858 OFFCURVE",
"333 851 OFFCURVE",
"333 836 CURVE SMOOTH",
"333 780 LINE SMOOTH",
"333 765 OFFCURVE",
"346 758 OFFCURVE",
"377 758 CURVE SMOOTH"
);
},
{
closed = 1;
nodes = (
"248 758 OFFCURVE",
"261 765 OFFCURVE",
"261 780 CURVE SMOOTH",
"261 836 LINE SMOOTH",
"261 851 OFFCURVE",
"248 858 OFFCURVE",
"217 858 CURVE SMOOTH",
"186 858 OFFCURVE",
"173 851 OFFCURVE",
"173 836 CURVE SMOOTH",
"173 780 LINE SMOOTH",
"173 765 OFFCURVE",
"186 758 OFFCURVE",
"217 758 CURVE SMOOTH"
);
}
);
width = 546;
},
{
anchors = (
{
name = bottom;
position = "{295, 0}";
},
{
name = ogonek;
position = "{475, 0}";
},
{
name = top;
position = "{286, 852}";
}
);
layerId = "2DCA4625-E4BE-49C6-A30F-EA66D600808E";
paths = (
{
closed = 1;
nodes = (
"469 0 LINE SMOOTH",
"490 0 OFFCURVE",
"499 15 OFFCURVE",
"499 50 CURVE SMOOTH",
"499 81 LINE SMOOTH",
"499 116 OFFCURVE",
"490 131 OFFCURVE",
"469 131 CURVE SMOOTH",
"231 131 LINE",
"231 293 LINE",
"441 293 LINE SMOOTH",
"462 293 OFFCURVE",
"471 308 OFFCURVE",
"471 343 CURVE SMOOTH",
"471 374 LINE SMOOTH",
"471 409 OFFCURVE",
"462 424 OFFCURVE",
"441 424 CURVE SMOOTH",
"231 424 LINE",
"231 569 LINE",
"468 569 LINE SMOOTH",
"489 569 OFFCURVE",
"498 584 OFFCURVE",
"498 619 CURVE SMOOTH",
"498 650 LINE SMOOTH",
"498 685 OFFCURVE",
"489 700 OFFCURVE",
"468 700 CURVE SMOOTH",
"117 700 LINE SMOOTH",
"89 700 OFFCURVE",
"77 688 OFFCURVE",
"77 660 CURVE SMOOTH",
"77 40 LINE SMOOTH",
"77 12 OFFCURVE",
"89 0 OFFCURVE",
"117 0 CURVE SMOOTH"
);
},
{
closed = 1;
nodes = (
"424 746 OFFCURVE",
"443 756 OFFCURVE",
"443 778 CURVE SMOOTH",
"443 846 LINE SMOOTH",
"443 868 OFFCURVE",
"424 878 OFFCURVE",
"379 878 CURVE SMOOTH",
"334 878 OFFCURVE",
"315 868 OFFCURVE",
"315 846 CURVE SMOOTH",
"315 778 LINE SMOOTH",
"315 756 OFFCURVE",
"334 746 OFFCURVE",
"379 746 CURVE SMOOTH"
);
},
{
closed = 1;
nodes = (
"238 746 OFFCURVE",
"257 756 OFFCURVE",
"257 778 CURVE SMOOTH",
"257 846 LINE SMOOTH",
"257 868 OFFCURVE",
"238 878 OFFCURVE",
"193 878 CURVE SMOOTH",
"148 878 OFFCURVE",
"129 868 OFFCURVE",
"129 846 CURVE SMOOTH",
"129 778 LINE SMOOTH",
"129 756 OFFCURVE",
"148 746 OFFCURVE",
"193 746 CURVE SMOOTH"
);
}
);
width = 546;
}
);
leftKerningGroup = H;
rightKerningGroup = E;
unicode = 00CB;
},
{
glyphname = Edotaccent;
layers = (
{
anchors = (
{
name = bottom;
position = "{301, 0}";
},
{
name = ogonek;
position = "{478, 0}";
},
{
name = top;
position = "{297, 842}";
}
);
layerId = master01;
paths = (
{
closed = 1;
nodes = (
"478 0 LINE SMOOTH",
"492 0 OFFCURVE",
"498 9 OFFCURVE",
"498 30 CURVE SMOOTH",
"498 46 LINE SMOOTH",
"498 67 OFFCURVE",
"492 76 OFFCURVE",
"478 76 CURVE SMOOTH",
"186 76 LINE",
"186 320 LINE",
"447 320 LINE SMOOTH",
"461 320 OFFCURVE",
"467 329 OFFCURVE",
"467 350 CURVE SMOOTH",
"467 366 LINE SMOOTH",
"467 387 OFFCURVE",
"461 396 OFFCURVE",
"447 396 CURVE SMOOTH",
"186 396 LINE",
"186 624 LINE",
"477 624 LINE SMOOTH",
"491 624 OFFCURVE",
"497 633 OFFCURVE",
"497 654 CURVE SMOOTH",
"497 670 LINE SMOOTH",
"497 691 OFFCURVE",
"491 700 OFFCURVE",
"477 700 CURVE SMOOTH",
"128 700 LINE SMOOTH",
"107 700 OFFCURVE",
"98 691 OFFCURVE",
"98 670 CURVE SMOOTH",
"98 30 LINE SMOOTH",
"98 9 OFFCURVE",
"107 0 OFFCURVE",
"128 0 CURVE SMOOTH"
);
},
{
closed = 1;
nodes = (
"329 757 OFFCURVE",
"341 766 OFFCURVE",
"341 779 CURVE SMOOTH",
"341 839 LINE SMOOTH",
"341 853 OFFCURVE",
"329 861 OFFCURVE",
"297 861 CURVE SMOOTH",
"265 861 OFFCURVE",
"253 852 OFFCURVE",
"253 839 CURVE SMOOTH",
"253 779 LINE SMOOTH",
"253 765 OFFCURVE",
"265 757 OFFCURVE",
"297 757 CURVE SMOOTH"
);
}
);
width = 546;
},
{
anchors = (
{
name = bottom;
position = "{295, 0}";
},
{
name = ogonek;
position = "{475, 0}";
},
{
name = top;
position = "{286, 852}";
}
);
layerId = "2DCA4625-E4BE-49C6-A30F-EA66D600808E";
paths = (
{
closed = 1;
nodes = (
"469 0 LINE SMOOTH",
"490 0 OFFCURVE",
"499 15 OFFCURVE",
"499 50 CURVE SMOOTH",
"499 81 LINE SMOOTH",
"499 116 OFFCURVE",
"490 131 OFFCURVE",
"469 131 CURVE SMOOTH",
"231 131 LINE",
"231 293 LINE",
"441 293 LINE SMOOTH",
"462 293 OFFCURVE",
"471 308 OFFCURVE",
"471 343 CURVE SMOOTH",
"471 374 LINE SMOOTH",
"471 409 OFFCURVE",
"462 424 OFFCURVE",
"441 424 CURVE SMOOTH",
"231 424 LINE",
"231 569 LINE",
"468 569 LINE SMOOTH",
"489 569 OFFCURVE",
"498 584 OFFCURVE",
"498 619 CURVE SMOOTH",
"498 650 LINE SMOOTH",
"498 685 OFFCURVE",
"489 700 OFFCURVE",
"468 700 CURVE SMOOTH",
"117 700 LINE SMOOTH",
"89 700 OFFCURVE",
"77 688 OFFCURVE",
"77 660 CURVE SMOOTH",
"77 40 LINE SMOOTH",
"77 12 OFFCURVE",
"89 0 OFFCURVE",
"117 0 CURVE SMOOTH"
);
},
{
closed = 1;
nodes = (
"338 741 OFFCURVE",
"360 752 OFFCURVE",
"360 773 CURVE SMOOTH",
"360 851 LINE SMOOTH",
"360 872 OFFCURVE",
"338 883 OFFCURVE",
"286 883 CURVE SMOOTH",
"234 883 OFFCURVE",
"212 872 OFFCURVE",
"212 851 CURVE SMOOTH",
"212 773 LINE SMOOTH",
"212 752 OFFCURVE",
"234 741 OFFCURVE",
"286 741 CURVE SMOOTH"
);
}
);
width = 546;
}
);
leftKerningGroup = H;
rightKerningGroup = E;
unicode = 0116;
},
